<svg width="509" height="500" viewBox="0 0 509 500" fill="none" xmlns="http://www.w3.org/2000/svg">
<path d="M385.691 159.78C354.685 155.98 322.836 171.63 292.634 163.78C247.107 151.9 229.962 94.7201 188.402 72.9201C158.22 57.0901 118.744 63.9201 92.6196 85.6101C66.4954 107.3 53.1841 141.66 52.9604 175.3C52.7367 208.94 65.1632 245.14 82.2879 274.3C104.075 309.012 136.382 336.131 174.663 351.84C222.986 371.49 279.618 376.84 328.673 368.57C363.441 362.68 397.477 348.33 422.228 323.57C446.979 298.81 461.318 262.97 455.298 228.79C449.277 194.61 420.692 164.06 385.691 159.78Z" fill="#EBEBEB"/>
<path d="M470.734 469.08C470.734 469.22 374.037 469.34 254.785 469.34C135.533 469.34 38.8153 469.22 38.8153 469.08C38.8153 468.94 135.492 468.81 254.785 468.81C374.078 468.81 470.734 468.93 470.734 469.08Z" fill="#263238"/>
<path d="M155.21 437L156.034 461.88L162.46 481.38C162.57 481.712 162.609 482.063 162.575 482.41C162.542 482.758 162.436 483.095 162.264 483.4C162.093 483.706 161.859 483.974 161.578 484.187C161.297 484.4 160.974 484.554 160.63 484.64C160.229 484.741 159.808 484.746 159.405 484.653C159.001 484.561 158.626 484.375 158.311 484.11C154.244 480.68 139.367 468 139.407 466.18C139.407 464.06 136.753 439.98 136.753 439.98L155.21 437Z" fill="#EFBD5D"/>
<path d="M160.63 484.61L139.275 464.47L139.336 465.47C139.385 466.382 139.764 467.247 140.404 467.91C142.112 469.67 146.942 474.45 158.21 484.03C158.532 484.306 158.92 484.499 159.337 484.591C159.754 484.684 160.188 484.673 160.599 484.56L160.63 484.61Z" fill="#E0E0E0"/>
<path d="M144.044 456.16C144.371 456.368 144.607 456.688 144.706 457.058C144.806 457.428 144.762 457.82 144.583 458.16C144.387 458.498 144.063 458.745 143.682 458.848C143.301 458.951 142.893 458.901 142.549 458.71C142.204 458.491 141.954 458.154 141.849 457.764C141.744 457.373 141.79 456.958 141.98 456.6C142.223 456.281 142.583 456.068 142.983 456.004C143.383 455.941 143.793 456.033 144.126 456.26" fill="white"/>
<path d="M154.234 474.07C154.376 474.13 154.874 472.79 156.339 472.01C157.244 471.599 158.22 471.358 159.216 471.3C159.216 471.24 158.911 471.07 158.311 471.02C157.528 470.97 156.746 471.147 156.064 471.53C155.381 471.907 154.823 472.469 154.457 473.15C154.183 473.68 154.173 474.05 154.234 474.07Z" fill="#263238"/>
<path d="M156.227 477.3C156.925 476.854 157.652 476.453 158.403 476.1C159.21 475.904 160.028 475.757 160.854 475.66C160.452 475.438 160.001 475.316 159.54 475.304C159.08 475.291 158.623 475.39 158.21 475.59C156.745 476.1 156.135 477.24 156.227 477.3Z" fill="#263238"/>
<path d="M150.634 470C151.664 469.239 152.748 468.551 153.878 467.94C155.083 467.494 156.32 467.136 157.579 466.87C156.239 466.689 154.873 466.887 153.643 467.441C152.413 467.995 151.369 468.883 150.634 470Z" fill="#263238"/>
<path d="M149.739 462.44C149.82 462.58 151.183 461.93 152.993 461.77C154.803 461.61 156.278 461.95 156.318 461.77C155.297 461.192 154.102 460.987 152.942 461.19C151.759 461.227 150.626 461.669 149.739 462.44Z" fill="#263238"/>
<path d="M149.312 455.14C150.392 454.727 151.524 454.461 152.678 454.35C153.835 454.409 154.979 454.628 156.074 455C156.074 454.94 155.82 454.65 155.22 454.35C154.425 453.972 153.55 453.787 152.668 453.81C151.784 453.825 150.917 454.044 150.136 454.45C149.556 454.78 149.271 455.09 149.312 455.14Z" fill="#263238"/>
<path d="M152.556 453C152.634 452.671 152.634 452.329 152.556 452C152.42 451.144 152.116 450.322 151.661 449.58C151.366 449.014 150.896 448.556 150.319 448.27C150.119 448.192 149.899 448.177 149.691 448.23C149.483 448.282 149.297 448.397 149.159 448.56C148.902 448.887 148.782 449.299 148.824 449.71C148.928 450.542 149.325 451.311 149.945 451.886C150.565 452.461 151.37 452.806 152.22 452.86C153.065 452.902 153.903 452.695 154.628 452.266C155.353 451.836 155.931 451.204 156.288 450.45C156.376 450.26 156.421 450.054 156.421 449.845C156.421 449.636 156.376 449.43 156.288 449.24C156.179 449.057 156.014 448.914 155.816 448.829C155.619 448.745 155.4 448.724 155.19 448.77C154.575 448.937 154.017 449.261 153.573 449.71C152.917 450.277 152.37 450.954 151.956 451.71C151.781 451.976 151.666 452.276 151.62 452.59C152.223 451.619 152.967 450.74 153.827 449.98C154.234 449.607 154.725 449.336 155.261 449.19C155.376 449.164 155.496 449.175 155.604 449.222C155.713 449.269 155.802 449.349 155.861 449.45C155.907 449.578 155.927 449.714 155.918 449.85C155.909 449.986 155.873 450.119 155.81 450.24C155.482 450.88 154.974 451.414 154.347 451.779C153.72 452.144 152.999 452.325 152.271 452.3C151.553 452.248 150.874 451.959 150.344 451.479C149.815 451 149.465 450.359 149.352 449.66C149.317 449.375 149.389 449.086 149.556 448.85C149.629 448.759 149.729 448.693 149.843 448.663C149.956 448.632 150.077 448.638 150.186 448.68C150.678 448.917 151.083 449.298 151.346 449.77C151.941 450.767 152.351 451.861 152.556 453Z" fill="#263238"/>
<path d="M204.469 440.66L203.157 459.27C203.157 459.27 221.959 466.83 222.051 470.27L185.269 469.07L186.103 439.99L204.469 440.66Z" fill="#EFBD5D"/>
<path d="M191.839 457.33C191.473 457.42 191.155 457.641 190.946 457.95C190.737 458.259 190.653 458.633 190.71 459C190.793 459.355 191.011 459.666 191.319 459.868C191.627 460.071 192.002 460.15 192.367 460.09C192.747 459.989 193.074 459.753 193.286 459.427C193.499 459.102 193.581 458.711 193.517 458.33C193.393 457.97 193.132 457.67 192.789 457.495C192.446 457.32 192.047 457.282 191.676 457.39" fill="#E0E0E0"/>
<path d="M185.269 469.09L185.473 466.16L220.668 468.41C220.668 468.41 222.275 469.17 222.051 470.29L185.269 469.09Z" fill="#E0E0E0"/>
<path d="M203.767 459.11C203.767 459.28 202.852 459.33 201.947 459.87C201.042 460.41 200.553 461.14 200.391 461.06C200.228 460.98 200.523 459.98 201.631 459.34C202.74 458.7 203.808 459 203.767 459.11Z" fill="#263238"/>
<path d="M207.57 460.8C207.57 460.97 206.818 461.25 206.177 461.98C205.536 462.71 205.343 463.49 205.16 463.47C204.977 463.45 204.906 462.47 205.709 461.57C206.513 460.67 207.57 460.63 207.57 460.8Z" fill="#263238"/>
<path d="M209.604 465.41C209.441 465.41 209.217 464.56 209.716 463.6C210.214 462.64 211.058 462.29 211.129 462.44C211.2 462.59 210.672 463.09 210.275 463.88C209.878 464.67 209.787 465.4 209.604 465.41Z" fill="#263238"/>
<path d="M203.584 454.83C203.503 454.99 202.689 454.72 201.672 454.76C200.655 454.8 199.852 455.08 199.76 454.92C199.669 454.76 200.452 454.16 201.652 454.14C202.852 454.12 203.675 454.7 203.584 454.83Z" fill="#263238"/>
<path d="M203.777 451.07C203.156 451.224 202.503 451.2 201.896 451C201.234 450.867 200.591 450.652 199.984 450.36C199.632 450.187 199.292 449.99 198.967 449.77C198.763 449.655 198.581 449.506 198.428 449.33C198.314 449.202 198.246 449.039 198.237 448.869C198.228 448.698 198.277 448.53 198.377 448.39C198.473 448.271 198.595 448.175 198.734 448.109C198.874 448.043 199.026 448.009 199.181 448.01C199.412 448.016 199.641 448.053 199.862 448.12C200.253 448.231 200.634 448.375 201.001 448.55C201.612 448.844 202.171 449.233 202.658 449.7C203.482 450.51 203.757 451.17 203.675 451.21C203.594 451.25 203.187 450.7 202.343 450.03C201.856 449.627 201.316 449.29 200.737 449.03C200.408 448.887 200.068 448.77 199.72 448.68C199.333 448.56 198.998 448.55 198.896 448.68C198.794 448.81 198.845 448.77 198.896 448.88C199.013 449.006 199.147 449.117 199.293 449.21C199.601 449.416 199.92 449.606 200.248 449.78C200.809 450.08 201.398 450.324 202.008 450.51C202.609 450.66 203.2 450.847 203.777 451.07Z" fill="#263238"/>
<path d="M203.533 451.32C203.208 450.788 203.059 450.169 203.106 449.55C203.103 448.477 203.387 447.421 203.93 446.49C204.037 446.254 204.205 446.05 204.418 445.898C204.63 445.745 204.879 445.649 205.14 445.62C205.303 445.629 205.461 445.684 205.594 445.778C205.727 445.872 205.831 446.001 205.892 446.15C205.98 446.364 206.035 446.59 206.055 446.82C206.122 447.224 206.122 447.636 206.055 448.04C205.935 448.713 205.645 449.346 205.211 449.88C204.458 450.8 203.706 450.99 203.686 450.88C203.665 450.77 204.265 450.47 204.855 449.59C205.187 449.081 205.405 448.508 205.496 447.91C205.541 447.562 205.541 447.209 205.496 446.86C205.445 446.47 205.313 446.16 205.16 446.19C205.008 446.22 204.662 446.46 204.499 446.77C204.304 447.087 204.14 447.422 204.011 447.77C203.784 448.347 203.644 448.953 203.594 449.57C203.462 450.63 203.635 451.3 203.533 451.32Z" fill="#263238"/>
<path d="M128.852 257.02L134.282 457.06L163.304 456.21L170.219 250.2L128.852 257.02Z" fill="#263238"/>
<path d="M189.164 249.86C189.164 249.86 210.702 334.66 211.363 349.12C212.024 363.58 206.757 454 206.757 454H178.344L180.724 351L159.186 263.94L164.403 250.31L189.164 249.86Z" fill="#263238"/>
<path d="M171.633 260.27C171.644 260.363 171.644 260.457 171.633 260.55V261.34C171.633 262.08 171.572 263.09 171.521 264.39C171.399 267.07 171.216 270.89 171.002 275.59C170.504 285.08 169.823 298.13 169.07 312.59C168.318 327.05 167.525 340.04 167.036 349.53C166.752 354.23 166.508 358.04 166.345 360.73C166.253 362.02 166.182 363.04 166.131 363.73C166.131 364.05 166.081 364.32 166.06 364.52C166.071 364.61 166.071 364.7 166.06 364.79C166.049 364.7 166.049 364.61 166.06 364.52C166.06 364.31 166.06 364.05 166.06 363.73C166.06 362.99 166.131 361.97 166.182 360.68C166.304 358 166.487 354.18 166.701 349.48C167.199 339.99 167.88 326.94 168.623 312.48C169.365 298.02 170.168 285.03 170.707 275.54C170.992 270.84 171.226 267.03 171.399 264.35C171.49 263.06 171.562 262.04 171.612 261.3C171.612 260.98 171.663 260.72 171.684 260.51C171.653 260.433 171.636 260.352 171.633 260.27Z" fill="#455A64"/>
<path d="M168.44 141.12C168.44 141.12 178.985 192.56 179.138 207.05C179.29 221.54 184.466 249.86 184.466 249.86H138.848L137.831 171.49L134.577 148.12L141.431 138.5L168.44 141.12Z" fill="#F5F5F5"/>
<path d="M168.999 142.63C168.999 142.63 179.89 145.78 182.768 149.74C185.036 152.87 188.107 212.03 188.107 212.03L192.744 264.15L188.178 263.73L181.731 244.22L168.999 142.63Z" fill="#EFBD5D"/>
<path d="M182.768 149.74L213.519 177.49L251.358 165.43L258.903 181.06L218.522 199.06C212.756 201.48 209.136 200.15 205.13 196.99L183.947 180.31L182.768 149.74Z" fill="#EFBD5D"/>
<path d="M244.321 170.41C244.422 170.603 244.443 170.827 244.378 171.034C244.314 171.242 244.169 171.416 243.975 171.52C243.879 171.571 243.774 171.602 243.666 171.612C243.557 171.622 243.448 171.611 243.344 171.58C243.24 171.548 243.143 171.496 243.06 171.428C242.976 171.359 242.907 171.275 242.857 171.18C242.804 171.087 242.77 170.984 242.758 170.877C242.746 170.771 242.756 170.663 242.788 170.56C242.819 170.458 242.871 170.362 242.94 170.28C243.01 170.197 243.096 170.129 243.192 170.08C243.387 169.98 243.614 169.958 243.825 170.02C244.036 170.081 244.214 170.221 244.321 170.41Z" fill="#263238"/>
<path d="M243.589 171.64C243.505 171.655 243.419 171.655 243.335 171.64C243.226 171.608 243.126 171.555 243.039 171.485C242.951 171.415 242.879 171.328 242.826 171.23C242.724 171.032 242.703 170.803 242.765 170.59C242.835 170.379 242.986 170.203 243.185 170.099C243.383 169.995 243.616 169.97 243.833 170.03C244.051 170.095 244.233 170.243 244.341 170.44C244.447 170.637 244.469 170.867 244.402 171.08C244.371 171.187 244.318 171.286 244.246 171.372C244.174 171.458 244.086 171.529 243.985 171.58C243.861 171.633 243.724 171.654 243.589 171.64ZM243.589 170.01C243.458 170.011 243.329 170.042 243.212 170.1C243.027 170.202 242.888 170.37 242.826 170.57C242.765 170.77 242.787 170.986 242.887 171.17C242.988 171.354 243.16 171.491 243.364 171.551C243.568 171.611 243.788 171.589 243.975 171.49C244.068 171.443 244.15 171.378 244.216 171.299C244.283 171.22 244.332 171.128 244.362 171.03C244.423 170.827 244.401 170.608 244.301 170.42C244.232 170.293 244.13 170.187 244.004 170.112C243.879 170.038 243.735 170 243.589 170V170.01Z" fill="#263238"/>
<path d="M247.494 169.67C247.595 169.863 247.616 170.087 247.551 170.294C247.486 170.502 247.342 170.676 247.148 170.78C247.052 170.831 246.947 170.862 246.838 170.872C246.73 170.882 246.621 170.871 246.516 170.84C246.412 170.808 246.316 170.756 246.232 170.688C246.149 170.619 246.08 170.535 246.029 170.44C245.976 170.347 245.943 170.244 245.931 170.137C245.919 170.031 245.929 169.923 245.96 169.82C245.992 169.718 246.044 169.622 246.113 169.54C246.183 169.457 246.268 169.389 246.365 169.34C246.461 169.288 246.566 169.255 246.675 169.243C246.784 169.231 246.895 169.241 247 169.272C247.105 169.302 247.203 169.353 247.288 169.422C247.372 169.49 247.442 169.575 247.494 169.67Z" fill="#263238"/>
<path d="M246.761 170.9C246.677 170.915 246.591 170.915 246.507 170.9C246.399 170.868 246.299 170.815 246.211 170.745C246.124 170.675 246.052 170.588 245.999 170.49C245.894 170.292 245.873 170.062 245.939 169.848C246.006 169.635 246.155 169.456 246.355 169.35C246.556 169.247 246.79 169.226 247.007 169.292C247.224 169.357 247.406 169.504 247.514 169.7C247.62 169.897 247.642 170.127 247.575 170.34C247.508 170.554 247.359 170.734 247.158 170.84C247.032 170.889 246.897 170.909 246.761 170.9ZM246.761 169.26C246.63 169.265 246.501 169.299 246.385 169.36C246.198 169.46 246.058 169.628 245.997 169.829C245.936 170.029 245.959 170.246 246.06 170.43C246.108 170.523 246.176 170.604 246.258 170.669C246.34 170.735 246.436 170.783 246.538 170.81C246.641 170.849 246.751 170.866 246.862 170.861C246.972 170.856 247.08 170.828 247.179 170.78C247.279 170.732 247.366 170.664 247.438 170.581C247.509 170.498 247.562 170.402 247.594 170.297C247.625 170.193 247.635 170.084 247.621 169.976C247.608 169.868 247.572 169.764 247.516 169.67C247.46 169.577 247.384 169.496 247.295 169.432C247.205 169.368 247.103 169.323 246.995 169.3C246.916 169.275 246.834 169.262 246.751 169.26H246.761Z" fill="#263238"/>
<path d="M250.504 169.07C250.557 169.164 250.591 169.268 250.603 169.375C250.615 169.482 250.605 169.591 250.573 169.694C250.542 169.798 250.49 169.894 250.421 169.977C250.351 170.061 250.265 170.13 250.168 170.18C249.972 170.28 249.744 170.3 249.533 170.236C249.322 170.173 249.145 170.03 249.039 169.84C248.988 169.745 248.956 169.642 248.946 169.535C248.936 169.429 248.947 169.321 248.979 169.219C249.011 169.117 249.063 169.022 249.133 168.939C249.203 168.857 249.289 168.789 249.385 168.74C249.48 168.688 249.585 168.655 249.693 168.643C249.802 168.632 249.911 168.641 250.015 168.672C250.12 168.703 250.217 168.754 250.301 168.822C250.384 168.891 250.454 168.975 250.504 169.07Z" fill="#263238"/>
<path d="M249.782 170.3C249.698 170.315 249.612 170.315 249.527 170.3C249.321 170.235 249.148 170.096 249.042 169.91C248.937 169.725 248.907 169.507 248.958 169.3C248.99 169.195 249.043 169.097 249.115 169.012C249.186 168.928 249.275 168.859 249.375 168.81C249.474 168.757 249.582 168.724 249.694 168.713C249.806 168.702 249.919 168.712 250.026 168.744C250.134 168.775 250.234 168.827 250.321 168.897C250.409 168.967 250.481 169.053 250.534 169.15C250.639 169.348 250.66 169.579 250.594 169.792C250.527 170.005 250.378 170.184 250.178 170.29C250.048 170.322 249.913 170.325 249.782 170.3ZM249.782 168.67C249.651 168.671 249.522 168.702 249.405 168.76C249.218 168.86 249.079 169.028 249.018 169.229C248.957 169.43 248.979 169.646 249.08 169.83C249.127 169.922 249.193 170.002 249.274 170.068C249.354 170.133 249.448 170.182 249.548 170.21C249.755 170.271 249.977 170.249 250.168 170.15C250.356 170.051 250.495 169.882 250.556 169.681C250.617 169.481 250.595 169.264 250.494 169.08C250.423 168.953 250.318 168.848 250.191 168.776C250.064 168.703 249.919 168.667 249.772 168.67H249.782Z" fill="#263238"/>
<path d="M251.734 166.21L254.663 165.16L261.385 179.08L258.527 180.28L251.734 166.21Z" fill="#E0E0E0"/>
<path d="M183.754 160.71C183.857 161.221 183.915 161.739 183.927 162.26C184.039 163.36 184.192 164.78 184.375 166.5C184.792 170.17 185.392 175.06 185.981 180.5C186.571 185.94 187.09 190.91 187.313 194.5C187.435 196.3 187.486 197.76 187.496 198.77C187.534 199.29 187.517 199.813 187.446 200.33C187.35 199.818 187.299 199.3 187.293 198.78C187.222 197.78 187.11 196.32 186.937 194.53C186.612 190.95 186.073 186 185.453 180.53C184.832 175.06 184.303 170.13 183.998 166.53C183.846 164.73 183.764 163.27 183.724 162.26C183.682 161.744 183.692 161.224 183.754 160.71Z" fill="#263238"/>
<path d="M190.476 167.65C190 170.176 189.355 172.668 188.544 175.11C187.897 177.596 187.085 180.038 186.113 182.42C186.583 179.894 187.225 177.401 188.035 174.96C188.681 172.472 189.496 170.03 190.476 167.65Z" fill="#263238"/>
<path d="M213.194 186.86C212.863 186.479 212.63 186.027 212.512 185.54C211.755 183.235 211.915 180.734 212.96 178.54C213.143 178.073 213.432 177.652 213.804 177.31C213.189 178.831 212.778 180.425 212.583 182.05C212.573 183.673 212.778 185.29 213.194 186.86Z" fill="#263238"/>
<path d="M209.675 219.01L213.611 219.31L212.055 235.45L208.251 235.03L209.675 219.01Z" fill="#E0E0E0"/>
<path d="M141.431 139.62L120.208 152.93C117.793 154.614 115.994 157.019 115.078 159.787C114.162 162.556 114.178 165.541 115.124 168.3L131.394 218.59L125.527 264.29L172.04 262.35L170.901 242.35L166.955 206.51C166.225 199.864 164.544 193.354 161.962 187.17L141.431 139.62Z" fill="#EFBD5D"/>
<path d="M119.262 171.05L140.485 214.73C141.331 216.471 142.564 218.003 144.091 219.215C145.618 220.426 147.402 221.285 149.312 221.73L208.211 235.45L209.716 218.59L164.759 202L142.143 159.32C141.327 157.783 140.2 156.426 138.831 155.333C137.462 154.24 135.879 153.435 134.182 152.967C132.484 152.498 130.706 152.377 128.959 152.609C127.212 152.842 125.531 153.424 124.021 154.32C121.214 155.991 119.159 158.651 118.274 161.759C117.39 164.867 117.744 168.189 119.262 171.05Z" fill="#EFBD5D"/>
<path d="M209.716 218.59C209.632 218.583 209.549 218.563 209.472 218.53L208.78 218.3L206.116 217.36L196.252 213.79L163.009 201.57H162.918V201.47L159.003 193.85C155.322 186.79 151.651 180.14 148.214 174.14C146.495 171.14 144.837 168.31 143.271 165.67L140.994 161.85C140.627 161.23 140.261 160.64 139.875 160.09C139.511 159.538 139.11 159.01 138.675 158.51C137.159 156.734 135.216 155.359 133.021 154.51C131.367 153.848 129.59 153.534 127.804 153.59C126.272 153.611 124.77 154.006 123.432 154.74C123.506 154.674 123.588 154.616 123.676 154.57C123.921 154.401 124.184 154.257 124.459 154.14C125.514 153.69 126.645 153.435 127.794 153.39C129.611 153.298 131.427 153.584 133.123 154.23C135.384 155.084 137.392 156.484 138.96 158.3C139.409 158.805 139.824 159.34 140.2 159.9C140.607 160.47 140.983 161.06 141.339 161.68L143.648 165.48C145.234 168.147 146.898 170.967 148.641 173.94C152.098 179.94 155.759 186.57 159.481 193.64C160.833 196.25 162.155 198.82 163.386 201.28L163.243 201.15L196.425 213.53L206.228 217.24L208.862 218.24L209.543 218.51L209.716 218.59Z" fill="#263238"/>
<path d="M199.709 229.1C199.709 229.318 199.622 229.526 199.465 229.68C199.309 229.834 199.097 229.92 198.876 229.92C198.654 229.92 198.442 229.834 198.286 229.68C198.13 229.526 198.042 229.318 198.042 229.1C198.042 228.883 198.13 228.674 198.286 228.52C198.442 228.366 198.654 228.28 198.876 228.28C199.097 228.28 199.309 228.366 199.465 228.52C199.622 228.674 199.709 228.883 199.709 229.1Z" fill="#263238"/>
<path d="M198.845 229.94C198.676 229.94 198.511 229.891 198.371 229.798C198.23 229.706 198.121 229.575 198.056 229.421C197.991 229.268 197.974 229.099 198.007 228.936C198.04 228.773 198.122 228.624 198.241 228.506C198.361 228.389 198.513 228.309 198.678 228.276C198.844 228.244 199.016 228.26 199.172 228.324C199.328 228.388 199.461 228.495 199.555 228.633C199.649 228.771 199.699 228.934 199.699 229.1C199.699 229.323 199.609 229.536 199.449 229.694C199.289 229.852 199.072 229.94 198.845 229.94ZM198.845 228.31C198.686 228.31 198.531 228.356 198.399 228.443C198.267 228.53 198.164 228.653 198.103 228.798C198.042 228.942 198.026 229.101 198.057 229.254C198.088 229.407 198.165 229.548 198.277 229.659C198.389 229.769 198.533 229.844 198.688 229.875C198.844 229.905 199.006 229.89 199.153 229.83C199.299 229.77 199.425 229.669 199.513 229.539C199.601 229.409 199.648 229.256 199.648 229.1C199.648 228.89 199.564 228.69 199.413 228.541C199.262 228.393 199.058 228.31 198.845 228.31Z" fill="#263238"/>
<path d="M202.913 229.92C202.913 230.082 202.864 230.241 202.772 230.376C202.681 230.511 202.55 230.616 202.398 230.678C202.246 230.74 202.078 230.756 201.916 230.724C201.754 230.693 201.606 230.615 201.489 230.5C201.373 230.385 201.293 230.239 201.261 230.08C201.229 229.921 201.245 229.756 201.308 229.606C201.372 229.456 201.478 229.328 201.616 229.238C201.753 229.148 201.914 229.1 202.079 229.1C202.3 229.1 202.512 229.186 202.668 229.34C202.825 229.494 202.913 229.703 202.913 229.92Z" fill="#263238"/>
<path d="M202.028 230.76C201.859 230.76 201.694 230.711 201.553 230.619C201.413 230.526 201.303 230.395 201.239 230.242C201.174 230.088 201.157 229.919 201.19 229.756C201.223 229.593 201.305 229.444 201.424 229.326C201.543 229.209 201.696 229.129 201.861 229.096C202.027 229.064 202.199 229.08 202.355 229.144C202.511 229.208 202.644 229.315 202.738 229.453C202.832 229.592 202.882 229.754 202.882 229.92C202.88 230.142 202.789 230.354 202.629 230.511C202.469 230.668 202.254 230.757 202.028 230.76ZM202.028 229.13C201.869 229.13 201.714 229.176 201.582 229.263C201.45 229.35 201.347 229.473 201.286 229.618C201.225 229.762 201.209 229.921 201.24 230.074C201.271 230.227 201.348 230.368 201.46 230.479C201.572 230.589 201.715 230.664 201.871 230.695C202.027 230.725 202.189 230.71 202.335 230.65C202.482 230.59 202.608 230.489 202.696 230.359C202.784 230.229 202.831 230.076 202.831 229.92C202.831 229.711 202.747 229.51 202.596 229.361C202.445 229.213 202.241 229.13 202.028 229.13Z" fill="#263238"/>
<path d="M204.977 231.61C205.438 231.61 205.811 231.243 205.811 230.79C205.811 230.337 205.438 229.97 204.977 229.97C204.516 229.97 204.143 230.337 204.143 230.79C204.143 231.243 204.516 231.61 204.977 231.61Z" fill="#263238"/>
<path d="M204.947 231.63C204.778 231.63 204.612 231.581 204.472 231.488C204.331 231.396 204.222 231.265 204.157 231.111C204.093 230.958 204.076 230.789 204.109 230.626C204.142 230.463 204.223 230.313 204.343 230.196C204.462 230.079 204.614 229.999 204.78 229.966C204.946 229.934 205.117 229.95 205.273 230.014C205.429 230.077 205.563 230.185 205.657 230.323C205.751 230.461 205.801 230.624 205.801 230.79C205.798 231.012 205.707 231.224 205.548 231.381C205.388 231.538 205.172 231.627 204.947 231.63ZM204.947 230C204.788 230 204.632 230.046 204.5 230.133C204.368 230.22 204.265 230.343 204.204 230.488C204.144 230.632 204.128 230.791 204.159 230.944C204.19 231.097 204.266 231.238 204.378 231.349C204.491 231.459 204.634 231.534 204.79 231.565C204.946 231.595 205.107 231.58 205.254 231.52C205.401 231.46 205.526 231.359 205.614 231.229C205.703 231.099 205.75 230.946 205.75 230.79C205.75 230.58 205.665 230.379 205.515 230.231C205.364 230.083 205.16 230 204.947 230Z" fill="#263238"/>
<path d="M208.211 235.45C208.116 235.465 208.02 235.465 207.926 235.45L207.102 235.27L203.93 234.52L192.276 231.7C182.442 229.33 168.887 225.97 153.817 222.54C151.935 222.1 150.075 221.75 148.234 221.26C146.386 220.825 144.664 219.98 143.2 218.79C141.916 217.521 140.882 216.029 140.15 214.39L137.933 209.83L130.275 194L125.191 183.32C124.621 182.08 124.174 181.11 123.838 180.41L123.493 179.64C123.45 179.557 123.416 179.47 123.391 179.38C123.391 179.38 123.452 179.46 123.544 179.62C123.635 179.78 123.767 180.06 123.93 180.36L125.384 183.24C126.635 185.78 128.435 189.39 130.631 193.84C132.828 198.29 135.441 203.68 138.35 209.61C139.072 211.09 139.824 212.61 140.577 214.16C141.302 215.738 142.311 217.175 143.556 218.4C144.962 219.537 146.614 220.342 148.386 220.75C150.186 221.23 152.068 221.58 153.949 222.02C169.009 225.46 182.565 228.87 192.378 231.33C197.249 232.59 201.204 233.6 203.991 234.33L207.133 235.18L207.946 235.41L208.211 235.45Z" fill="#263238"/>
<path d="M160.64 232.72C160.64 232.72 160.416 232.95 159.938 233.3C159.461 233.65 158.779 234.13 157.905 234.71C155.632 236.252 153.173 237.509 150.583 238.45C147.961 239.383 145.145 239.661 142.387 239.26C141.556 239.121 140.744 238.89 139.967 238.57C139.674 238.478 139.401 238.332 139.163 238.14C140.237 238.458 141.331 238.708 142.438 238.89C145.132 239.182 147.859 238.863 150.41 237.96C152.958 237.022 155.401 235.829 157.701 234.4C158.64 233.774 159.622 233.213 160.64 232.72Z" fill="#263238"/>
<path d="M163.254 238.52C163.318 238.636 163.366 238.761 163.396 238.89C163.511 239.257 163.603 239.631 163.67 240.01C163.916 241.416 163.916 242.854 163.67 244.26C163.274 246.349 162.367 248.313 161.027 249.98C159.336 252.011 157.054 253.483 154.486 254.198C151.919 254.913 149.19 254.837 146.668 253.98C144.64 253.239 142.827 252.02 141.39 250.43C140.428 249.363 139.657 248.142 139.112 246.82C138.973 246.46 138.855 246.093 138.756 245.72C138.695 245.47 138.665 245.33 138.685 245.33C139.36 247.116 140.371 248.761 141.665 250.18C143.091 251.682 144.863 252.827 146.831 253.52C149.253 254.328 151.867 254.398 154.331 253.722C156.794 253.046 158.993 251.655 160.64 249.73C161.957 248.134 162.867 246.252 163.294 244.24C163.648 242.348 163.635 240.407 163.254 238.52Z" fill="#263238"/>
<path d="M143.719 99.8101L143.851 137.07C143.86 138.569 144.178 140.051 144.786 141.426C145.395 142.801 146.28 144.04 147.39 145.069C148.499 146.097 149.81 146.893 151.241 147.409C152.673 147.925 154.196 148.15 155.718 148.07C158.6 147.917 161.312 146.684 163.298 144.625C165.284 142.566 166.392 139.838 166.396 137C166.396 134.19 166.396 131.85 166.396 131.56C166.396 131.56 176.036 130.64 176.697 121.25C177.022 116.71 176.9 107.31 176.697 98.8001C176.597 94.393 174.811 90.185 171.695 87.0156C168.579 83.8461 164.363 81.9481 159.888 81.7001H158.962C149.017 81.6601 143.424 90.0001 143.719 99.8101Z" fill="#B78876"/>
<path d="M166.416 131.41C162 131.242 157.735 129.787 154.162 127.23C154.162 127.23 156.715 134.16 166.294 133.84L166.416 131.41Z" fill="#AA6550"/>
<path d="M174.338 104.31C174.319 104.661 174.162 104.991 173.9 105.23C173.638 105.469 173.292 105.598 172.934 105.59C172.76 105.594 172.587 105.563 172.425 105.5C172.262 105.437 172.115 105.343 171.991 105.222C171.866 105.102 171.768 104.958 171.701 104.8C171.635 104.641 171.601 104.471 171.602 104.3C171.621 103.951 171.776 103.622 172.036 103.383C172.296 103.145 172.64 103.014 172.995 103.02C173.17 103.016 173.344 103.046 173.507 103.109C173.67 103.172 173.818 103.267 173.943 103.387C174.068 103.507 174.167 103.651 174.235 103.809C174.303 103.968 174.338 104.138 174.338 104.31Z" fill="#263238"/>
<path d="M174.602 102.72C174.429 102.89 173.433 102.08 171.968 102C170.504 101.92 169.375 102.58 169.233 102.4C169.091 102.22 169.345 102.01 169.833 101.7C170.495 101.303 171.265 101.114 172.04 101.16C172.804 101.199 173.535 101.48 174.124 101.96C174.561 102.32 174.694 102.65 174.602 102.72Z" fill="#263238"/>
<path d="M160.06 104.2C160.045 104.55 159.89 104.88 159.629 105.12C159.369 105.359 159.024 105.488 158.667 105.48C158.493 105.484 158.32 105.454 158.157 105.39C157.995 105.327 157.848 105.233 157.723 105.112C157.599 104.992 157.501 104.848 157.434 104.69C157.367 104.532 157.334 104.362 157.335 104.19C157.351 103.84 157.506 103.51 157.766 103.271C158.027 103.031 158.372 102.902 158.728 102.91C158.903 102.906 159.076 102.936 159.238 103C159.4 103.063 159.548 103.157 159.672 103.278C159.796 103.398 159.895 103.542 159.962 103.7C160.028 103.859 160.062 104.029 160.06 104.2Z" fill="#263238"/>
<path d="M159.989 102.4C159.806 102.56 158.82 101.75 157.345 101.67C155.871 101.59 154.762 102.26 154.61 102.07C154.457 101.88 154.732 101.68 155.22 101.37C155.878 100.971 156.646 100.786 157.417 100.84C158.182 100.879 158.916 101.155 159.511 101.63C159.938 102 160.071 102.32 159.989 102.4Z" fill="#263238"/>
<path d="M164.637 113.75C165.424 113.555 166.234 113.458 167.047 113.46C167.423 113.46 167.789 113.39 167.86 113.14C167.913 112.764 167.849 112.38 167.677 112.04C167.372 111.12 167.057 110.17 166.731 109.16C165.42 105.08 164.494 101.73 164.698 101.68C164.901 101.63 166.06 104.9 167.372 108.98C167.677 109.98 167.982 110.98 168.267 111.87C168.48 112.328 168.52 112.846 168.379 113.33C168.316 113.456 168.224 113.567 168.112 113.654C167.999 113.74 167.868 113.801 167.728 113.83C167.515 113.858 167.3 113.858 167.087 113.83C166.27 113.907 165.447 113.88 164.637 113.75Z" fill="#263238"/>
<path d="M160.579 99.3999C160.406 99.7899 158.952 99.5199 157.223 99.6299C155.495 99.7399 154.061 100.12 153.857 99.7499C153.766 99.5799 154.03 99.2199 154.61 98.8699C155.384 98.4367 156.252 98.1931 157.142 98.1599C158.03 98.106 158.919 98.2602 159.735 98.6099C160.355 98.8899 160.65 99.2199 160.579 99.3999Z" fill="#263238"/>
<path d="M174.439 99.28C174.165 99.59 173.168 99.19 171.958 99.11C170.748 99.03 169.701 99.2 169.477 98.85C169.385 98.68 169.568 98.36 170.036 98.07C170.663 97.7343 171.377 97.5885 172.088 97.6508C172.799 97.713 173.476 97.9807 174.033 98.42C174.439 98.78 174.602 99.12 174.439 99.28Z" fill="#263238"/>
<path d="M144.095 106.81C143.932 106.73 137.638 104.53 137.475 110.97C137.312 117.41 143.912 116.24 143.932 116.06C143.953 115.88 144.095 106.81 144.095 106.81Z" fill="#B78876"/>
<path d="M141.99 113.57C141.99 113.57 141.878 113.64 141.685 113.73C141.412 113.841 141.104 113.841 140.831 113.73C140.415 113.456 140.081 113.078 139.863 112.635C139.645 112.193 139.551 111.701 139.59 111.21C139.587 110.657 139.708 110.111 139.946 109.61C140.015 109.411 140.131 109.231 140.285 109.085C140.439 108.938 140.626 108.831 140.831 108.77C140.963 108.738 141.102 108.754 141.223 108.815C141.345 108.875 141.44 108.976 141.492 109.1C141.573 109.28 141.492 109.41 141.563 109.42C141.634 109.43 141.705 109.31 141.665 109.05C141.627 108.89 141.538 108.746 141.41 108.64C141.324 108.571 141.225 108.52 141.119 108.489C141.012 108.458 140.901 108.448 140.79 108.46C140.516 108.508 140.26 108.626 140.046 108.801C139.832 108.977 139.668 109.204 139.57 109.46C139.278 110.009 139.128 110.62 139.133 111.24C139.085 111.813 139.211 112.387 139.495 112.889C139.779 113.391 140.209 113.798 140.729 114.06C140.899 114.109 141.078 114.121 141.253 114.097C141.428 114.073 141.596 114.013 141.746 113.92C141.98 113.72 142.021 113.58 141.99 113.57Z" fill="#AA6550"/>
<path d="M140.475 106.39C141.098 106.385 141.71 106.546 142.247 106.856C142.784 107.166 143.226 107.613 143.526 108.15C143.892 109.09 143.932 110.15 144.299 111.08C144.44 111.565 144.742 111.991 145.156 112.289C145.57 112.588 146.073 112.743 146.587 112.73C146.931 112.644 147.247 112.47 147.502 112.226C147.758 111.982 147.943 111.677 148.041 111.34C148.217 110.664 148.262 109.962 148.173 109.27C147.97 106.27 147.492 103.27 147.553 100.2C147.496 97.1488 148.36 94.1495 150.034 91.58C150.881 90.3077 152.06 89.2833 153.449 88.6146C154.838 87.9459 156.384 87.6575 157.925 87.78C159.959 88.06 161.749 89.2 163.742 89.59C164.934 89.8131 166.162 89.767 167.333 89.4552C168.505 89.1434 169.589 88.574 170.504 87.79C170.606 87.7042 170.714 87.6272 170.829 87.56C171.162 87.3557 171.416 87.0479 171.551 86.6856C171.685 86.3232 171.693 85.927 171.572 85.56C171.505 85.3247 171.387 85.1064 171.226 84.92C167.433 81.06 160.274 79.64 154.956 80.65C152.23 81.1512 149.648 82.2291 147.388 83.809C145.128 85.3889 143.245 87.4331 141.868 89.8C139.316 94.55 139.59 101.36 140.566 106.36" fill="#263238"/>
<path d="M161.22 114.88C161.464 114.88 161.464 116.43 162.826 117.54C164.189 118.65 165.877 118.48 165.877 118.7C165.877 118.92 165.501 119.01 164.779 119.02C163.847 119.039 162.938 118.731 162.216 118.15C161.525 117.592 161.08 116.793 160.976 115.92C160.884 115.26 161.067 114.87 161.22 114.88Z" fill="#263238"/>
<path d="M252.548 167.8C252.548 167.8 259.717 161.61 261.069 161.15C262.422 160.69 273.221 160.5 273.943 161.03C274.665 161.56 285.597 167.45 283.787 168.36C281.977 169.27 274.401 165 274.401 165L273.13 165.17C273.13 165.17 279.74 168.64 280.909 169.97C282.079 171.3 280.96 172.68 279.729 172.11C278.499 171.54 272.825 168.33 272.377 168.45C271.93 168.57 278.418 172.3 279.018 173C279.821 173.92 279.302 175.72 278.052 175.2C277.319 174.9 271.34 171 271.34 171C273.033 172.362 274.649 173.814 276.18 175.35C276.709 176.35 275.692 177.26 274.645 176.63C273.933 176.2 270.852 173.22 269.896 172.63C269.896 172.63 268.879 172.55 267.283 174.19C265.686 175.83 259.574 178.06 259.574 178.06L252.548 167.8Z" fill="#B78876"/>
<path d="M283.756 168.38C282.982 168.489 282.193 168.441 281.438 168.24C280.607 168.076 279.793 167.835 279.007 167.52C278.163 167.12 277.238 166.66 276.262 166.17L274.228 165.17H274.37C272.518 165.265 270.662 165.215 268.818 165.02C270.651 164.733 272.505 164.603 274.36 164.63H274.421H274.492L276.526 165.63L279.18 167C279.928 167.324 280.7 167.592 281.489 167.8C282.882 168.2 283.767 168.29 283.756 168.38Z" fill="#AA6550"/>
<path d="M255.212 169.59C255.507 170.001 255.926 170.311 256.41 170.474C256.893 170.637 257.417 170.646 257.907 170.5C258.924 170.29 259.808 169.76 260.785 169.5C263.723 168.67 266.988 170.21 269.876 169.24C270.282 169.1 270.73 168.81 270.689 168.4C270.649 167.99 270.201 167.82 269.825 167.7L260.185 164.7" fill="#B78876"/>
<path d="M260.185 164.66C260.553 164.681 260.916 164.755 261.262 164.88C261.944 165.06 262.92 165.34 264.13 165.69L268.36 166.95L269.581 167.32C269.967 167.47 270.526 167.5 270.893 168.09C270.964 168.241 270.987 168.409 270.96 168.573C270.933 168.737 270.856 168.889 270.74 169.01C270.55 169.212 270.312 169.367 270.049 169.46C269.575 169.622 269.083 169.729 268.584 169.78C266.766 169.808 264.948 169.711 263.144 169.49C262.381 169.45 261.617 169.52 260.876 169.7C260.195 169.88 259.564 170.18 258.964 170.39C258.488 170.612 257.967 170.728 257.439 170.728C256.911 170.728 256.39 170.612 255.914 170.39C255.263 170.02 255.161 169.56 255.181 169.57C255.42 169.826 255.702 170.039 256.015 170.2C256.474 170.364 256.963 170.431 257.45 170.397C257.938 170.362 258.412 170.227 258.842 170C259.473 169.711 260.117 169.454 260.774 169.23C261.561 169.012 262.378 168.918 263.195 168.95C264.974 169.137 266.764 169.22 268.554 169.2C269 169.147 269.439 169.05 269.865 168.91C270.262 168.77 270.537 168.49 270.415 168.31C270.293 168.13 269.865 167.94 269.398 167.82L268.177 167.43L263.988 166.05C262.798 165.65 261.832 165.32 261.171 165.05C260.825 164.965 260.494 164.834 260.185 164.66Z" fill="#AA6550"/>
<path d="M211.841 219.4L223.729 218.24C223.729 218.24 239.45 228.83 237.965 231.16C236.481 233.49 233.898 231.16 233.898 231.16C233.898 231.16 236.694 234.55 232.169 235.61C232.169 235.61 231.091 237.94 229.372 237.73H228.295C228.295 237.73 227.278 240.68 225.864 240.04C224.451 239.4 220.027 235.6 220.027 235.6L207.824 234.54L211.841 219.4Z" fill="#B78876"/>
<path d="M219.234 231.45C219.234 231.45 216.183 232.6 215.563 233.81C214.943 235.02 214.546 237.81 216.519 238.36C217.676 238.433 218.837 238.396 219.986 238.25L219.234 235.1C219.801 234.453 220.405 233.839 221.044 233.26C221.695 232.73 220.983 230.66 219.234 231.45Z" fill="#FFBE9D"/>
<path d="M222.661 233.05C222.661 233.05 219.61 234.2 218.99 235.4C218.81 235.753 218.714 236.142 218.708 236.537C218.701 236.932 218.785 237.323 218.953 237.682C219.121 238.041 219.368 238.358 219.677 238.611C219.987 238.863 220.349 239.044 220.739 239.14C221.787 239.222 222.841 239.188 223.881 239.04L223.556 238.43C222.946 237.25 222.681 236.29 223.759 235.5C223.82 235.5 224.43 234.9 224.471 234.86C224.624 234.611 224.689 234.319 224.654 234.03C224.62 233.741 224.488 233.471 224.281 233.264C224.073 233.056 223.801 232.922 223.508 232.884C223.215 232.845 222.917 232.903 222.661 233.05Z" fill="#FFBE9D"/>
<path d="M223.393 238.93C223.136 238.656 222.974 238.309 222.93 237.939C222.886 237.569 222.963 237.194 223.149 236.87C223.55 236.227 224.194 235.767 224.939 235.59C225.169 235.495 225.421 235.465 225.667 235.504C225.914 235.543 226.144 235.649 226.332 235.81C226.424 235.94 226.488 236.086 226.521 236.241C226.555 236.395 226.556 236.555 226.525 236.71C226.319 237.536 225.89 238.292 225.285 238.9C225 239.25 224.654 239.63 224.196 239.62C223.739 239.61 223.403 239.19 223.18 238.81" fill="#FFBE9D"/>
<path d="M159.145 144.67L161.82 143.68L164.128 147.75L162.837 152.1L160.111 152.76L157.396 149.39L159.145 144.67Z" fill="#EFBD5D"/>
<path d="M160.111 152.76C160.111 152.76 163.579 171.47 166.457 184.63C166.457 184.63 168.826 195.63 169.782 198.11C170.85 200.94 174.145 205.11 174.145 205.11L177.49 206.39L175.456 187.9L162.847 152.1L160.111 152.76Z" fill="#EFBD5D"/>
<g opacity="0.4">
<path opacity="0.4" d="M159.145 144.67L161.82 143.68L164.128 147.75L162.837 152.1L160.111 152.76L157.396 149.39L159.145 144.67Z" fill="black"/>
</g>
<g opacity="0.4">
<path opacity="0.4" d="M160.111 152.76C160.111 152.76 163.579 171.47 166.457 184.63C166.457 184.63 169.172 195.49 169.782 198.11C170.138 199.66 174.145 205.11 174.145 205.11L177.49 206.39L175.456 187.9L162.847 152.1L160.111 152.76Z" fill="black"/>
</g>
<path d="M143.099 133.3L159.145 144.67L155.678 154.05L141.075 139.27L143.099 133.3Z" fill="#F5F5F5"/>
<path d="M161.82 143.68L166.294 133.84L168.836 141.96L165.308 150.48L161.82 143.68Z" fill="#F5F5F5"/>
<path d="M159.186 144.67C159.155 144.917 159.094 145.158 159.003 145.39L158.352 147.39C157.783 149.06 156.949 151.39 155.942 154.17L155.81 154.55L155.525 154.25L151.793 150.19C148.885 147.02 146.271 144.13 144.41 142.02L142.214 139.5C141.927 139.195 141.674 138.859 141.461 138.5C141.791 138.749 142.095 139.03 142.366 139.34L144.685 141.74C146.627 143.74 149.281 146.64 152.179 149.81C153.491 151.25 154.742 152.63 155.901 153.89L155.484 153.97C156.501 151.23 157.417 148.9 158.067 147.25L158.85 145.34C158.929 145.102 159.042 144.876 159.186 144.67Z" fill="#263238"/>
<path d="M168.836 142C168.666 142.79 168.414 143.561 168.084 144.3C167.565 145.69 166.803 147.61 165.928 149.71L165.552 150.62L165.287 151.25L165.064 150.61C164.179 148.373 163.108 146.213 161.86 144.15C162.395 144.622 162.849 145.175 163.203 145.79C164.175 147.242 164.967 148.803 165.562 150.44H165.064C165.186 150.14 165.318 149.84 165.44 149.53C166.314 147.42 167.128 145.53 167.738 144.17C168.017 143.407 168.386 142.679 168.836 142Z" fill="#263238"/>
<path d="M372.735 438.07L378.918 462.21L389.412 479.92C389.592 480.222 389.706 480.557 389.748 480.904C389.79 481.251 389.759 481.603 389.657 481.937C389.555 482.272 389.384 482.583 389.155 482.85C388.925 483.117 388.643 483.335 388.324 483.49C387.959 483.678 387.552 483.776 387.14 483.776C386.727 483.776 386.321 483.678 385.955 483.49C381.237 480.99 363.949 471.7 363.583 469.91C363.176 467.84 355.336 444.91 355.336 444.91L372.735 438.07Z" fill="#EFBD5D"/>
<g opacity="0.6">
<path opacity="0.6" d="M388.365 483.49L363.187 468.26L363.471 469.26C363.716 470.14 364.271 470.906 365.037 471.42C367.071 472.79 372.847 476.42 385.914 483.42C386.292 483.617 386.712 483.72 387.14 483.72C387.567 483.72 387.988 483.617 388.365 483.42V483.49Z" fill="white"/>
</g>
<g opacity="0.6">
<path opacity="0.6" d="M366.014 459.16C366.376 459.294 366.676 459.554 366.854 459.892C367.032 460.23 367.077 460.621 366.98 460.99C366.856 461.351 366.596 461.651 366.253 461.828C365.91 462.004 365.511 462.045 365.139 461.94C364.754 461.799 364.437 461.522 364.248 461.164C364.06 460.805 364.015 460.39 364.122 460C364.289 459.633 364.596 459.346 364.977 459.2C365.357 459.054 365.781 459.061 366.156 459.22" fill="white"/>
</g>
<path d="M379.854 474.52C380.226 473.61 380.771 472.779 381.46 472.07C382.26 471.483 383.163 471.046 384.125 470.78C384.125 470.72 383.769 470.62 383.179 470.69C382.406 470.817 381.685 471.155 381.099 471.666C380.512 472.177 380.084 472.841 379.864 473.58C379.711 474.16 379.772 474.52 379.854 474.52Z" fill="#263238"/>
<path d="M382.477 477.26C382.63 477.34 383.189 476.34 384.348 475.64C385.097 475.283 385.864 474.966 386.646 474.69C386.206 474.562 385.741 474.54 385.289 474.625C384.838 474.711 384.414 474.901 384.053 475.18C382.742 476 382.335 477.23 382.477 477.26Z" fill="#263238"/>
<path d="M375.45 471.28C376.993 469.226 379.114 467.661 381.552 466.78C380.205 466.884 378.917 467.362 377.837 468.159C376.756 468.955 375.929 470.038 375.45 471.28Z" fill="#263238"/>
<path d="M372.939 464.1C373.05 464.22 374.24 463.3 375.989 462.77C377.738 462.24 379.233 462.26 379.243 462.1C378.12 461.745 376.906 461.795 375.816 462.24C374.666 462.512 373.649 463.17 372.939 464.1Z" fill="#263238"/>
<path d="M370.946 457.06C371.91 456.427 372.961 455.932 374.067 455.59C375.21 455.405 376.374 455.375 377.525 455.5C377.525 455.44 377.199 455.22 376.508 455.05C375.649 454.848 374.754 454.848 373.895 455.05C373.035 455.249 372.237 455.647 371.566 456.21C371.098 456.65 370.895 457 370.946 457.06Z" fill="#263238"/>
<path d="M373.64 454.26C373.64 453.942 373.567 453.627 373.427 453.34C373.11 452.53 372.633 451.789 372.023 451.16C371.615 450.665 371.055 450.315 370.427 450.16C370.215 450.126 369.997 450.159 369.805 450.254C369.614 450.35 369.457 450.502 369.359 450.69C369.181 451.059 369.152 451.481 369.278 451.87C369.558 452.662 370.11 453.334 370.84 453.768C371.569 454.203 372.43 454.373 373.274 454.25C374.105 454.109 374.876 453.728 375.487 453.157C376.099 452.586 376.525 451.849 376.711 451.04C376.755 450.836 376.754 450.625 376.708 450.422C376.663 450.219 376.574 450.027 376.447 449.86C376.301 449.705 376.11 449.6 375.9 449.559C375.69 449.517 375.472 449.542 375.278 449.63C374.711 449.923 374.234 450.357 373.895 450.89C373.377 451.59 372.991 452.376 372.756 453.21C372.642 453.507 372.594 453.824 372.613 454.14C372.993 453.068 373.53 452.057 374.21 451.14C374.525 450.69 374.948 450.323 375.44 450.07C375.547 450.021 375.667 450.008 375.782 450.031C375.898 450.054 376.002 450.114 376.081 450.2C376.154 450.315 376.202 450.444 376.223 450.578C376.244 450.712 376.237 450.849 376.203 450.98C376.019 451.679 375.633 452.311 375.091 452.799C374.55 453.287 373.876 453.61 373.152 453.73C372.435 453.83 371.704 453.686 371.081 453.323C370.458 452.959 369.98 452.397 369.725 451.73C369.627 451.462 369.627 451.168 369.725 450.9C369.778 450.795 369.864 450.709 369.97 450.655C370.076 450.601 370.197 450.582 370.315 450.6C370.843 450.732 371.318 451.018 371.678 451.42C372.5 452.243 373.164 453.205 373.64 454.26Z" fill="#263238"/>
<path d="M296.091 442.57L297.403 461.18C297.403 461.18 278.611 468.74 278.509 472.18L315.29 471L314.467 441.92L296.091 442.57Z" fill="#EFBD5D"/>
<path d="M308.721 459.24C309.081 459.334 309.392 459.556 309.594 459.863C309.797 460.169 309.877 460.539 309.82 460.9C309.739 461.257 309.522 461.57 309.214 461.775C308.905 461.979 308.529 462.06 308.162 462C307.783 461.899 307.455 461.663 307.243 461.337C307.031 461.012 306.949 460.621 307.013 460.24C307.139 459.879 307.401 459.579 307.746 459.404C308.091 459.229 308.491 459.192 308.864 459.3" fill="#E0E0E0"/>
<path d="M315.291 471L315.097 468.07L279.902 470.32C279.902 470.32 278.285 471.08 278.509 472.21L315.291 471Z" fill="#E0E0E0"/>
<path d="M296.803 461C296.803 461.17 297.718 461.23 298.613 461.76C299.508 462.29 300.017 463.03 300.179 462.96C300.342 462.89 300.037 461.87 298.939 461.23C297.84 460.59 296.763 460.86 296.803 461Z" fill="#263238"/>
<path d="M293 462.71C293 462.89 293.753 463.16 294.383 463.89C295.013 464.62 295.227 465.4 295.4 465.39C295.573 465.38 295.664 464.39 294.851 463.48C294.037 462.57 293 462.55 293 462.71Z" fill="#263238"/>
<path d="M290.956 467.33C291.129 467.33 291.342 466.47 290.854 465.52C290.366 464.57 289.502 464.21 289.431 464.36C289.359 464.51 289.898 465.01 290.295 465.79C290.692 466.57 290.783 467.31 290.956 467.33Z" fill="#263238"/>
<path d="M296.986 456.75C297.068 456.9 297.881 456.63 298.898 456.67C299.915 456.71 300.718 456.99 300.8 456.84C300.881 456.69 300.108 456.08 298.908 456.05C297.708 456.02 296.885 456.61 296.986 456.75Z" fill="#263238"/>
<path d="M296.793 453C297.402 453.134 298.037 453.109 298.634 452.93C299.292 452.79 299.93 452.571 300.535 452.28C300.889 452.109 301.229 451.912 301.552 451.69C301.76 451.576 301.946 451.427 302.101 451.25C302.214 451.121 302.281 450.959 302.29 450.788C302.299 450.618 302.251 450.45 302.152 450.31C302.056 450.191 301.934 450.095 301.795 450.029C301.656 449.963 301.503 449.929 301.349 449.93C301.113 449.935 300.88 449.975 300.657 450.05C300.268 450.153 299.89 450.294 299.529 450.47C298.917 450.764 298.358 451.153 297.871 451.62C297.037 452.43 296.773 453.1 296.854 453.13C296.935 453.16 297.332 452.62 298.176 451.95C298.669 451.55 299.213 451.214 299.793 450.95C300.121 450.805 300.461 450.688 300.81 450.6C301.196 450.49 301.522 450.47 301.633 450.6C301.745 450.73 301.633 450.69 301.633 450.8C301.515 450.929 301.378 451.04 301.227 451.13C300.92 451.341 300.601 451.535 300.271 451.71C299.71 452.001 299.125 452.245 298.522 452.44C297.931 452.58 297.353 452.767 296.793 453Z" fill="#263238"/>
<path d="M297.027 453.23C297.098 453.23 297.434 452.61 297.454 451.47C297.465 450.791 297.358 450.114 297.139 449.47C297.009 449.093 296.839 448.731 296.63 448.39C296.523 448.155 296.357 447.951 296.147 447.796C295.937 447.642 295.69 447.544 295.43 447.51C295.267 447.519 295.109 447.574 294.976 447.668C294.843 447.761 294.739 447.891 294.678 448.04C294.587 448.254 294.529 448.48 294.505 448.71C294.443 449.114 294.443 449.526 294.505 449.93C294.631 450.606 294.924 451.242 295.359 451.78C296.112 452.69 296.864 452.88 296.874 452.78C296.885 452.68 296.295 452.37 295.715 451.48C295.379 450.973 295.16 450.399 295.074 449.8C295.024 449.452 295.024 449.098 295.074 448.75C295.074 448.37 295.258 448.05 295.4 448.09C295.542 448.13 295.908 448.36 296.071 448.66C296.26 448.98 296.423 449.315 296.559 449.66C296.786 450.237 296.927 450.843 296.976 451.46C297.098 452.54 296.935 453.21 297.027 453.23Z" fill="#263238"/>
<path d="M286.055 240.14L291.973 456.7L320.995 455.84L318.758 269.98L355.733 461.01L381.938 454.28L348.106 240.56L286.055 240.14Z" fill="#263238"/>
<path d="M301.959 457C301.806 457 301.695 412.11 301.695 356.74C301.695 301.37 301.806 256.48 301.959 256.48C302.111 256.48 302.223 301.36 302.223 356.74C302.223 412.12 302.101 457 301.959 457Z" fill="#455A64"/>
<path d="M364.01 460.94C363.868 460.94 357.095 417.94 348.879 364.83C340.662 311.72 334.093 268.64 334.266 268.62C334.439 268.6 341.181 311.62 349.397 364.75C357.614 417.88 364.163 460.92 364.01 460.94Z" fill="#455A64"/>
<path d="M327.636 104.72C328.647 102.495 329.467 100.19 330.086 97.83C330.432 96.03 330.981 93.34 330.249 91.66C329.517 89.98 327.737 88.36 325.5 88.82C325.268 87.0529 324.581 85.3732 323.505 83.94C322.428 82.5068 320.997 81.3675 319.348 80.63C316.165 79.1156 312.709 78.2321 309.179 78.03C307.888 77.9015 306.584 78.0622 305.366 78.5C304.331 79.0163 303.516 79.8776 303.067 80.93C302 80.1756 300.769 79.677 299.471 79.4738C298.173 79.2707 296.845 79.3687 295.593 79.76C292.786 80.5 289.593 81.99 288.363 84.57C287.482 86.5008 287.405 88.6943 288.149 90.68C288.688 92.36 290.498 95 292.217 94.38" fill="#263238"/>
<path d="M313.491 151.43C311.807 151.396 310.148 151.03 308.612 150.353C307.076 149.676 305.694 148.702 304.548 147.489C303.402 146.277 302.515 144.85 301.941 143.293C301.367 141.737 301.117 140.083 301.206 138.43C301.379 134.98 301.542 132.19 301.542 132.19C301.542 132.19 291.963 130.97 291.607 121.59C291.251 112.21 292.359 90.65 292.359 90.65C297.726 88.233 303.653 87.2692 309.525 87.8582C315.398 88.4471 321.004 90.5674 325.765 94L327.198 95L326.314 139.31C326.282 140.934 325.925 142.536 325.263 144.024C324.601 145.513 323.648 146.858 322.457 147.984C321.266 149.109 319.861 149.993 318.323 150.584C316.784 151.176 315.142 151.463 313.491 151.43Z" fill="#FFBE9D"/>
<path d="M301.552 132.09C305.957 132.061 310.254 130.745 313.897 128.31C313.897 128.31 310.958 135.58 301.42 134.97L301.552 132.09Z" fill="#EB996E"/>
<path d="M326.273 104.75C326.436 104.68 332.781 102.68 332.73 109.1C332.679 115.52 326.151 114.15 326.141 113.96C326.131 113.77 326.273 104.75 326.273 104.75Z" fill="#FFBE9D"/>
<path d="M328.144 111.54C328.144 111.54 328.266 111.62 328.449 111.71C328.584 111.766 328.73 111.795 328.876 111.795C329.023 111.795 329.168 111.766 329.303 111.71C329.728 111.452 330.074 111.087 330.307 110.652C330.539 110.218 330.649 109.73 330.625 109.24C330.646 108.69 330.538 108.143 330.31 107.64C330.252 107.44 330.145 107.256 329.997 107.106C329.85 106.956 329.668 106.844 329.466 106.78C329.336 106.744 329.197 106.754 329.075 106.809C328.952 106.864 328.852 106.96 328.795 107.08C328.703 107.26 328.744 107.38 328.714 107.39C328.683 107.4 328.571 107.29 328.622 107.02C328.662 106.861 328.755 106.72 328.886 106.62C329.069 106.492 329.294 106.435 329.517 106.46C329.783 106.516 330.03 106.638 330.236 106.812C330.442 106.987 330.601 107.21 330.697 107.46C330.973 108.016 331.102 108.632 331.073 109.25C331.1 109.821 330.955 110.388 330.657 110.879C330.358 111.37 329.919 111.763 329.395 112.01C329.222 112.053 329.042 112.059 328.867 112.028C328.691 111.997 328.525 111.93 328.378 111.83C328.154 111.7 328.124 111.56 328.144 111.54Z" fill="#EB996E"/>
<path d="M294.83 105.32C294.838 105.669 294.984 106.002 295.236 106.248C295.488 106.495 295.828 106.635 296.183 106.64C296.356 106.649 296.53 106.625 296.694 106.567C296.857 106.509 297.007 106.42 297.135 106.305C297.263 106.189 297.366 106.05 297.438 105.894C297.511 105.739 297.551 105.571 297.556 105.4C297.55 105.05 297.406 104.716 297.153 104.469C296.9 104.222 296.559 104.083 296.203 104.08C296.03 104.072 295.857 104.098 295.694 104.156C295.531 104.214 295.382 104.303 295.254 104.419C295.126 104.534 295.023 104.673 294.95 104.828C294.878 104.982 294.837 105.15 294.83 105.32Z" fill="#263238"/>
<path d="M294.495 103.82C294.668 103.99 295.685 103.22 297.149 103.19C298.613 103.16 299.712 103.85 299.864 103.67C300.017 103.49 299.762 103.28 299.284 102.95C298.639 102.535 297.879 102.326 297.108 102.35C296.345 102.366 295.608 102.622 295.003 103.08C294.556 103.43 294.434 103.75 294.495 103.82Z" fill="#263238"/>
<path d="M309.189 105.31C309.2 105.658 309.346 105.988 309.598 106.232C309.85 106.476 310.188 106.615 310.542 106.62C310.715 106.631 310.89 106.607 311.054 106.55C311.218 106.493 311.369 106.404 311.497 106.288C311.625 106.172 311.728 106.032 311.8 105.876C311.872 105.72 311.911 105.551 311.914 105.38C311.909 105.032 311.766 104.699 311.515 104.452C311.265 104.206 310.926 104.065 310.572 104.06C310.398 104.052 310.223 104.078 310.059 104.137C309.895 104.195 309.744 104.285 309.616 104.401C309.487 104.518 309.383 104.658 309.31 104.814C309.237 104.97 309.196 105.138 309.189 105.31Z" fill="#263238"/>
<path d="M308.904 103.74C309.087 103.91 310.094 103.13 311.558 103.1C313.023 103.07 314.121 103.76 314.274 103.58C314.426 103.4 314.172 103.19 313.694 102.87C313.051 102.449 312.29 102.236 311.518 102.26C310.755 102.276 310.017 102.532 309.413 102.99C308.965 103.34 308.823 103.66 308.904 103.74Z" fill="#263238"/>
<path d="M303.86 114.55C303.082 114.334 302.279 114.213 301.471 114.19C301.095 114.19 300.739 114.1 300.667 113.85C300.634 113.47 300.711 113.088 300.891 112.75C301.227 111.85 301.572 110.91 301.908 109.92C303.342 105.92 304.369 102.59 304.206 102.53C304.044 102.47 302.742 105.7 301.308 109.72L300.291 112.57C300.065 113.02 300.007 113.533 300.128 114.02C300.191 114.145 300.279 114.256 300.388 114.346C300.496 114.435 300.623 114.501 300.759 114.54C300.969 114.59 301.184 114.613 301.4 114.61C302.219 114.701 303.047 114.68 303.86 114.55Z" fill="#263238"/>
<path d="M308.203 115.45C307.959 115.45 307.999 117 306.667 118.15C305.335 119.3 303.616 119.15 303.616 119.38C303.616 119.61 304.003 119.67 304.725 119.67C305.656 119.662 306.553 119.329 307.257 118.73C307.937 118.157 308.364 117.347 308.447 116.47C308.498 115.82 308.315 115.43 308.203 115.45Z" fill="#263238"/>
<path d="M308.386 98.1C308.538 98.49 310.003 98.27 311.721 98.43C313.44 98.59 314.853 99.01 315.067 98.66C315.168 98.49 314.914 98.12 314.345 97.76C313.591 97.3044 312.736 97.0335 311.853 96.97C310.969 96.8864 310.077 97.0098 309.25 97.33C308.67 97.6 308.325 97.91 308.386 98.1Z" fill="#263238"/>
<path d="M294.932 99.6399C295.197 99.9599 296.193 99.6399 297.413 99.5499C298.634 99.4599 299.661 99.7099 299.884 99.3699C299.986 99.1999 299.813 98.8699 299.356 98.5699C298.743 98.2158 298.037 98.0486 297.327 98.0896C296.617 98.1305 295.936 98.3777 295.369 98.7999C294.942 99.1399 294.81 99.4799 294.932 99.6399Z" fill="#263238"/>
<path d="M327.707 95.7399C327.646 98.4799 328.347 101.51 327.92 104.2C327.859 104.61 326.822 105.72 326.731 106.12C326.232 108.51 325.256 109.55 323.761 107.12C323.182 106.19 322.744 103.58 322.521 102.52L320.568 93.9099C318.358 95.1074 315.882 95.7498 313.358 95.7799C312.099 95.7771 310.861 95.4588 309.762 94.8552C308.662 94.2516 307.737 93.3825 307.074 92.3299C306.502 93.3196 305.711 94.1698 304.759 94.8173C303.807 95.4648 302.719 95.8929 301.576 96.0697C300.433 96.2466 299.263 96.1676 298.155 95.8386C297.047 95.5097 296.029 94.9393 295.176 94.1699C294.729 94.8271 294.046 95.2948 293.265 95.4801C292.483 95.6653 291.659 95.5546 290.956 95.1699C290.275 94.7465 289.747 94.1216 289.449 93.385C289.151 92.6483 289.099 91.8379 289.299 91.0699C289.898 88.7699 292.349 87.4699 294.658 86.7399C303.657 83.8899 313.745 85.7399 322.012 90.1999C323.244 90.8171 324.376 91.6127 325.368 92.5599C326.324 93.5599 327.646 94.6799 327.717 96.0399" fill="#263238"/>
<path d="M320.873 95.0001C321.374 94.9982 321.872 95.0759 322.348 95.2301C322.846 95.4421 323.307 95.7325 323.71 96.09C324.178 96.49 324.636 97.01 325.195 97.52C325.715 98.0362 326.348 98.4295 327.046 98.67C327.638 98.8352 328.264 98.8352 328.856 98.67C329.873 98.39 330.259 97.85 330.219 97.81C329.75 98.0051 329.267 98.1656 328.775 98.2901C328.25 98.3779 327.711 98.3331 327.209 98.1601C326.592 97.9263 326.033 97.5648 325.571 97.1001C325.043 96.6101 324.554 96.1001 324.046 95.6801C323.583 95.3045 323.052 95.0194 322.48 94.84C321.433 94.56 320.802 95.0001 320.873 95.0001Z" fill="#455A64"/>
<path d="M321.961 97.7999C321.961 97.8799 322.449 97.7999 322.978 98.2499C323.29 98.5293 323.569 98.8411 323.812 99.1799C324.145 99.6345 324.566 100.019 325.053 100.31C325.938 100.851 326.989 101.071 328.022 100.93C328.805 100.81 329.212 100.53 329.181 100.47C329.151 100.41 328.703 100.53 327.981 100.54C327.053 100.564 326.138 100.32 325.348 99.8399C324.412 99.3299 323.944 98.3499 323.202 97.9299C322.46 97.5099 321.89 97.7299 321.961 97.7999Z" fill="#455A64"/>
<path d="M296.813 79.56C296.813 79.56 296.498 79.48 295.969 79.64C295.225 79.8849 294.582 80.3625 294.139 81C292.97 82.61 292.695 85.46 293.6 88.23C294.4 90.615 296.065 92.6265 298.278 93.88C298.933 94.2546 299.633 94.5469 300.362 94.75C300.625 94.8486 300.905 94.8962 301.186 94.89C300.268 94.4864 299.372 94.0357 298.501 93.54C296.454 92.2568 294.92 90.3174 294.159 88.05C293.295 85.44 293.498 82.71 294.485 81.21C294.868 80.6124 295.419 80.1366 296.071 79.84C296.518 79.63 296.813 79.61 296.813 79.56Z" fill="#455A64"/>
<path d="M288.912 83.4499C288.803 84.0518 288.831 84.6699 288.993 85.2599C289.578 88.1754 291.315 90.7436 293.824 92.3999C294.315 92.777 294.884 93.0433 295.491 93.1799C293.822 92.0282 292.356 90.6163 291.149 88.9999C289.248 86.2399 289.095 83.4199 288.912 83.4499Z" fill="#455A64"/>
<path d="M236.328 214.14L222.376 214.83C221.52 214.874 220.715 215.242 220.129 215.857C219.543 216.473 219.222 217.287 219.234 218.13C219.305 221.27 219.844 225.56 222.285 225.13L223.871 218.3L235.454 228.3C236.625 229.338 238.07 230.031 239.623 230.3L242.348 230.02L236.328 214.14Z" fill="#FFBE9D"/>
<path d="M303.047 140.65L295.756 143.02L292.136 202.57V255.4L336.91 260.27L337.428 184.09L334.54 146.18L327.697 138.14L303.047 140.65Z" fill="#E0E0E0"/>
<path d="M300.8 143.5V137.73L327.412 134.09L326.344 147.38L320.233 157.8L310.236 158.35L303.016 153.97L300.8 143.5Z" fill="#E0E0E0"/>
<path d="M303.189 142.83C302.963 141.968 302.911 141.071 303.037 140.19C302.992 139.301 303.119 138.412 303.413 137.57C303.64 138.432 303.692 139.329 303.566 140.21C303.611 141.099 303.483 141.988 303.189 142.83Z" fill="#263238"/>
<path d="M309.84 142.35C309.64 141.379 309.609 140.381 309.748 139.4C309.722 138.408 309.873 137.42 310.196 136.48C310.401 137.468 310.429 138.483 310.277 139.48C310.305 140.455 310.157 141.426 309.84 142.35Z" fill="#263238"/>
<path d="M316.277 141.69C316.102 140.657 316.102 139.603 316.277 138.57C316.267 137.523 316.436 136.482 316.775 135.49C316.944 136.523 316.944 137.577 316.775 138.61C316.779 139.656 316.61 140.696 316.277 141.69Z" fill="#263238"/>
<path d="M322.46 140.69C322.055 138.741 322.149 136.724 322.734 134.82C322.869 135.796 322.869 136.785 322.734 137.76C322.774 138.744 322.682 139.73 322.46 140.69Z" fill="#263238"/>
<path d="M319.5 165.86C319.43 166.208 319.31 166.545 319.145 166.86C318.89 167.48 318.494 168.36 317.975 169.44C316.958 171.59 315.402 174.52 313.511 177.64C311.619 180.76 309.738 183.5 308.304 185.42C307.593 186.42 307.003 187.15 306.576 187.67C306.372 187.955 306.133 188.214 305.864 188.44C306.515 187.326 307.228 186.248 307.999 185.21C309.352 183.21 311.172 180.49 313.084 177.38C314.996 174.27 316.551 171.38 317.67 169.27C318.219 168.103 318.83 166.965 319.5 165.86Z" fill="#263238"/>
<path d="M327.564 137.21L334.784 140.63L348.736 144C351.684 144.504 354.321 146.106 356.098 148.474C357.874 150.841 358.654 153.791 358.275 156.71L350.963 212.71L359.688 267.01L325.114 266.01L323.08 245.81V189.81L327.564 137.21Z" fill="#455A64"/>
<path d="M323.08 202.71C323.096 202.475 323.13 202.241 323.182 202.01C323.283 201.51 323.416 200.86 323.578 200.01L325.114 192.79L330.391 169.02C330.971 166.47 331.53 164.02 332.069 161.6L332.141 161.84L329.741 159.37L329.608 159.23L329.71 159.07L333.727 152.5V152.69L329.293 142.13C328.795 140.9 328.388 139.91 328.093 139.13C327.935 138.788 327.806 138.433 327.707 138.07C327.911 138.385 328.081 138.72 328.215 139.07L329.537 141.98L334.093 152.55L334.144 152.65L334.083 152.75C332.852 154.75 331.52 157 330.107 159.36V159.06L332.507 161.51L332.608 161.61V161.74C332.069 164.13 331.51 166.61 330.941 169.16C328.825 178.41 326.873 186.78 325.51 192.9C324.809 195.9 324.229 198.33 323.812 200.09L323.324 202.03C323.267 202.264 323.185 202.492 323.08 202.71Z" fill="#263238"/>
<path d="M236.918 211.88L267.506 195.11L282.323 155.8C283.349 153.085 284.932 150.606 286.973 148.517C289.015 146.429 291.471 144.776 294.19 143.66L298.125 142.05V245.54L298.908 270.06L282.333 265.18L290.793 215.9L287.865 191.65L284.966 203.38C284.457 205.461 283.524 207.42 282.226 209.138C280.928 210.856 279.29 212.299 277.411 213.38L245.623 229.62L236.918 211.88Z" fill="#455A64"/>
<path d="M237.284 212.64L234.711 213.4L241.952 230.38L245.328 229.09L237.284 212.64Z" fill="#E0E0E0"/>
<path d="M273.079 202.09C272.449 200.747 271.682 199.471 270.791 198.28C269.763 197.202 268.628 196.228 267.405 195.37C268.885 195.873 270.197 196.765 271.197 197.95C272.198 199.135 272.848 200.567 273.079 202.09Z" fill="#263238"/>
<path d="M240.589 212.1C240.589 212.17 240.436 212.3 240.416 212.59C240.396 212.88 240.589 213.22 240.996 213.1C241.073 213.082 241.143 213.045 241.2 212.991C241.257 212.937 241.298 212.869 241.319 212.795C241.34 212.72 241.34 212.641 241.318 212.566C241.297 212.491 241.256 212.424 241.199 212.37C241.026 212.13 240.802 212.12 240.792 212.04C240.782 211.96 241.077 211.82 241.463 212.1C241.575 212.187 241.664 212.298 241.724 212.425C241.784 212.552 241.813 212.69 241.809 212.83C241.792 213.009 241.72 213.179 241.602 213.317C241.484 213.455 241.325 213.554 241.148 213.6C240.994 213.653 240.828 213.662 240.669 213.626C240.51 213.589 240.364 213.51 240.249 213.396C240.134 213.282 240.055 213.138 240.019 212.981C239.984 212.824 239.995 212.661 240.05 212.51C240.223 212.06 240.538 212 240.589 212.1Z" fill="#263238"/>
<path d="M243.05 211.08C243.05 211.15 242.897 211.28 242.887 211.57C242.877 211.86 243.06 212.2 243.467 212.08C243.544 212.061 243.614 212.022 243.67 211.967C243.727 211.912 243.768 211.844 243.788 211.768C243.809 211.693 243.809 211.614 243.788 211.539C243.767 211.463 243.727 211.395 243.67 211.34C243.497 211.11 243.274 211.09 243.253 211.02C243.233 210.95 243.538 210.79 243.934 211.08C244.046 211.165 244.135 211.274 244.195 211.399C244.255 211.524 244.284 211.662 244.28 211.8C244.26 211.981 244.187 212.152 244.068 212.291C243.95 212.431 243.792 212.533 243.614 212.584C243.437 212.635 243.248 212.634 243.072 212.58C242.895 212.526 242.739 212.421 242.623 212.28C242.544 212.163 242.494 212.03 242.477 211.892C242.459 211.753 242.474 211.612 242.521 211.48C242.694 211 243.05 211 243.05 211.08Z" fill="#263238"/>
<path d="M298.125 204.3C298.056 204.096 298.012 203.884 297.993 203.67C297.922 203.19 297.82 202.58 297.708 201.82C297.474 200.15 297.159 197.82 296.773 195.03C296.02 189.23 295.003 181.32 293.875 172.59C293.722 171.35 293.569 170.13 293.417 168.92V168.86V168.8C294.19 166.87 294.942 165 295.654 163.21V163.4C294.881 161.67 294.139 160.01 293.447 158.4V158.33V158.25C294.81 153.44 295.949 149.39 296.763 146.47C297.169 145.09 297.495 143.99 297.729 143.17C297.829 142.774 297.962 142.386 298.125 142.01C298.072 142.412 297.987 142.81 297.871 143.2C297.668 144.03 297.383 145.15 297.027 146.54C296.254 149.47 295.176 153.54 293.905 158.37V158.22L296.152 163.16V163.25V163.35L293.925 169V168.87C294.078 170.07 294.23 171.3 294.393 172.54C295.41 181.28 296.427 189.19 297.129 194.99C297.454 197.82 297.718 200.13 297.901 201.81L298.085 203.66C298.124 203.871 298.138 204.086 298.125 204.3Z" fill="#263238"/>
<path d="M290.763 216.19C290.713 216.03 290.679 215.866 290.661 215.7C290.61 215.32 290.539 214.85 290.458 214.29C290.295 212.98 290.082 211.22 289.807 209.08C289.268 204.68 288.505 198.61 287.59 191.91C286.675 185.21 285.78 179.15 285.129 174.77C284.814 172.64 284.55 170.88 284.356 169.58C284.285 169.01 284.224 168.58 284.173 168.16C284.146 167.994 284.146 167.826 284.173 167.66C284.234 167.815 284.278 167.976 284.306 168.14C284.387 168.52 284.478 168.98 284.59 169.54C284.824 170.76 285.15 172.54 285.526 174.71C286.278 179.08 287.234 185.13 288.149 191.84C289.065 198.55 289.766 204.63 290.183 209.04C290.407 211.24 290.57 213.04 290.671 214.26C290.671 214.83 290.743 215.26 290.763 215.69C290.79 215.856 290.79 216.024 290.763 216.19Z" fill="#263238"/>
<path d="M286.543 253C286.738 253.309 286.974 253.591 287.244 253.84C287.631 254.147 288.085 254.362 288.569 254.469C289.054 254.577 289.557 254.574 290.041 254.46C290.748 254.241 291.392 253.862 291.922 253.353C292.452 252.844 292.853 252.22 293.092 251.53C293.65 249.789 293.938 247.975 293.946 246.15C294.166 244.341 293.975 242.507 293.386 240.78C292.737 239.442 291.788 238.266 290.61 237.34C289.815 236.67 289.104 235.908 288.495 235.07C288.258 234.776 288.088 234.435 287.997 234.07C287.997 234.07 288.21 234.41 288.658 234.97C289.322 235.745 290.061 236.455 290.864 237.09C292.128 238.016 293.146 239.226 293.834 240.62C294.485 242.406 294.705 244.316 294.475 246.2C294.466 248.08 294.153 249.947 293.549 251.73C293.273 252.474 292.821 253.144 292.231 253.683C291.64 254.222 290.928 254.615 290.153 254.83C289.615 254.953 289.054 254.943 288.522 254.8C287.989 254.656 287.501 254.385 287.102 254.01C286.895 253.807 286.726 253.571 286.604 253.31C286.543 253.08 286.522 253 286.543 253Z" fill="#263238"/>
<path d="M275.174 214.14C275.174 214.14 276.191 202.67 285.424 201.61C285.424 201.61 285.597 211 275.174 214.14Z" fill="#263238"/>
<path d="M324.676 257.09L351.574 274.39L354.624 272L356.058 233.23L330.442 214.14L326.924 215.33L324.676 257.09Z" fill="#EFBD5D"/>
<path d="M330.147 214.69L331.195 256.65H325.541L327.432 215.52L330.147 214.69Z" fill="#E0E0E0"/>
<path d="M338.608 266.29C338.859 266.882 339.283 267.388 339.825 267.744C340.368 268.1 341.006 268.29 341.659 268.29C341.708 268.303 341.754 268.327 341.792 268.36C341.831 268.393 341.862 268.434 341.882 268.48C342.135 268.935 342.502 269.317 342.95 269.59C343.397 269.864 343.909 270.019 344.435 270.04C345.457 270.038 346.457 269.754 347.323 269.22C348.726 268.38 351.228 262.86 351.228 262.86L357.156 249.86L347.191 247.21L334.52 251.09C334.52 251.32 331.551 263.09 331.551 263.09C332.273 263.258 333.032 263.163 333.687 262.82C334.342 262.478 334.848 261.913 335.11 261.23C335.753 259.805 336.501 258.428 337.347 257.11L338.293 262.42L334.683 263.63C334.566 264.188 334.658 264.768 334.942 265.264C335.226 265.761 335.683 266.139 336.228 266.33L338.608 266.29Z" fill="#FFBE9D"/>
<path d="M343.082 175.06L359.688 205.12L346.174 244.57L361.193 252.9L380.301 209C380.999 207.39 381.346 205.653 381.318 203.903C381.29 202.153 380.888 200.428 380.138 198.84L356.75 149.35L343.082 175.06Z" fill="#455A64"/>
<path d="M346.174 244.57L344.77 247.63L358.946 255.15L360.431 252.47L346.174 244.57Z" fill="#E0E0E0"/>
<path d="M346.174 244.57C346.174 244.57 346.174 244.5 346.174 244.37C346.174 244.24 346.275 244.03 346.347 243.79L347.069 241.56C347.73 239.56 348.665 236.77 349.824 233.27C352.224 226.19 355.57 216.33 359.394 205.04V205.25C357.461 202.02 355.468 198.61 353.465 195.09C349.804 188.66 346.448 182.46 343.571 176.73C342.147 173.86 340.825 171.12 339.706 168.49C338.607 166.043 338.133 163.369 338.323 160.7C338.413 158.506 338.913 156.346 339.798 154.33C340.497 152.818 341.496 151.458 342.737 150.33C343.516 149.617 344.409 149.036 345.381 148.61C345.707 148.457 346.048 148.333 346.398 148.24C345.09 148.769 343.89 149.528 342.859 150.48C341.66 151.615 340.705 152.975 340.052 154.48C339.21 156.471 338.741 158.595 338.669 160.75C338.513 163.358 338.998 165.965 340.083 168.35C341.221 170.96 342.554 173.69 343.987 176.55C346.875 182.26 350.252 188.44 353.912 194.86C355.946 198.38 357.889 201.79 359.81 205.02L359.871 205.12V205.23C355.967 216.5 352.57 226.34 350.119 233.4L347.313 241.62C346.967 242.55 346.703 243.28 346.509 243.82L346.286 244.39C346.253 244.453 346.216 244.513 346.174 244.57Z" fill="#263238"/>
<path d="M370.915 204.84C370.356 204.688 369.809 204.497 369.278 204.27C366.645 203.411 363.787 203.499 361.214 204.52C360.699 204.781 360.165 205.005 359.617 205.19C360.014 204.752 360.508 204.409 361.061 204.19C362.355 203.567 363.77 203.226 365.21 203.19C366.65 203.141 368.083 203.4 369.41 203.95C369.974 204.13 370.489 204.434 370.915 204.84Z" fill="#263238"/>
<path d="M339.757 167.91L351.685 207.17L353.373 194.26L339.757 167.91Z" fill="#263238"/>
<path d="M359.516 245.05C359.516 245.12 359.363 245.25 359.353 245.54C359.343 245.83 359.526 246.17 359.932 246.05C360.009 246.031 360.08 245.992 360.136 245.937C360.193 245.882 360.233 245.814 360.254 245.738C360.275 245.663 360.275 245.584 360.254 245.508C360.233 245.433 360.192 245.365 360.136 245.31C359.963 245.08 359.739 245.06 359.729 244.99C359.719 244.92 360.004 244.77 360.4 245.05C360.513 245.136 360.603 245.247 360.663 245.374C360.723 245.501 360.752 245.64 360.746 245.78C360.727 245.96 360.653 246.131 360.533 246.268C360.413 246.406 360.253 246.504 360.075 246.55C359.895 246.615 359.699 246.621 359.516 246.567C359.332 246.513 359.172 246.401 359.058 246.25C358.98 246.135 358.93 246.004 358.912 245.867C358.895 245.73 358.91 245.59 358.956 245.46C359.109 245 359.516 245 359.516 245.05Z" fill="#263238"/>
<path d="M360.665 242.22C360.665 242.29 360.512 242.42 360.502 242.72C360.488 242.796 360.494 242.874 360.52 242.946C360.545 243.019 360.589 243.084 360.648 243.135C360.706 243.186 360.777 243.222 360.853 243.238C360.929 243.255 361.008 243.252 361.083 243.23C361.158 243.208 361.226 243.168 361.281 243.113C361.335 243.058 361.374 242.99 361.394 242.916C361.415 242.841 361.415 242.763 361.396 242.689C361.377 242.614 361.339 242.546 361.285 242.49C361.112 242.25 360.878 242.24 360.868 242.16C360.858 242.08 361.153 241.94 361.549 242.22C361.661 242.307 361.75 242.418 361.81 242.545C361.87 242.672 361.899 242.81 361.895 242.95C361.891 243.078 361.859 243.204 361.801 243.319C361.743 243.434 361.66 243.535 361.559 243.616C361.457 243.696 361.339 243.754 361.213 243.786C361.086 243.817 360.954 243.821 360.826 243.798C360.698 243.775 360.576 243.724 360.469 243.651C360.363 243.577 360.273 243.481 360.208 243.37C360.142 243.259 360.102 243.136 360.09 243.008C360.077 242.88 360.093 242.751 360.136 242.63C360.309 242.18 360.665 242.15 360.665 242.22Z" fill="#263238"/>
<path d="M376.986 192.21C375.206 193.13 374.586 195.71 374.789 197.68C374.993 199.65 375.735 201.56 375.684 203.53C375.551 204.939 375.296 206.334 374.922 207.7C374.539 209.071 374.581 210.523 375.044 211.87C375.29 212.536 375.755 213.102 376.364 213.48C376.973 213.858 377.692 214.027 378.41 213.96L379.823 211.16C380.924 208.968 381.48 206.55 381.445 204.106C381.409 201.661 380.784 199.26 379.62 197.1L376.986 192.21Z" fill="#263238"/>
<path d="M464.053 403.3C464.968 400.19 466.931 397.17 469.951 395.89C472.971 394.61 476.754 395.31 479.978 396.47C483.201 397.63 486.374 399.16 489.801 399.37C493.228 399.58 497.082 397.98 498.109 394.76C499.075 391.76 497.224 388.5 494.896 386.3C492.436 383.987 489.426 382.319 486.141 381.446C482.856 380.574 479.401 380.526 476.092 381.307C472.784 382.088 469.727 383.673 467.203 385.917C464.678 388.161 462.767 390.991 461.643 394.15" fill="#EFBD5D"/>
<g opacity="0.5">
<path opacity="0.5" d="M464.053 403.3C464.968 400.19 466.931 397.17 469.951 395.89C472.971 394.61 476.754 395.31 479.978 396.47C483.201 397.63 486.374 399.16 489.801 399.37C493.228 399.58 497.082 397.98 498.109 394.76C499.075 391.76 497.224 388.5 494.896 386.3C492.436 383.987 489.426 382.319 486.141 381.446C482.856 380.574 479.401 380.526 476.092 381.307C472.784 382.088 469.727 383.673 467.203 385.917C464.678 388.161 462.767 390.991 461.643 394.15" fill="black"/>
</g>
<path d="M436.922 416.83C431.899 412.14 432.153 403.97 434.654 397.61C437.156 391.25 442.627 386.38 448.738 383.17C454.706 380.083 461.308 378.368 468.047 378.153C474.786 377.939 481.487 379.23 487.645 381.93C484.631 382.056 481.694 382.907 479.091 384.408C476.489 385.909 474.3 388.014 472.717 390.54C469.971 395.04 469.351 400.54 467.083 405.24C464.519 410.595 459.965 414.78 454.359 416.936C448.753 419.092 442.521 419.054 436.942 416.83" fill="#EFBD5D"/>
<path d="M434.502 388.63C428.939 382.17 428.207 371.81 429.021 363.38C429.834 354.95 431.827 346.48 430.475 338.12C429.672 333.17 427.719 328.45 427.058 323.47C426.397 318.49 427.333 312.88 431.258 309.67C435.753 305.98 442.851 306.85 447.528 310.32C452.206 313.79 454.931 319.22 456.914 324.64C461.267 336.56 462.863 349.77 459.284 361.93C455.704 374.09 447.315 384.93 434.99 388.63" fill="#EFBD5D"/>
<path d="M431.838 441.61C431.816 441.364 431.816 441.116 431.838 440.87C431.838 440.38 431.838 439.66 431.838 438.73C431.909 436.88 432.092 434.2 432.509 430.91C433.006 427.058 433.719 423.235 434.644 419.46C435.802 414.825 437.591 410.364 439.963 406.2C442.346 402.042 445.265 398.203 448.647 394.78C451.403 391.989 454.454 389.495 457.748 387.34C459.141 386.39 460.484 385.68 461.643 385.01C462.802 384.34 463.86 383.9 464.694 383.49L466.727 382.67C466.952 382.56 467.187 382.473 467.429 382.41C467.214 382.54 466.99 382.653 466.758 382.75L464.795 383.65C463.961 384.08 462.945 384.65 461.745 385.23C460.545 385.81 459.284 386.65 457.911 387.6C450.666 392.468 444.654 398.906 440.339 406.42C435.254 415.22 433.831 424.47 432.814 430.95C432.356 434.23 432.122 436.9 431.99 438.74L431.868 440.87C431.875 441.117 431.865 441.364 431.838 441.61Z" fill="#263238"/>
<path d="M383.86 363.16C373.569 369.27 373.6 374.82 375.318 380.07C377.037 385.32 383.352 388.96 388.538 387C391.497 385.89 393.622 383.36 395.473 380.81C397.324 378.26 399.022 375.55 401.575 373.72C404.127 371.89 407.859 371.2 410.442 373.01" fill="#EFBD5D"/>
<g opacity="0.5">
<path opacity="0.5" d="M383.86 363.16C373.569 369.27 373.6 374.82 375.318 380.07C377.037 385.32 383.352 388.96 388.538 387C391.497 385.89 393.622 383.36 395.473 380.81C397.324 378.26 399.022 375.55 401.575 373.72C404.127 371.89 407.859 371.2 410.442 373.01" fill="black"/>
</g>
<path d="M376.152 369.85C378.847 366.2 385.487 365.14 389.687 366.96C393.887 368.78 396.958 372.41 399.714 376.02C402.469 379.63 405.144 383.44 408.957 385.96C412.771 388.48 418.109 389.38 421.892 386.85C423.106 385.962 424.122 384.84 424.88 383.552C425.637 382.264 426.118 380.837 426.295 379.36C426.627 376.408 426.42 373.421 425.685 370.54C424.78 366.3 423.296 361.86 419.838 359.17C415.994 356.17 410.686 356.02 405.734 356.17C400.1 356.35 394.375 356.76 389.087 358.68C383.799 360.6 378.399 364.76 376.152 369.84" fill="#EFBD5D"/>
<path d="M423.285 433.51C423.273 433.434 423.273 433.356 423.285 433.28V432.63C423.285 432.02 423.285 431.18 423.194 430.12C423.123 427.9 423.031 424.75 422.919 420.88C422.807 417.01 422.635 412.34 422.35 407.19C422.065 402.04 421.669 396.38 420.875 390.49C420.52 387.618 419.928 384.778 419.106 382C417.537 377.111 415.129 372.522 411.988 368.43C410.664 366.757 409.209 365.189 407.635 363.74C405.341 361.657 402.747 359.918 399.937 358.58C399.439 358.35 398.992 358.13 398.605 357.97L397.588 357.59L396.968 357.34L396.765 357.25L396.988 357.3L397.619 357.5L398.636 357.85C399.032 357.99 399.48 358.2 399.988 358.42C402.854 359.712 405.502 361.429 407.839 363.51C409.443 364.95 410.923 366.518 412.262 368.2C413.798 370.14 415.159 372.208 416.33 374.38C417.633 376.774 418.709 379.281 419.543 381.87C420.353 384.669 420.931 387.529 421.272 390.42C422.065 396.33 422.441 402 422.716 407.16C422.991 412.32 423.102 416.96 423.184 420.86C423.265 424.76 423.296 427.92 423.306 430.1C423.306 431.17 423.306 432.01 423.306 432.62C423.306 432.88 423.306 433.1 423.306 433.27C423.306 433.44 423.285 433.51 423.285 433.51Z" fill="#263238"/>
<path d="M426.987 438.08C426.495 436.661 426.117 435.207 425.858 433.73C425.145 429.699 424.988 425.592 425.39 421.52C426.019 415.491 427.332 409.551 429.305 403.81C431.421 397.29 434.288 390.33 436.739 382.81C437.944 379.173 438.932 375.47 439.698 371.72C440.376 368.221 440.861 364.69 441.152 361.14C441.624 355.118 441.733 349.074 441.478 343.04C441.305 337.89 441.02 333.72 440.847 330.84C440.766 329.42 440.695 328.31 440.654 327.52C440.654 327.16 440.654 326.88 440.654 326.66C440.641 326.56 440.641 326.459 440.654 326.36C440.665 326.456 440.665 326.553 440.654 326.65C440.654 326.87 440.654 327.16 440.746 327.52C440.817 328.3 440.908 329.41 441.03 330.83C441.254 333.7 441.59 337.83 441.803 343.03C442.102 349.075 442.027 355.133 441.579 361.17C441.292 364.736 440.81 368.284 440.135 371.8C439.384 375.589 438.396 379.33 437.176 383C434.715 390.51 431.838 397.47 429.712 403.95C427.728 409.661 426.387 415.57 425.716 421.57C425.287 425.616 425.393 429.7 426.031 433.72C426.285 435.14 426.519 436.24 426.723 436.97C426.804 437.32 426.875 437.6 426.926 437.81C426.958 437.897 426.978 437.988 426.987 438.08Z" fill="#263238"/>
<path d="M452.501 442.65H404.178L403.069 433.5H452.501V442.65Z" fill="#455A64"/>
<path d="M409.364 441.61L415.404 469.05H441.661L447.315 441.61H409.364Z" fill="#455A64"/>
<path d="M452.501 442.65C452.501 442.78 441.874 442.85 428.777 442.81C415.679 442.77 405.042 442.65 405.042 442.52C405.042 442.39 415.669 442.32 428.777 442.36C441.885 442.4 452.501 442.53 452.501 442.65Z" fill="#455A64"/>
<path d="M444.203 456.2C442.896 455.226 441.467 454.419 439.952 453.8C438.301 453.167 436.548 452.829 434.776 452.8C432.602 452.801 430.446 453.187 428.411 453.94C426.214 454.68 424.15 455.53 422.147 456C420.368 456.372 418.535 456.426 416.737 456.16C415.526 455.986 414.351 455.622 413.259 455.08C412.969 454.921 412.691 454.744 412.425 454.55C412.242 454.42 412.15 454.34 412.161 454.33C412.171 454.32 412.567 454.56 413.34 454.92C414.438 455.389 415.599 455.699 416.787 455.84C418.545 456.062 420.328 455.978 422.055 455.59C423.987 455.12 426.051 454.25 428.268 453.51C430.351 452.741 432.561 452.358 434.787 452.38C436.605 452.438 438.398 452.824 440.074 453.52C441.204 453.979 442.265 454.588 443.227 455.33C443.486 455.527 443.734 455.737 443.969 455.96C444.142 456.1 444.213 456.18 444.203 456.2Z" fill="#263238"/>
<path d="M443.837 458C442.578 457.059 441.213 456.264 439.769 455.63C438.185 454.997 436.496 454.658 434.787 454.63C432.684 454.638 430.598 455.007 428.624 455.72C426.499 456.42 424.506 457.23 422.594 457.72C420.904 458.199 419.143 458.392 417.387 458.29C416.202 458.221 415.042 457.914 413.981 457.39C413.696 457.245 413.424 457.078 413.167 456.89C412.994 456.76 412.903 456.68 412.913 456.67C412.923 456.66 413.32 456.9 414.062 457.23C415.12 457.682 416.255 457.933 417.408 457.97C419.128 458.023 420.845 457.8 422.492 457.31C424.353 456.8 426.336 455.98 428.492 455.31C430.514 454.582 432.653 454.216 434.807 454.23C436.561 454.285 438.287 454.672 439.891 455.37C440.982 455.835 442.008 456.437 442.942 457.16C443.268 457.42 443.501 457.63 443.654 457.78C443.807 457.93 443.847 458 443.837 458Z" fill="white"/>
<path d="M444.681 454.38C443.331 453.371 441.867 452.519 440.319 451.84C438.634 451.13 436.839 450.708 435.01 450.59C432.766 450.547 430.535 450.934 428.441 451.73C426.325 452.547 424.162 453.241 421.963 453.81C420.113 454.121 418.221 454.121 416.37 453.81C415.123 453.617 413.913 453.239 412.781 452.69C412.475 452.537 412.183 452.36 411.906 452.16C411.723 452.02 411.632 451.94 411.642 451.93C411.652 451.92 412.059 452.18 412.862 452.53C413.997 453.02 415.194 453.357 416.421 453.53C418.235 453.794 420.08 453.76 421.882 453.43C424.057 452.842 426.199 452.141 428.299 451.33C430.446 450.512 432.739 450.127 435.041 450.2C438.182 450.451 441.181 451.594 443.674 453.49C443.944 453.696 444.202 453.916 444.447 454.15C444.61 454.28 444.701 454.37 444.681 454.38Z" fill="white"/>
<path d="M452.928 442.69C452.928 442.82 442.057 442.92 428.655 442.92C415.252 442.92 404.371 442.82 404.371 442.69C404.371 442.56 415.242 442.47 428.655 442.47C442.068 442.47 452.928 442.57 452.928 442.69Z" fill="#263238"/>
<path d="M83.6404 432.25C85.3793 434.69 88.7249 433.88 90.3316 432.39C91.9383 430.9 92.5586 428.75 93.1586 426.69C94.5314 421.98 95.9245 417.04 94.8975 412.25C94.6521 410.799 94.0047 409.443 93.0264 408.33C92.534 407.785 91.9054 407.375 91.2027 407.142C90.5 406.908 89.7475 406.86 89.0198 407C87.3114 407.44 86.2538 409.08 85.4911 410.64C83.2386 415.25 82.0576 420.295 82.0336 425.41C81.8701 427.797 82.4406 430.176 83.6709 432.24" fill="#EFBD5D"/>
<g opacity="0.2">
<path opacity="0.2" d="M83.6404 432.25C85.3793 434.69 88.7249 433.88 90.3316 432.39C91.9383 430.9 92.5586 428.75 93.1586 426.69C94.5314 421.98 95.9245 417.04 94.8975 412.25C94.6521 410.799 94.0047 409.443 93.0264 408.33C92.534 407.785 91.9054 407.375 91.2027 407.142C90.5 406.908 89.7475 406.86 89.0198 407C87.3114 407.44 86.2538 409.08 85.4911 410.64C83.2386 415.25 82.0576 420.295 82.0336 425.41C81.8701 427.797 82.4406 430.176 83.6709 432.24" fill="black"/>
</g>
<path d="M90.1587 444.61C93.0724 443.265 96.3485 442.876 99.504 443.5C101.226 443.643 102.851 444.347 104.121 445.5C105.27 446.76 105.494 448.96 104.121 450.04C103.267 450.607 102.238 450.861 101.212 450.76C98.7414 450.76 96.0059 450.31 94.0331 451.76C92.9043 452.59 92.1518 453.98 90.8095 454.39C90.1352 454.542 89.429 454.475 88.7966 454.199C88.1642 453.923 87.6396 453.453 87.3012 452.86C86.6663 451.64 86.5281 450.227 86.9148 448.91C87.08 447.995 87.459 447.131 88.022 446.385C88.5849 445.638 89.3164 445.031 90.1587 444.61Z" fill="#EFBD5D"/>
<path d="M78.8507 435.75C79.7448 434.604 80.3401 433.261 80.5848 431.836C80.8294 430.412 80.7158 428.951 80.2541 427.58C79.302 424.845 77.5985 422.422 75.3323 420.58C72.7608 418.325 69.7658 416.585 66.5157 415.46C65.2583 414.959 63.9049 414.734 62.5498 414.8C61.8718 414.842 61.2144 415.046 60.6349 415.394C60.0553 415.743 59.5712 416.225 59.2246 416.8C58.2992 418.54 59.2246 420.65 60.1499 422.37C61.8518 425.392 63.7933 428.278 65.9564 431C67.6953 433.2 69.6885 435.37 72.3324 436.37C74.9764 437.37 77.722 437.25 79.1253 435.44" fill="#EFBD5D"/>
<path d="M83.5285 469.08C83.6153 468.715 83.6663 468.344 83.681 467.97C83.7624 467.16 83.8641 466.14 83.9861 464.97C84.1357 463.479 84.3665 461.997 84.6776 460.53C85.0778 458.742 85.6254 456.99 86.3148 455.29C86.981 453.581 87.8918 451.975 89.0198 450.52C89.9383 449.34 91.1124 448.377 92.4569 447.7C93.369 447.256 94.3474 446.959 95.3551 446.82C95.7354 446.8 96.1132 446.746 96.4838 446.66C96.1023 446.612 95.7162 446.612 95.3347 446.66C94.2792 446.735 93.2459 446.996 92.284 447.43C90.8676 448.089 89.6251 449.061 88.6537 450.27C87.476 451.737 86.5267 453.368 85.8369 455.11C85.136 456.833 84.5915 458.613 84.2098 460.43C83.9158 461.916 83.7154 463.419 83.6099 464.93C83.5082 466.21 83.4675 467.26 83.4573 467.93C83.4381 468.315 83.4619 468.7 83.5285 469.08Z" fill="#263238"/>
<path d="M83.742 466.75C83.7551 466.577 83.7551 466.403 83.742 466.23C83.742 465.84 83.742 465.36 83.742 464.76C83.742 463.48 83.742 461.63 83.8132 459.35C83.9251 454.79 84.3217 448.48 85.0945 441.56C85.8674 434.64 86.9046 428.4 87.8503 423.93C88.0639 422.8 88.2876 421.8 88.5011 420.93C88.7147 420.06 88.8774 419.28 89.0401 418.67L89.3859 417.24C89.4435 417.076 89.4744 416.904 89.4774 416.73C89.4037 416.884 89.3458 417.045 89.3045 417.21C89.1825 417.58 89.0401 418.05 88.8672 418.62C88.6944 419.19 88.4706 419.99 88.2469 420.87C88.0232 421.75 87.769 422.76 87.5249 423.87C86.2421 429.698 85.2781 435.59 84.6369 441.52C83.8641 448.46 83.5183 454.78 83.4777 459.36C83.4777 461.64 83.4777 463.5 83.559 464.77C83.5997 465.37 83.6302 465.86 83.6505 466.24C83.6584 466.413 83.6892 466.585 83.742 466.75Z" fill="#263238"/>
<path d="M83.7725 454.56C83.808 454.047 83.808 453.533 83.7725 453.02C83.7115 452.02 83.5692 450.6 83.2946 448.85C82.9442 446.803 82.4791 444.777 81.9014 442.78C81.219 440.328 80.3558 437.928 79.3185 435.6C77.5274 431.312 74.9568 427.381 71.7324 424C71.1766 423.418 70.5821 422.874 69.9528 422.37C69.6783 422.14 69.4342 421.91 69.1902 421.73L68.4987 421.27C68.0826 420.957 67.6404 420.679 67.1767 420.44C68.6973 421.609 70.1408 422.871 71.4985 424.22C74.6037 427.635 77.0904 431.548 78.8507 435.79C79.8756 438.101 80.7452 440.477 81.454 442.9C82.1251 445.13 82.5726 447.18 82.9183 448.9C83.2641 450.62 83.4268 452.04 83.5386 453.02C83.5758 453.538 83.654 454.053 83.7725 454.56Z" fill="#263238"/>
<path d="M233.715 50.41C233.887 50.3923 234.061 50.3923 234.233 50.41H235.759C236.584 50.4252 237.406 50.5021 238.22 50.64C238.708 50.72 239.236 50.77 239.786 50.88L241.545 51.31C244.553 52.0873 247.411 53.344 250.005 55.03C256.264 59.1231 260.691 65.4173 262.378 72.62C264.065 79.8227 262.883 87.3872 259.076 93.76C255.817 99.1867 250.858 103.429 244.941 105.85C241.826 107.117 238.507 107.835 235.138 107.97C231.672 108.181 228.197 107.757 224.888 106.72L224.583 106.62H224.817L207.682 112.46L206.99 112.7L207.204 112L211.658 98L211.729 98.34C208.682 94.9876 206.474 90.9814 205.28 86.6409C204.087 82.3004 203.941 77.7457 204.855 73.34C205.614 69.6379 207.118 66.1224 209.278 63C211.121 60.3065 213.414 57.9397 216.061 56C218.174 54.3967 220.523 53.1187 223.027 52.21C224.019 51.8063 225.038 51.4721 226.078 51.21C226.945 50.9693 227.829 50.7889 228.722 50.67C229.525 50.56 230.237 50.44 230.847 50.39L232.413 50.34H233.42C233.528 50.3229 233.637 50.3229 233.745 50.34C233.638 50.3649 233.529 50.3816 233.42 50.39L232.474 50.46L230.928 50.57C230.318 50.64 229.617 50.77 228.823 50.9C227.943 51.0367 227.073 51.2339 226.22 51.49C225.18 51.7504 224.16 52.0846 223.169 52.49C222.026 52.9458 220.909 53.4633 219.824 54.04C218.613 54.7171 217.451 55.4755 216.346 56.31C213.77 58.2393 211.537 60.5742 209.736 63.22C207.635 66.3094 206.182 69.7808 205.465 73.43C204.599 77.7334 204.764 82.1759 205.947 86.4058C207.129 90.6356 209.297 94.5367 212.278 97.8L212.421 97.95L212.36 98.14C210.943 102.64 209.468 107.307 207.936 112.14L207.458 111.69L224.573 106H224.695H224.817L225.112 106.09C228.336 107.097 231.721 107.511 235.098 107.31C238.381 107.179 241.616 106.485 244.657 105.26C250.433 102.905 255.281 98.7764 258.476 93.49C262.199 87.2511 263.369 79.8537 261.751 72.7973C260.133 65.741 255.847 59.5538 249.761 55.49C247.216 53.8067 244.415 52.5309 241.463 51.71L239.735 51.25C239.186 51.13 238.667 51.07 238.189 50.98C237.384 50.8193 236.569 50.719 235.748 50.68L234.233 50.56C234.057 50.5237 233.883 50.4735 233.715 50.41Z" fill="#EFBD5D"/>
<path d="M216.488 81.1502L220.993 76.7102L229.688 84.3102L246.761 68.1602L250.941 72.6002L229.047 92.8602L216.488 81.1502Z" fill="#EFBD5D"/>
</svg>
