<svg width="468" height="500" viewBox="0 0 468 500" fill="none" xmlns="http://www.w3.org/2000/svg">
<path d="M442.229 201.16C452.346 315 417.408 349.3 312.843 394.34C208.279 439.38 133.917 504 63.5719 364.28C12.8732 263.57 76.0995 135.61 180.664 90.56C285.228 45.51 429.347 56.06 442.229 201.16Z" fill="#B24C8F"/>
<path opacity="0.7" d="M442.229 201.16C452.346 315 417.408 349.3 312.843 394.34C208.279 439.38 133.917 504 63.5719 364.28C12.8732 263.57 76.0995 135.61 180.664 90.56C285.228 45.51 429.347 56.06 442.229 201.16Z" fill="white"/>
<path d="M248.496 394.63C248.496 395.993 248.118 397.326 247.41 398.459C246.703 399.592 245.697 400.475 244.52 400.996C243.344 401.518 242.049 401.654 240.8 401.387C239.551 401.12 238.404 400.463 237.504 399.498C236.605 398.534 235.992 397.305 235.745 395.968C235.498 394.631 235.627 393.245 236.115 391.986C236.604 390.728 237.43 389.652 238.49 388.896C239.55 388.14 240.795 387.738 242.069 387.74C243.774 387.743 245.409 388.47 246.614 389.762C247.819 391.053 248.496 392.804 248.496 394.63Z" fill="white"/>
<path d="M371.034 270.64C371.036 272.004 370.66 273.337 369.953 274.472C369.247 275.606 368.242 276.491 367.065 277.014C365.889 277.536 364.594 277.674 363.344 277.408C362.095 277.143 360.947 276.486 360.046 275.522C359.145 274.558 358.532 273.329 358.284 271.992C358.036 270.654 358.164 269.268 358.653 268.009C359.141 266.749 359.967 265.673 361.027 264.917C362.087 264.161 363.333 263.758 364.607 263.76C366.312 263.76 367.946 264.485 369.152 265.775C370.357 267.065 371.034 268.815 371.034 270.64Z" fill="white"/>
<path d="M431.318 193C431.318 194.363 430.94 195.695 430.233 196.828C429.526 197.961 428.52 198.844 427.344 199.366C426.168 199.887 424.874 200.024 423.625 199.758C422.377 199.492 421.23 198.836 420.33 197.872C419.43 196.908 418.817 195.681 418.568 194.344C418.32 193.008 418.447 191.622 418.935 190.363C419.422 189.104 420.247 188.028 421.305 187.271C422.364 186.514 423.608 186.11 424.881 186.11C425.727 186.109 426.564 186.286 427.346 186.632C428.127 186.978 428.837 187.485 429.435 188.125C430.033 188.765 430.507 189.525 430.83 190.362C431.153 191.198 431.319 192.095 431.318 193Z" fill="white"/>
<path d="M361.393 200.14C361.393 201.503 361.016 202.835 360.308 203.968C359.601 205.101 358.596 205.984 357.42 206.506C356.244 207.027 354.949 207.163 353.701 206.898C352.452 206.632 351.305 205.976 350.405 205.012C349.505 204.048 348.892 202.821 348.644 201.484C348.395 200.148 348.523 198.762 349.01 197.503C349.497 196.244 350.322 195.168 351.381 194.411C352.439 193.654 353.684 193.25 354.957 193.25C356.664 193.25 358.301 193.976 359.508 195.268C360.715 196.56 361.393 198.313 361.393 200.14Z" fill="white"/>
<path d="M307.079 106.77C307.081 108.133 306.705 109.466 305.999 110.601C305.293 111.735 304.288 112.62 303.112 113.143C301.936 113.666 300.642 113.804 299.393 113.539C298.143 113.274 296.996 112.619 296.095 111.656C295.193 110.692 294.579 109.465 294.33 108.128C294.081 106.791 294.208 105.405 294.695 104.146C295.182 102.886 296.007 101.809 297.066 101.052C298.124 100.294 299.369 99.89 300.643 99.89C301.487 99.8887 302.324 100.066 303.105 100.411C303.886 100.756 304.596 101.263 305.193 101.902C305.791 102.541 306.265 103.299 306.589 104.135C306.913 104.97 307.079 105.866 307.079 106.77Z" fill="white"/>
<path d="M263.658 70.29C263.66 71.6532 263.284 72.9863 262.578 74.1206C261.871 75.255 260.867 76.1397 259.691 76.6627C258.515 77.1857 257.22 77.3236 255.971 77.0589C254.722 76.7942 253.574 76.1387 252.673 75.1755C251.772 74.2124 251.158 72.9847 250.909 71.6479C250.66 70.3111 250.787 68.9252 251.274 67.6657C251.761 66.4061 252.586 65.3294 253.644 64.5719C254.703 63.8144 255.948 63.41 257.221 63.41C258.066 63.4087 258.903 63.5857 259.684 63.9309C260.465 64.276 261.174 64.7826 261.772 65.4216C262.37 66.0606 262.844 66.8195 263.168 67.6549C263.491 68.4902 263.658 69.3857 263.658 70.29Z" fill="white"/>
<path d="M143.642 160.78C143.642 162.143 143.264 163.476 142.556 164.609C141.849 165.742 140.843 166.625 139.666 167.147C138.49 167.668 137.195 167.804 135.946 167.537C134.697 167.27 133.55 166.613 132.65 165.648C131.751 164.684 131.138 163.455 130.891 162.118C130.644 160.781 130.773 159.395 131.261 158.136C131.75 156.878 132.576 155.802 133.636 155.046C134.696 154.29 135.941 153.888 137.215 153.89C138.059 153.89 138.896 154.068 139.676 154.415C140.457 154.761 141.166 155.269 141.763 155.909C142.36 156.549 142.833 157.308 143.155 158.144C143.478 158.98 143.643 159.876 143.642 160.78Z" fill="white"/>
<path d="M132.749 250.61C132.751 251.974 132.375 253.307 131.668 254.442C130.962 255.576 129.956 256.461 128.78 256.984C127.603 257.506 126.308 257.644 125.059 257.378C123.81 257.113 122.662 256.456 121.761 255.492C120.86 254.528 120.247 253.299 119.999 251.962C119.751 250.624 119.879 249.238 120.368 247.979C120.856 246.719 121.682 245.643 122.742 244.887C123.802 244.131 125.048 243.728 126.322 243.73C128.026 243.733 129.659 244.458 130.864 245.748C132.069 247.038 132.747 248.786 132.749 250.61Z" fill="white"/>
<path d="M145.8 304.37C145.8 305.733 145.422 307.066 144.714 308.199C144.007 309.332 143.001 310.215 141.824 310.737C140.647 311.258 139.353 311.394 138.104 311.127C136.855 310.86 135.708 310.203 134.808 309.239C133.909 308.274 133.296 307.045 133.049 305.708C132.802 304.371 132.931 302.985 133.419 301.726C133.908 300.468 134.734 299.392 135.794 298.636C136.854 297.881 138.099 297.478 139.372 297.48C140.217 297.48 141.054 297.658 141.834 298.005C142.615 298.351 143.324 298.859 143.921 299.499C144.517 300.139 144.991 300.898 145.313 301.734C145.636 302.57 145.801 303.466 145.8 304.37Z" fill="white"/>
<path d="M99.5852 377.04C103.14 377.04 106.022 373.955 106.022 370.15C106.022 366.345 103.14 363.26 99.5852 363.26C96.0303 363.26 93.1486 366.345 93.1486 370.15C93.1486 373.955 96.0303 377.04 99.5852 377.04Z" fill="white"/>
<path d="M139.373 304.37L99.5852 370.15L242.059 394.63L364.607 270.64L354.957 200.14L424.881 192.98L300.643 106.78L137.215 160.78L126.322 250.61L139.373 304.37Z" stroke="white" stroke-linecap="round" stroke-linejoin="round"/>
<path d="M257.221 70.29L300.643 106.77" stroke="white" stroke-linecap="round" stroke-linejoin="round"/>
<path d="M242.059 394.63L231.026 322.07" stroke="white" stroke-linecap="round" stroke-linejoin="round"/>
<path d="M137.214 160.78L174.722 197.1" stroke="white" stroke-linecap="round" stroke-linejoin="round"/>
<path d="M340.308 469.33C367.029 469.33 388.69 465.578 388.69 460.95C388.69 456.322 367.029 452.57 340.308 452.57C313.588 452.57 291.927 456.322 291.927 460.95C291.927 465.578 313.588 469.33 340.308 469.33Z" fill="#B24C8F"/>
<path d="M316.304 308.221C355.778 265.966 355.778 197.458 316.304 155.203C276.829 112.949 212.829 112.949 173.355 155.203C133.881 197.458 133.881 265.967 173.355 308.221C212.829 350.476 276.829 350.476 316.304 308.221Z" fill="#515B60"/>
<path d="M316.304 308.221C355.778 265.966 355.778 197.458 316.304 155.203C276.829 112.949 212.829 112.949 173.355 155.203C133.881 197.458 133.881 265.967 173.355 308.221C212.829 350.476 276.829 350.476 316.304 308.221Z" stroke="#263238" stroke-linecap="round" stroke-linejoin="round"/>
<path d="M193.378 167.93C192.211 166.99 186.615 169.03 186.596 167.25C186.596 166.07 190.333 162.75 191.071 161.25C192.117 159.06 191.575 156.01 192.547 153.95C193.357 152.174 194.426 150.547 195.714 149.13C201.394 143.99 210.063 138.42 217.294 138.03C219.891 137.89 223.45 142.67 224.039 146.4C224.384 148.61 224.039 155.18 222.17 157.48C219.424 160.95 213.389 160.99 210.184 163.69C206.448 166.83 204.635 174.24 200.338 176.69C199.142 177.37 196.872 176.03 196.097 175.33C194.658 174.06 194.677 169 193.378 167.93Z" fill="#B24C8F" stroke="#263238" stroke-linecap="round" stroke-linejoin="round"/>
<path d="M310.526 279.29C309.856 279.12 309.154 279.165 308.508 279.42C306.836 280.42 304.398 284.35 303.539 286.27C302.548 288.46 301.362 293.21 301.455 295.27C301.511 296.42 302.128 298.7 303.015 298.82C303.688 298.91 305.463 297.49 306.089 296.69C309.321 292.55 313.189 286.11 312.899 280.98C312.862 280.2 311.255 279.48 310.526 279.29Z" fill="#B24C8F" stroke="#263238" stroke-linecap="round" stroke-linejoin="round"/>
<path d="M249.243 180.28C250.458 180.15 253.139 179.45 253.914 178.28C255.11 176.39 255.568 170.7 254.325 169.09C253.793 168.42 251.831 168.56 251.158 169.15C250.289 169.92 250.523 173.15 249.654 174.01C248.785 174.87 246.328 173.67 245.581 174.58C244.834 175.49 244.647 178.48 245.198 179.4C245.749 180.32 248.178 180.39 249.243 180.28Z" fill="#B24C8F" stroke="#263238" stroke-linecap="round" stroke-linejoin="round"/>
<path d="M309.536 148.6C308.564 149.404 307.913 150.572 307.714 151.87C307.668 152.75 309.34 155.29 309.134 156.07C308.611 157.98 304.463 159.33 302.315 158.13C301.67 157.76 301.11 155.66 300.493 155.2C297.887 153.26 292.926 154.57 290.404 154.41C289.201 154.449 287.997 154.372 286.807 154.18C282.538 152.78 278.1 148.05 273.728 147.86C271.57 147.77 266.685 151.09 265.162 153.53C263.046 156.99 261.878 161.016 261.789 165.15C261.789 166.87 263.247 170.52 264.517 171.44C265.788 172.36 269.347 172.55 270.515 171.44C271.328 170.69 270.86 167.52 271.524 166.61C272.187 165.7 274.887 163.96 275.681 164.75C278.1 167.18 278.68 173.91 277.222 176.85C275.662 180 269.17 183.25 265.806 181.57C264.564 180.95 265.592 175.98 264.536 174.79C263.48 173.6 260.304 172.79 259.276 173.79C258.025 175.06 260.155 179.98 259.136 181.53C257.997 183.25 253.484 182.71 251.943 184.01C250.803 185.01 248.879 187.79 248.739 189.37C248.617 190.72 251.382 193.02 250.701 194.17C249.766 195.83 244.946 192.76 243.759 194.26C242.181 196.26 243.32 202.74 245.095 204.36C246.422 205.58 250.757 205.49 252.186 204.36C253.214 203.52 252.588 199.84 253.625 199.03C254.988 197.97 258.594 199.92 260.164 199.49C261.416 199.15 263.303 196.34 264.555 196.58C266.236 196.9 268.665 200.53 268.983 202.4C269.226 203.79 266.283 206.76 267.245 207.72C268.432 208.89 272.411 206.42 273 204.83C273.747 202.83 269.525 198.61 270.197 196.59C270.483 196.14 270.87 195.773 271.322 195.524C271.773 195.274 272.276 195.149 272.785 195.16C275.223 195.78 276.708 203.16 279.165 203.9C280.903 204.43 283.93 200.63 285.705 201.08C287.779 201.61 291.123 205.66 291.768 207.88C292.216 209.43 291.656 213.14 290.637 214.11C287.143 217.44 280.632 218.22 275.849 217.9C273.57 217.74 268.936 215.75 267.264 214.01C266.105 212.8 265.863 208.52 264.564 207.71C261.182 205.61 255.801 205.95 252.083 207.26C245.544 209.58 237.528 216.26 233.838 222.76C232.512 225.12 233.838 231.44 232.521 233.76C232.101 234.49 230.214 234.9 229.849 235.66C228.728 237.97 229.027 243.94 230.232 246.18C232.876 250.659 236.802 254.104 241.424 256C246.011 257.68 252.326 255 257.184 256.15C258.725 256.52 262.042 258.44 262.892 260.03C264.003 262.12 262.285 267.61 263.34 269.72C264.2 271.46 268.945 271.4 269.59 273.09C271.981 279.19 266.274 287.4 267.142 293.91C267.441 296.11 270.618 299.53 270.879 301.61C271.43 305.47 269.431 310.7 270.832 314.17C271.767 316.44 277.166 317.35 279.193 316.17C283.575 313.72 288.386 307.8 290.404 303.08C292.272 298.77 290.675 292.08 292.711 288.28C294.365 285.28 299.662 283.79 301.418 280.73C304.034 276.2 302.016 267.87 304.473 263.14C306.397 259.45 311.993 257.3 313.815 253.42C314.543 251.89 314.179 247.29 313.142 246.42C310.601 244.2 304.613 245.75 302.184 243.3C301.119 242.23 302.679 237.43 302.016 235.68C301.353 233.93 298.13 232.12 297.588 230.45C297.046 228.78 296.728 224.11 298.027 222.8C298.606 222.23 300.54 222.41 301.194 222.8C304.706 224.91 307.658 229.55 308.835 233.72C309.237 235.14 307.415 238.61 308.172 239.88C308.723 240.81 311.115 241.42 312.143 241.25C316.645 240.5 324.371 236.89 325.1 233.13C326.034 228.52 314.282 223.3 315.534 218.13C315.926 216.49 321.886 216.55 323.624 217.75C324.838 218.59 324.735 222.24 325.614 223.35C328.005 226.35 331.742 228.4 335.114 230.27C336.702 231.14 340.925 231.39 341.813 232.95C342.971 234.95 339.58 240.36 340.234 242.47C341.193 245.261 342.583 247.86 344.344 250.16C347.375 231.451 345.754 212.217 339.644 194.391C333.535 176.564 323.151 160.772 309.536 148.6Z" fill="#B24C8F" stroke="#263238" stroke-linecap="round" stroke-linejoin="round"/>
<path d="M191.93 301.65C188.193 297.81 183.775 291.73 183.364 286.89C182.887 281.29 193.098 278.75 193.64 272.49C193.836 270.23 188.754 264.31 189.165 261.94C189.576 259.57 195.237 257.17 194.985 254.61C194.481 249.38 189.296 243.49 185.223 240.68C183.027 239.16 176.675 241.05 174.769 239.08C173.835 238.14 175.32 235.08 174.395 234.21C173.209 233.09 169.556 234.75 168.071 234.11C166.352 233.37 164.54 229.43 162.895 228.85C157.337 226.85 149.219 231.76 143.763 229.43C143.763 230.19 143.763 230.95 143.763 231.71V232.24C144.722 232.748 145.518 233.548 146.052 234.54C146.201 235.397 146.171 236.28 145.964 237.123C145.757 237.967 145.379 238.751 144.856 239.42C144.61 239.586 144.325 239.676 144.034 239.68C144.24 242.77 144.576 245.82 145.024 248.83C147.827 250.72 151.47 251.98 153.292 254.58C154.404 256.17 152.031 259.83 153.292 261.38C155.805 264.43 161.466 264.69 164.25 267.38C170.789 273.69 171.826 286.45 179.15 293.66C180.43 294.92 183.494 296.13 184.756 297.43C186.521 299.27 187.25 302.7 189.146 304.43C192.397 307.43 197.9 312.43 200.917 312.15C201.459 312.1 199.385 307.15 197.648 305.15C196.349 303.73 193.304 303 191.93 301.65Z" fill="#B24C8F" stroke="#263238" stroke-linecap="round" stroke-linejoin="round"/>
<path d="M147.5 212.26C148.38 212.579 149.339 212.537 150.19 212.14C151.47 211.07 150.34 207.54 151.405 206.32C155.917 201.14 165.007 201.5 169.239 195.91C170.425 194.34 168.613 190.28 170.173 189.09C175.227 185.36 183.252 193.17 187.68 189.74C190.295 187.74 192.622 180.74 191.416 177.59C191.192 177 188.352 178.41 187.782 177.97C186.633 177.08 188.548 171.61 187.502 171.23C184.485 170.13 179.459 172.98 176.292 174.83C175.423 175.35 173.891 177.41 173.041 177.7C171.238 178.31 167.707 176.99 168.65 175.6C170.761 172.51 176.226 171.7 179.235 169.22C181.878 167.03 186.54 162.48 186.484 160.15C186.4 156.97 173.779 160.55 170.603 162.25C168.734 163.25 164.717 167.4 162.811 168.39C154.531 180.63 148.75 194.6 145.846 209.39C146.351 210.56 146.725 211.91 147.5 212.26Z" fill="#B24C8F" stroke="#263238" stroke-linecap="round" stroke-linejoin="round"/>
<path d="M181.187 350.19L193.715 330.31" stroke="#263238" stroke-linecap="round" stroke-linejoin="round"/>
<path d="M120.875 227.07L140.475 227.38" stroke="#263238" stroke-linecap="round" stroke-linejoin="round"/>
<path d="M179.076 113.95L191.164 134.7" stroke="#263238" stroke-linecap="round" stroke-linejoin="round"/>
<path d="M374.238 229.84L349.744 230.16" stroke="#263238" stroke-linecap="round" stroke-linejoin="round"/>
<path d="M114.85 303.94L135.393 333.93L146.529 350.18" stroke="#263238" stroke-linecap="round" stroke-linejoin="round"/>
<path d="M150.134 115.42L102.201 180.51" stroke="#263238" stroke-linecap="round" stroke-linejoin="round"/>
<path d="M312.647 364.17L195.443 369.66" stroke="#263238" stroke-linecap="round" stroke-linejoin="round"/>
<path d="M361.393 336.51L398.696 261.23" stroke="#263238" stroke-linecap="round" stroke-linejoin="round"/>
<path d="M401.601 200.5L400.359 176.1" stroke="#263238" stroke-linecap="round" stroke-linejoin="round"/>
<path d="M318.99 151.53L330.836 142.3" stroke="#263238" stroke-linecap="round" stroke-linejoin="round"/>
<path d="M195.247 87.54L330.35 90.04" stroke="#263238" stroke-linecap="round" stroke-linejoin="round"/>
<path d="M425.789 242.212C431.775 228.534 426.268 212.251 413.49 205.843C400.711 199.435 385.5 205.33 379.514 219.008C373.528 232.687 379.034 248.97 391.813 255.378C404.591 261.785 419.803 255.891 425.789 242.212Z" fill="#B24C8F"/>
<path opacity="0.2" d="M425.789 242.212C431.775 228.534 426.268 212.251 413.49 205.843C400.711 199.435 385.5 205.33 379.514 219.008C373.528 232.687 379.034 248.97 391.813 255.378C404.591 261.785 419.803 255.891 425.789 242.212Z" fill="white"/>
<path d="M402.759 258.13C405.074 258.131 407.377 257.794 409.607 257.13L408.178 248.2L396.145 248.96L395.678 257.06C397.98 257.768 400.364 258.129 402.759 258.13Z" fill="white"/>
<path d="M393.782 248.35C395.968 252.26 399.181 254.73 402.778 254.73C406.375 254.73 409.588 252.26 411.784 248.35H393.782Z" fill="#263238" stroke="#263238" stroke-linecap="round" stroke-linejoin="round"/>
<path d="M402.759 258.13C405.074 258.131 407.377 257.794 409.607 257.13L408.178 248.2L396.145 248.96L395.678 257.06C397.98 257.768 400.364 258.129 402.759 258.13V258.13Z" stroke="#263238" stroke-linecap="round" stroke-linejoin="round"/>
<path d="M417.034 233.85C416.531 233.597 415.959 233.551 415.427 233.72C415.1 223.88 409.392 216.04 402.348 216.04C395.305 216.04 389.634 223.88 389.27 233.72C388.734 233.55 388.159 233.596 387.653 233.85C386.28 234.57 385.916 236.76 386.822 238.73C387.091 239.438 387.543 240.049 388.126 240.49C388.709 240.931 389.397 241.185 390.11 241.22C391.979 248.22 396.734 253.16 402.302 253.16C407.869 253.16 412.578 248.16 414.502 241.22C415.214 241.183 415.9 240.928 416.481 240.487C417.062 240.046 417.513 239.436 417.781 238.73C418.781 236.76 418.407 234.57 417.034 233.85Z" fill="white" stroke="#263238" stroke-linecap="round" stroke-linejoin="round"/>
<path d="M400.601 235.81L400.499 236.34C400.17 238.011 399.559 239.604 398.696 241.04V241.04L401.311 242.57" stroke="#263238" stroke-linecap="round" stroke-linejoin="round"/>
<path d="M398.35 246.28C399.461 246.792 400.658 247.056 401.867 247.056C403.077 247.056 404.274 246.792 405.385 246.28" stroke="#263238" stroke-linecap="round" stroke-linejoin="round"/>
<path d="M395.65 234.41C395.65 235.15 395.389 235.75 395.062 235.75C394.735 235.75 394.464 235.15 394.464 234.41C394.464 233.67 394.725 233.07 395.062 233.07C395.398 233.07 395.65 233.67 395.65 234.41Z" fill="#263238"/>
<path d="M405.609 234.41C405.609 235.15 405.338 235.75 405.011 235.75C404.684 235.75 404.413 235.15 404.413 234.41C404.413 233.67 404.684 233.07 405.011 233.07C405.338 233.07 405.609 233.67 405.609 234.41Z" fill="#263238"/>
<path d="M393.894 231.81C394.344 230.892 395.074 230.166 395.963 229.755C396.853 229.344 397.847 229.271 398.78 229.55" stroke="#263238" stroke-linecap="round" stroke-linejoin="round"/>
<path d="M409.327 231.81C408.877 230.892 408.147 230.166 407.257 229.755C406.368 229.344 405.374 229.271 404.441 229.55" stroke="#263238" stroke-linecap="round" stroke-linejoin="round"/>
<path d="M392.063 232.2H389.419" stroke="#263238" stroke-linecap="round" stroke-linejoin="round"/>
<path d="M399.966 232.2H392.614V237.27H399.966V232.2Z" stroke="#263238" stroke-linecap="round" stroke-linejoin="round"/>
<path d="M410.551 232.2H403.198V237.27H410.551V232.2Z" stroke="#263238" stroke-linecap="round" stroke-linejoin="round"/>
<path d="M399.976 233.69H403.199" stroke="#263238" stroke-linecap="round" stroke-linejoin="round"/>
<path d="M414.969 232.2H410.551" stroke="#263238" stroke-linecap="round" stroke-linejoin="round"/>
<path d="M390.269 233.69C391.203 233.78 393.941 227.21 392.885 222.84C391.829 218.47 402.04 221.79 408.411 221C414.782 220.21 410.616 230.65 414.213 233.13C417.809 235.61 417.015 217.94 413.559 217.41C413.559 217.41 410.98 212.16 401.031 212.6C391.082 213.04 389.765 219.78 389.765 219.78C389.765 219.78 384.888 233.13 390.269 233.69Z" fill="#263238" stroke="#263238" stroke-linecap="round" stroke-linejoin="round"/>
<path d="M163.792 115.78C179.472 115.78 192.183 102.174 192.183 85.39C192.183 68.6061 179.472 55 163.792 55C148.113 55 135.402 68.6061 135.402 85.39C135.402 102.174 148.113 115.78 163.792 115.78Z" fill="#B24C8F"/>
<path opacity="0.3" d="M163.792 115.78C179.472 115.78 192.183 102.174 192.183 85.39C192.183 68.6061 179.472 55 163.792 55C148.113 55 135.402 68.6061 135.402 85.39C135.402 102.174 148.113 115.78 163.792 115.78Z" fill="white"/>
<path d="M163.484 116C166.054 116.001 168.612 115.627 171.088 114.89L169.463 105L156.085 105.85L155.571 114.85C158.145 115.63 160.809 116.017 163.484 116Z" fill="white"/>
<path d="M153.46 106.29C155.898 110.63 159.467 113.38 163.465 113.38C167.464 113.38 171.032 110.63 173.461 106.29H153.46Z" fill="#263238" stroke="#263238" stroke-linecap="round" stroke-linejoin="round"/>
<path d="M163.484 116C166.054 116.001 168.612 115.627 171.088 114.89L169.463 105L156.085 105.85L155.571 114.85C158.145 115.63 160.809 116.017 163.484 116Z" stroke="#263238" stroke-linecap="round" stroke-linejoin="round"/>
<path d="M176.722 72.59C176.722 72.59 189.623 100.88 181.626 106.71C173.125 112.91 152.75 113.23 146.304 105.71C139.858 98.19 146.36 80.63 149.107 76.94C151.112 74.4348 153.489 72.2996 156.141 70.62L164.988 68.62L174.013 72.12L176.722 72.59Z" fill="#263238" stroke="#263238" stroke-linecap="round" stroke-linejoin="round"/>
<path d="M179.786 89.0001C179.224 88.7203 178.587 88.667 177.992 88.8501C177.637 77.9201 171.285 69.2001 163.512 69.2001C155.74 69.2001 149.387 77.9201 149.023 88.8501C148.428 88.667 147.791 88.7203 147.229 89.0001C145.716 89.8001 145.295 92.2301 146.295 94.4201C146.596 95.2041 147.099 95.8801 147.746 96.369C148.393 96.8578 149.157 97.1391 149.948 97.1801C152.031 104.94 157.309 110.46 163.503 110.46C169.696 110.46 174.965 104.94 177.049 97.1801C177.84 97.1391 178.603 96.8578 179.25 96.369C179.897 95.8801 180.4 95.2041 180.701 94.4201C181.72 92.2401 181.309 89.8101 179.786 89.0001Z" fill="white" stroke="#263238" stroke-linecap="round" stroke-linejoin="round"/>
<path d="M161.522 91.1901L159.402 97.0001L162.316 98.7001" stroke="#263238" stroke-linecap="round" stroke-linejoin="round"/>
<path d="M159.402 102.81C160.636 103.383 161.966 103.678 163.311 103.678C164.656 103.678 165.987 103.383 167.221 102.81" stroke="#263238" stroke-linecap="round" stroke-linejoin="round"/>
<path d="M153.208 85.87C153.952 85.0332 154.945 84.4982 156.016 84.356C157.087 84.2138 158.171 84.4732 159.084 85.09" stroke="#263238" stroke-linecap="round" stroke-linejoin="round"/>
<path d="M170.827 86.0001C170.11 85.1356 169.136 84.5635 168.07 84.3812C167.004 84.1989 165.911 84.4176 164.979 85.0001" stroke="#263238" stroke-linecap="round" stroke-linejoin="round"/>
<path d="M156.132 92.81C155.048 92.81 154.009 92.35 153.242 91.5307C152.475 90.7115 152.043 89.6 152.04 88.44V87.17H159.037C159.35 87.1727 159.65 87.3077 159.87 87.5455C160.091 87.7834 160.214 88.1049 160.214 88.44C160.214 89.599 159.784 90.7106 159.019 91.5301C158.253 92.3496 157.215 92.81 156.132 92.81Z" fill="#263238" stroke="#263238" stroke-linecap="round" stroke-linejoin="round"/>
<path d="M167.875 92.81C166.792 92.81 165.754 92.3496 164.988 91.5301C164.223 90.7106 163.792 89.599 163.792 88.44C163.792 88.1049 163.916 87.7834 164.137 87.5455C164.357 87.3077 164.656 87.1727 164.969 87.17H171.967V88.44C171.964 89.6 171.532 90.7115 170.765 91.5307C169.998 92.35 168.958 92.81 167.875 92.81Z" fill="#263238" stroke="#263238" stroke-linecap="round" stroke-linejoin="round"/>
<path d="M160.214 88.8301H163.792" stroke="#263238" stroke-linecap="round" stroke-linejoin="round"/>
<path d="M152.04 87.17H149.098" stroke="#263238" stroke-linecap="round" stroke-linejoin="round"/>
<path d="M177.889 87.17H172.434" stroke="#263238" stroke-linecap="round" stroke-linejoin="round"/>
<path d="M159.075 74.54C159.075 74.54 165.754 83.69 171.967 84.31C178.179 84.93 174.106 98.31 171.967 98.7C171.967 98.7 177.572 98.92 177.992 88.86C177.992 88.86 185.746 75.26 172.611 69.48C162.475 65.02 157.384 69.21 157.384 69.21C157.384 69.21 144.492 72.64 147.846 86.69C147.846 86.69 150.116 94.06 152.563 94.94C152.563 94.94 148.939 86.59 152.479 82.12C156.02 77.65 158.813 77.84 159.075 74.54Z" fill="#263238" stroke="#263238" stroke-linecap="round" stroke-linejoin="round"/>
<path d="M209.092 64.53H213.762C215.641 64.53 217.442 63.7314 218.77 62.3099C220.098 60.8884 220.844 58.9604 220.844 56.9501C220.844 54.9397 220.098 53.0117 218.77 51.5902C217.442 50.1687 215.641 49.37 213.762 49.37H213.37C212.819 47.5658 211.75 45.9941 210.315 44.8796C208.879 43.7652 207.151 43.165 205.378 43.165C203.605 43.165 201.877 43.7652 200.442 44.8796C199.006 45.9941 197.937 47.5658 197.386 49.37H196.994C196.064 49.37 195.143 49.5661 194.284 49.947C193.425 50.328 192.644 50.8863 191.987 51.5902C191.329 52.294 190.807 53.1297 190.452 54.0493C190.096 54.969 189.912 55.9546 189.912 56.9501C189.912 57.9455 190.096 58.9311 190.452 59.8508C190.807 60.7704 191.329 61.606 191.987 62.3099C192.644 63.0138 193.425 63.5721 194.284 63.9531C195.143 64.334 196.064 64.53 196.994 64.53H198.937" stroke="#263238" stroke-linecap="round" stroke-linejoin="round"/>
<path d="M212.697 62.2401L204.028 52.9601L195.359 62.2401H200.534V69.7501H207.522V62.2401H212.697Z" fill="#B24C8F" stroke="#263238" stroke-linecap="round" stroke-linejoin="round"/>
<path d="M164.988 408.21C180.668 408.21 193.378 394.604 193.378 377.82C193.378 361.036 180.668 347.43 164.988 347.43C149.309 347.43 136.598 361.036 136.598 377.82C136.598 394.604 149.309 408.21 164.988 408.21Z" fill="#B24C8F"/>
<path opacity="0.2" d="M164.988 408.21C180.668 408.21 193.378 394.604 193.378 377.82C193.378 361.036 180.668 347.43 164.988 347.43C149.309 347.43 136.598 361.036 136.598 377.82C136.598 394.604 149.309 408.21 164.988 408.21Z" fill="white"/>
<path d="M164.988 408.21C167.558 408.211 170.116 407.837 172.592 407.1L171.014 397.17L157.636 398.02L157.122 407.02C159.679 407.809 162.327 408.21 164.988 408.21Z" fill="white"/>
<path d="M155.011 398.51C157.44 402.85 161.018 405.6 165.007 405.6C168.996 405.6 172.583 402.85 175.012 398.51H155.011Z" fill="#263238" stroke="#263238" stroke-linecap="round" stroke-linejoin="round"/>
<path d="M164.988 408.21C167.558 408.211 170.116 407.837 172.592 407.1L171.014 397.17L157.636 398.02L157.122 407.02C159.679 407.809 162.327 408.21 164.988 408.21Z" stroke="#263238" stroke-linecap="round" stroke-linejoin="round"/>
<path d="M181.234 381.81C180.672 381.53 180.035 381.477 179.44 381.66C179.085 370.73 172.732 362.01 164.96 362.01C157.187 362.01 150.826 370.73 150.471 381.66C149.875 381.477 149.238 381.53 148.677 381.81C147.164 382.61 146.743 385.04 147.743 387.23C148.045 388.022 148.553 388.704 149.208 389.195C149.862 389.686 150.634 389.966 151.433 390C153.516 397.76 158.794 403.28 164.988 403.28C171.182 403.28 176.451 397.76 178.534 390C179.325 389.959 180.088 389.678 180.735 389.189C181.382 388.7 181.886 388.024 182.187 387.24C183.195 385 182.784 382.61 181.234 381.81Z" fill="white" stroke="#263238" stroke-linecap="round" stroke-linejoin="round"/>
<path d="M164.68 383.99L166.8 389.8L163.886 391.5" stroke="#263238" stroke-linecap="round" stroke-linejoin="round"/>
<path d="M160.878 395.61C162.112 396.183 163.442 396.478 164.787 396.478C166.132 396.478 167.463 396.183 168.697 395.61" stroke="#263238" stroke-linecap="round" stroke-linejoin="round"/>
<path d="M160.149 382.64C160.149 383.46 159.85 384.13 159.486 384.13C159.121 384.13 158.822 383.46 158.822 382.64C158.822 381.82 159.121 381.15 159.486 381.15C159.85 381.15 160.149 381.82 160.149 382.64Z" fill="#263238"/>
<path d="M171.144 382.64C171.144 383.46 170.845 384.13 170.481 384.13C170.117 384.13 169.818 383.46 169.818 382.64C169.818 381.82 170.117 381.15 170.481 381.15C170.845 381.15 171.144 381.82 171.144 382.64Z" fill="#263238"/>
<path d="M156.01 379.54C156.506 378.516 157.317 377.706 158.306 377.249C159.295 376.791 160.402 376.714 161.438 377.03" stroke="#263238" stroke-linecap="round" stroke-linejoin="round"/>
<path d="M173.162 379.54C172.667 378.516 171.856 377.706 170.867 377.249C169.877 376.791 168.771 376.714 167.735 377.03" stroke="#263238" stroke-linecap="round" stroke-linejoin="round"/>
<path d="M149.088 379.54C149.088 379.54 151.339 384.41 152.535 383.99C153.731 383.57 152.003 374.55 154.917 372.25C157.832 369.95 167.903 372.93 172.069 369.1C172.069 369.1 172.004 374.38 174.788 376.85C177.572 379.32 176.507 384.27 177.833 383.99C179.16 383.71 179.552 380.11 179.814 378.59C180.617 374.03 181.804 361.16 174.657 361.16C174.657 361.16 172.929 358.47 162.512 358.75C152.096 359.03 151.853 355.92 151.853 355.92C151.853 355.92 143.922 367.72 149.088 379.54Z" fill="#263238" stroke="#263238" stroke-linecap="round" stroke-linejoin="round"/>
<path d="M353.453 163.57L403.899 170.28C415.782 171.86 426.46 162.67 427.17 150.28L431.477 74.4401C432.177 62.0501 422.639 51.6301 410.672 51.7201L354.845 52.1801C343.354 52.2801 334.143 62.0701 334.292 73.9901L335.376 142.64C335.523 147.876 337.434 152.879 340.756 156.725C344.078 160.572 348.588 163.003 353.453 163.57Z" fill="#B24C8F"/>
<path opacity="0.3" d="M353.453 163.57L403.899 170.28C415.782 171.86 426.46 162.67 427.17 150.28L431.477 74.4401C432.177 62.0501 422.639 51.6301 410.672 51.7201L354.845 52.1801C343.354 52.2801 334.143 62.0701 334.292 73.9901L335.376 142.64C335.523 147.876 337.434 152.879 340.756 156.725C344.078 160.572 348.588 163.003 353.453 163.57Z" fill="white"/>
<path d="M423.601 135.42V139.31H371.427V135.42C371.427 133.507 372.136 131.672 373.399 130.318C374.662 128.964 376.375 128.203 378.162 128.2H416.856C418.645 128.2 420.361 128.961 421.626 130.315C422.891 131.669 423.601 133.505 423.601 135.42Z" stroke="#263238" stroke-miterlimit="10"/>
<path d="M424.89 158.83V139.31H370.119V165.79" stroke="#263238" stroke-miterlimit="10"/>
<path d="M360.926 93.07C360.926 93.07 363.075 86.93 368.474 87.91C373.874 88.89 369.745 93.72 367.148 94.15C367.139 94.15 366.756 92.46 360.926 93.07Z" fill="white" stroke="#263238" stroke-linecap="round" stroke-linejoin="round"/>
<path d="M357.348 96.55C356.638 97.31 354.929 97.37 356.078 95.72C357.022 94.3963 358.299 93.3871 359.758 92.81C362.318 91.59 363.318 91.81 365.635 91.29C367.951 90.77 368.381 91.76 369.184 92.23C371.1 93.35 371.557 93.54 372.034 94.67C372.51 95.8 373.043 97.26 371.557 97.26C370.072 97.26 370.109 94.86 368.755 94.95C367.4 95.04 366.784 97.26 365.859 97.26H365.513C364.719 97.26 364.682 96.56 365.158 95.45C365.635 94.34 366.167 93.35 366.167 93.35C365.389 93.7934 364.766 94.4953 364.392 95.35C363.757 96.79 363.645 97.35 362.524 97.35C361.403 97.35 361.44 96.43 362.598 94.35C361.925 94.7751 361.368 95.382 360.982 96.11C360.422 97.26 360.123 97.18 359.375 97.18C358.441 97.18 358.441 95.46 360.198 94.33C360.198 94.41 359.814 93.91 357.348 96.55Z" fill="white" stroke="#263238" stroke-linecap="round" stroke-linejoin="round"/>
<path d="M364.112 92.4301C364.112 92.4301 363.43 92.4301 363.009 93.6201L364.112 92.4301Z" fill="white"/>
<path d="M364.112 92.4301C364.112 92.4301 363.43 92.4301 363.009 93.6201" stroke="#263238" stroke-linecap="round" stroke-linejoin="round"/>
<path d="M377.751 172.3L381.488 179.29H384.683L386.084 177.17L382.627 168.17L377.751 172.3Z" fill="white" stroke="#263238" stroke-linecap="round" stroke-linejoin="round"/>
<path d="M386.607 111.78L382.749 113.33C382.749 113.33 355.265 121.85 354.06 129.07C352.855 136.29 378.274 174 378.274 174C378.274 174 381.338 174.48 383.721 170.13C383.721 170.13 374.752 141.22 370.642 135.55C370.642 135.55 400.798 129.87 402.246 125.74C403.694 121.61 399.677 111.38 399.677 111.38L386.607 111.78Z" fill="#263238" stroke="#263238" stroke-linecap="round" stroke-linejoin="round"/>
<path d="M379.451 179.15C379.517 179.024 379.611 178.917 379.726 178.84C379.84 178.763 379.97 178.719 380.105 178.71C381.258 178.632 382.379 178.27 383.379 177.65C384.379 177.031 385.232 176.172 385.869 175.14C385.983 174.966 386.153 174.843 386.346 174.795C386.539 174.747 386.742 174.778 386.915 174.88C388.339 175.777 389.536 177.033 390.4 178.54C390.711 179.069 390.82 179.707 390.703 180.319C390.587 180.932 390.254 181.473 389.774 181.83L377.854 190.41C377.219 190.868 376.471 191.112 375.705 191.11H372.744C372.578 191.111 372.414 191.068 372.266 190.987C372.118 190.906 371.991 190.787 371.895 190.642C371.799 190.497 371.736 190.33 371.713 190.153C371.69 189.977 371.707 189.798 371.763 189.63C371.881 189.243 372.089 188.895 372.367 188.617C372.644 188.339 372.983 188.141 373.351 188.04C375.313 187.53 379.059 180 379.451 179.15Z" fill="#263238"/>
<path d="M379.451 179.15C379.517 179.024 379.611 178.917 379.726 178.84C379.84 178.763 379.97 178.719 380.105 178.71C381.258 178.632 382.379 178.27 383.379 177.65C384.379 177.031 385.232 176.172 385.869 175.14C385.983 174.966 386.153 174.843 386.346 174.795C386.539 174.747 386.742 174.778 386.915 174.88C388.339 175.777 389.536 177.033 390.4 178.54C390.711 179.069 390.82 179.707 390.703 180.319C390.587 180.932 390.254 181.473 389.774 181.83L377.854 190.41C377.219 190.868 376.471 191.112 375.705 191.11H372.744C372.578 191.111 372.414 191.068 372.266 190.987C372.118 190.906 371.991 190.787 371.895 190.642C371.799 190.497 371.736 190.33 371.713 190.153C371.69 189.977 371.707 189.798 371.763 189.63C371.881 189.243 372.089 188.895 372.367 188.617C372.644 188.339 372.983 188.141 373.351 188.04C375.313 187.53 379.059 180 379.451 179.15Z" fill="#BFBFBF" stroke="#263238" stroke-linecap="round" stroke-linejoin="round"/>
<path d="M379.451 179.15C379.517 179.024 379.611 178.917 379.726 178.84C379.84 178.763 379.97 178.719 380.105 178.71C381.258 178.632 382.379 178.27 383.379 177.65C384.379 177.031 385.232 176.172 385.869 175.14C385.983 174.966 386.153 174.843 386.346 174.795C386.539 174.747 386.742 174.778 386.915 174.88C388.339 175.777 389.536 177.033 390.4 178.54C390.711 179.069 390.82 179.707 390.703 180.319C390.587 180.932 390.254 181.473 389.774 181.83L377.854 190.41C377.219 190.868 376.471 191.112 375.705 191.11H372.744C372.578 191.111 372.414 191.068 372.266 190.987C372.118 190.906 371.991 190.787 371.895 190.642C371.799 190.497 371.736 190.33 371.713 190.153C371.69 189.977 371.707 189.798 371.763 189.63C371.881 189.243 372.089 188.895 372.367 188.617C372.644 188.339 372.983 188.141 373.351 188.04C375.313 187.53 379.059 180 379.451 179.15Z" stroke="#263238" stroke-linecap="round" stroke-linejoin="round"/>
<path d="M364.794 132C364.794 132 366.503 132.13 369.381 134.45" stroke="#7F7F7F" stroke-linecap="round" stroke-linejoin="round"/>
<path d="M376.126 174L374.855 184.17L380.507 185.21L383.412 175.21L376.126 174Z" fill="white" stroke="#263238" stroke-linecap="round" stroke-linejoin="round"/>
<path d="M395.65 114.5C395.996 115.9 395.398 120.5 394.193 121.15C389.522 123.8 381.805 130.84 380.096 138.37C377.929 147.91 375.518 177.08 375.518 177.08C375.518 177.08 377.452 180.43 382.515 178.88C382.515 178.88 391.913 154.62 392.633 142.75C397.498 139.296 402.671 136.365 408.075 134C412.634 132.16 415.119 129.1 416.025 126.48C418.435 119.48 413.615 108.16 413.615 108.16L395.772 112L395.65 114.5Z" fill="#263238" stroke="#263238" stroke-linecap="round" stroke-linejoin="round"/>
<path d="M388.251 139.66C389.494 139.807 390.655 140.395 391.549 141.33" stroke="#7F7F7F" stroke-linecap="round" stroke-linejoin="round"/>
<path d="M374.612 181.66C374.51 181.565 374.386 181.5 374.254 181.472C374.121 181.444 373.984 181.454 373.855 181.5C372.239 182.09 366.288 184.14 362.851 183.97C360.347 183.84 359.562 185.36 359.329 186.52C359.298 186.68 359.298 186.845 359.329 187.005C359.359 187.165 359.42 187.317 359.508 187.451C359.595 187.584 359.707 187.698 359.837 187.784C359.967 187.87 360.112 187.926 360.263 187.95L379.591 191.08C380.167 191.177 380.756 191.033 381.234 190.677C381.713 190.321 382.045 189.781 382.16 189.17C382.513 187.437 382.462 185.637 382.011 183.93C381.95 183.727 381.821 183.556 381.648 183.45C381.475 183.344 381.271 183.312 381.077 183.36C379.95 183.631 378.78 183.618 377.658 183.323C376.536 183.028 375.494 182.459 374.612 181.66Z" fill="#263238"/>
<path d="M374.612 181.66C374.51 181.565 374.386 181.5 374.254 181.472C374.121 181.444 373.984 181.454 373.855 181.5C372.239 182.09 366.288 184.14 362.851 183.97C360.347 183.84 359.562 185.36 359.329 186.52C359.298 186.68 359.298 186.845 359.329 187.005C359.359 187.165 359.42 187.317 359.508 187.451C359.595 187.584 359.707 187.698 359.837 187.784C359.967 187.87 360.112 187.926 360.263 187.95L379.591 191.08C380.167 191.177 380.756 191.033 381.234 190.677C381.713 190.321 382.045 189.781 382.16 189.17C382.513 187.437 382.462 185.637 382.011 183.93C381.95 183.727 381.821 183.556 381.648 183.45C381.475 183.344 381.271 183.312 381.077 183.36C379.95 183.631 378.78 183.618 377.658 183.323C376.536 183.028 375.494 182.459 374.612 181.66Z" fill="#BFBFBF" stroke="#263238" stroke-linecap="round" stroke-linejoin="round"/>
<path d="M374.612 181.66C374.51 181.565 374.386 181.5 374.254 181.472C374.121 181.444 373.984 181.454 373.855 181.5C372.239 182.09 366.288 184.14 362.851 183.97C360.347 183.84 359.562 185.36 359.329 186.52C359.298 186.68 359.298 186.845 359.329 187.005C359.359 187.165 359.42 187.317 359.508 187.451C359.595 187.584 359.707 187.698 359.837 187.784C359.967 187.87 360.112 187.926 360.263 187.95L379.591 191.08C380.167 191.178 380.756 191.033 381.234 190.677C381.713 190.321 382.045 189.781 382.16 189.17C382.513 187.437 382.462 185.637 382.011 183.93C381.95 183.727 381.821 183.556 381.648 183.45C381.475 183.344 381.271 183.312 381.077 183.36C379.95 183.631 378.78 183.618 377.658 183.323C376.536 183.028 375.494 182.459 374.612 181.66Z" stroke="#263238" stroke-linecap="round" stroke-linejoin="round"/>
<path d="M383.73 131.22C387.017 126.09 391.98 122.462 397.64 121.05" stroke="#7F7F7F" stroke-linecap="round" stroke-linejoin="round"/>
<path d="M416.268 112.3C401.554 116.69 382.749 113.3 382.749 113.3C383.069 110.377 382.997 107.421 382.534 104.52H399.835C400.453 104.522 401.065 104.394 401.636 104.141C402.207 103.889 402.725 103.518 403.161 103.05C404.025 102.112 404.509 100.847 404.506 99.53H381.665C381.049 96.53 380.208 93.11 379.134 89.33C378.189 85.7785 377.563 82.1387 377.265 78.46L371.38 89.8399C371.38 89.8399 370.632 92.61 366.868 92.69C363.103 92.77 363.533 91.31 366.793 79.94C368.842 73.3608 372.062 67.2687 376.275 62C376.45 61.7801 376.685 61.6259 376.948 61.56C376.948 61.47 376.948 61.42 376.948 61.42C401.069 54.75 411.447 63 411.447 63C404.693 84 416.268 112.3 416.268 112.3Z" fill="#B24C8F" stroke="#263238" stroke-linecap="round" stroke-linejoin="round"/>
<path d="M382.571 94.52C382.571 94.52 379.377 96.59 380.301 97.07C381.852 97.88 385.225 95.33 385.225 95.33C385.225 95.33 388.896 95.07 387.028 94.17L385.159 93.27L382.571 94.52Z" fill="white"/>
<path opacity="0.2" d="M382.571 94.52C382.571 94.52 379.377 96.59 380.301 97.07C381.852 97.88 385.225 95.33 385.225 95.33C385.225 95.33 388.896 95.07 387.028 94.17L385.159 93.27L382.571 94.52Z" fill="black"/>
<path d="M382.571 94.52C382.571 94.52 379.377 96.59 380.301 97.07C381.852 97.88 385.225 95.33 385.225 95.33C385.225 95.33 388.896 95.07 387.028 94.17L385.159 93.27L382.571 94.52Z" stroke="#263238" stroke-linecap="round" stroke-linejoin="round"/>
<path d="M386.757 63.5201C386.757 63.5201 388.625 72.6201 390.961 72.6201C393.296 72.6201 398.163 58.9301 398.163 58.9301L394.931 56.5601L386.757 63.5201Z" fill="white"/>
<path d="M381.553 55.7499C381.769 56.8874 382.114 57.9924 382.581 59.0399C384.178 62.2999 386.439 67.5899 389.438 66.7599C392.091 66.0299 396.024 61.7599 396.454 59.1999C396.691 57.7523 396.835 56.2888 396.883 54.8199L381.553 55.7499Z" fill="#263238" stroke="#263238" stroke-linecap="round" stroke-linejoin="round"/>
<path d="M386.757 63.5201C386.757 63.5201 388.625 72.6201 390.961 72.6201C393.296 72.6201 398.163 58.9301 398.163 58.9301L394.931 56.5601L386.757 63.5201Z" stroke="#263238" stroke-linecap="round" stroke-linejoin="round"/>
<path d="M382.329 36.81C382.329 36.81 375.64 38.81 376.826 49.97C378.059 61.61 379.629 57.09 378.937 59.48C378.246 61.87 388.821 62.07 388.821 62.07C388.821 62.07 398.06 60.85 400.863 63.01C403.666 65.17 405.291 60.01 404.207 56.56C403.124 53.11 399.238 46.67 398.126 41.46C396.528 34 386.486 34.2 382.329 36.81Z" fill="#263238" stroke="#263238" stroke-linecap="round" stroke-linejoin="round"/>
<path d="M380.301 46.23C380.301 46.23 380.301 54.49 381.852 57.85C383.403 61.21 385.449 66.62 388.625 66C391.428 65.43 395.865 61.44 396.463 58.89C396.821 57.3703 397.061 55.8218 397.182 54.26C397.528 54.1 398.612 54.99 399.107 52.07C399.294 51.01 400.237 47.88 398.088 47.42C395.762 46.94 395.781 50.52 395.781 50.52L392.362 41.2L384.459 39.78L381.815 41.07L380.301 46.23Z" fill="white" stroke="#263238" stroke-linecap="round" stroke-linejoin="round"/>
<path d="M385.29 54.27C385.169 55.3371 384.95 56.3888 384.636 57.41C384.592 57.5797 384.611 57.761 384.69 57.9158C384.768 58.0707 384.9 58.1869 385.056 58.24L386.673 58.75" stroke="#263238" stroke-linecap="round" stroke-linejoin="round"/>
<path d="M387.934 60.49C387.934 60.49 390.923 60.4 392.138 58.61" stroke="#263238" stroke-linecap="round" stroke-linejoin="round"/>
<path d="M381.721 51.7C381.791 51.5367 381.89 51.3898 382.012 51.2676C382.135 51.1455 382.279 51.0505 382.436 50.9883C382.594 50.926 382.761 50.8976 382.928 50.9048C383.096 50.9119 383.26 50.9545 383.412 51.03" stroke="#263238" stroke-linecap="round" stroke-linejoin="round"/>
<path d="M386.943 50.45C386.943 50.45 388.429 49.31 390.419 50.9" stroke="#263238" stroke-linecap="round" stroke-linejoin="round"/>
<path d="M383.347 54.22C383.403 54.66 383.291 55.06 383.076 55.09C382.861 55.12 382.646 54.78 382.581 54.33C382.515 53.88 382.646 53.49 382.852 53.46C383.057 53.43 383.281 53.77 383.347 54.22Z" fill="#263238"/>
<path d="M388.709 53.88C388.775 54.33 388.653 54.72 388.448 54.75C388.242 54.78 388.008 54.44 387.952 54C387.896 53.56 388.009 53.15 388.223 53.12C388.438 53.09 388.625 53.43 388.709 53.88Z" fill="#263238"/>
<path d="M379.797 41.2C379.797 41.2 377.209 48.49 381.002 48.3C384.795 48.11 388.018 45.5 391.792 47.65C395.566 49.8 391.194 43.65 391.194 43.65C391.194 43.65 395.052 48.04 394.931 51.07C394.809 54.1 396.313 49.2 396.071 47.59C395.828 45.98 393.296 38 393.296 38L389.204 37L382.198 37.77L379.797 41.2Z" fill="#263238" stroke="#263238" stroke-linecap="round" stroke-linejoin="round"/>
<path d="M396.753 57.69C396.5 58.86 392.549 63.04 395.164 63.91C397.78 64.78 403.479 63.91 404.338 60.8C405.198 57.69 402.47 56.05 402.47 56.05C402.47 56.05 397.08 56.13 396.753 57.69Z" fill="#263238" stroke="#263238" stroke-linecap="round" stroke-linejoin="round"/>
<path d="M397.341 91.71L388.662 92.17C388.662 92.17 381.366 90.26 378.891 90.42C376.965 90.664 375.092 91.2557 373.351 92.17C372.565 92.7949 371.96 93.644 371.604 94.62C371.532 95.1003 371.532 95.5898 371.604 96.07C371.603 96.3236 371.693 96.5679 371.854 96.7535C372.015 96.9392 372.237 97.0523 372.473 97.07C374.136 97.2 376.892 97.36 377.546 96.48C377.546 96.48 377.004 97.17 377.985 97.17C378.965 97.17 380.301 95.51 380.301 95.51L383.235 95.38C383.235 95.38 384.496 97.06 388.298 97.17C388.915 97.0741 389.52 96.903 390.101 96.66L397.154 97.66L398.088 96.37V92L397.341 91.71Z" fill="white" stroke="#263238" stroke-linecap="round" stroke-linejoin="round"/>
<path d="M372.931 96.36C372.931 96.36 373.743 93.24 374.678 92.62C375.5 92.1824 376.345 91.7951 377.209 91.46" stroke="#263238" stroke-linecap="round" stroke-linejoin="round"/>
<path d="M374.948 96.36C375.045 95.6247 375.247 94.9097 375.546 94.24C376.314 93.3216 377.274 92.6121 378.349 92.17C379.004 92.1028 379.664 92.1028 380.32 92.17" stroke="#263238" stroke-linecap="round" stroke-linejoin="round"/>
<path d="M377.742 95.78C377.742 95.78 378.003 94.45 378.33 94.17C378.937 93.7847 379.605 93.5236 380.301 93.4C380.818 93.3585 381.336 93.3585 381.852 93.4" stroke="#263238" stroke-linecap="round" stroke-linejoin="round"/>
<path d="M395.818 97.78C395.818 97.78 412.531 100.11 416.146 100.3C419.762 100.49 418.856 81.52 418.491 73.39C418.127 65.26 410.709 62.51 410.709 62.51C405.459 74.19 411.438 89.46 411.438 89.46L396.612 91.4C396.612 91.4 397.743 95.46 395.818 97.78Z" fill="#B24C8F" stroke="#263238" stroke-linecap="round" stroke-linejoin="round"/>
<path d="M404.376 70.1C404.578 74.0903 405.962 77.9079 408.327 81" stroke="#263238" stroke-linecap="round" stroke-linejoin="round"/>
<path d="M378.732 68.1801C378.029 71.8843 377.651 75.6506 377.602 79.4301" stroke="#263238" stroke-linecap="round" stroke-linejoin="round"/>
<path d="M367.746 73.59H364.009L369.156 99.53H372.893C373.141 99.5402 373.388 99.4874 373.613 99.3759C373.838 99.2644 374.035 99.0974 374.188 98.8886C374.341 98.6798 374.446 98.4351 374.494 98.1746C374.541 97.9141 374.531 97.6452 374.463 97.39L370.156 75.72C370.025 75.133 369.719 74.6077 369.284 74.2234C368.849 73.8391 368.309 73.6168 367.746 73.59Z" fill="#263238"/>
<path opacity="0.2" d="M367.746 73.59H364.009L369.156 99.53H372.893C373.141 99.5402 373.388 99.4874 373.613 99.3759C373.838 99.2644 374.035 99.0974 374.188 98.8886C374.341 98.6798 374.446 98.4351 374.494 98.1746C374.541 97.9141 374.531 97.6452 374.463 97.39L370.156 75.72C370.025 75.133 369.719 74.6077 369.284 74.2234C368.849 73.8391 368.309 73.6168 367.746 73.59Z" fill="white"/>
<path d="M367.746 73.59H364.009L369.156 99.53H372.893C373.141 99.5402 373.388 99.4874 373.613 99.3759C373.838 99.2644 374.035 99.0974 374.188 98.8886C374.341 98.6798 374.446 98.4351 374.494 98.1746C374.541 97.9141 374.531 97.6452 374.463 97.39L370.156 75.72C370.025 75.133 369.719 74.6077 369.284 74.2234C368.849 73.8391 368.309 73.6168 367.746 73.59Z" stroke="#263238" stroke-linecap="round" stroke-linejoin="round"/>
<path d="M374.472 97.39H394.09V98.39C394.09 98.545 394.062 98.6984 394.006 98.8416C393.951 98.9847 393.87 99.1148 393.767 99.2244C393.665 99.334 393.543 99.4209 393.41 99.4802C393.276 99.5395 393.133 99.57 392.988 99.57H375.546C375.402 99.57 375.258 99.5395 375.124 99.4802C374.991 99.4209 374.869 99.334 374.767 99.2244C374.664 99.1148 374.583 98.9847 374.528 98.8416C374.472 98.6984 374.444 98.545 374.444 98.39V97.39H374.472Z" fill="#263238"/>
<path opacity="0.2" d="M374.472 97.39H394.09V98.39C394.09 98.545 394.062 98.6984 394.006 98.8416C393.951 98.9847 393.87 99.1148 393.767 99.2244C393.665 99.334 393.543 99.4209 393.41 99.4802C393.276 99.5395 393.133 99.57 392.988 99.57H375.546C375.402 99.57 375.258 99.5395 375.124 99.4802C374.991 99.4209 374.869 99.334 374.767 99.2244C374.664 99.1148 374.583 98.9847 374.528 98.8416C374.472 98.6984 374.444 98.545 374.444 98.39V97.39H374.472Z" fill="white"/>
<path d="M374.472 97.39H394.09V98.39C394.09 98.545 394.062 98.6984 394.006 98.8416C393.951 98.9847 393.87 99.1148 393.767 99.2244C393.665 99.334 393.543 99.4209 393.41 99.4802C393.276 99.5395 393.133 99.57 392.988 99.57H375.546C375.402 99.57 375.258 99.5395 375.124 99.4802C374.991 99.4209 374.869 99.334 374.767 99.2244C374.664 99.1148 374.583 98.9847 374.528 98.8416C374.472 98.6984 374.444 98.545 374.444 98.39V97.39H374.472Z" stroke="#263238" stroke-linecap="round" stroke-linejoin="round"/>
<path d="M371.455 99.5299H341.075C340.509 99.503 339.967 99.2796 339.53 98.8935C339.094 98.5074 338.786 97.9796 338.655 97.3899L334.358 75.72C334.289 75.4652 334.278 75.1967 334.326 74.9365C334.374 74.6764 334.479 74.4322 334.632 74.2241C334.785 74.0159 334.983 73.8499 335.208 73.7396C335.433 73.6293 335.68 73.578 335.927 73.5899H366.307C366.871 73.6152 367.411 73.8369 367.847 74.2214C368.282 74.606 368.587 75.1322 368.717 75.72L373.024 97.3899C373.092 97.6452 373.103 97.9141 373.055 98.1746C373.007 98.4351 372.902 98.6798 372.749 98.8886C372.596 99.0974 372.399 99.2644 372.174 99.3759C371.949 99.4873 371.702 99.5401 371.455 99.5299Z" fill="#263238"/>
<path d="M371.455 99.5299H341.075C340.509 99.503 339.967 99.2796 339.53 98.8935C339.094 98.5074 338.786 97.9796 338.655 97.3899L334.358 75.72C334.289 75.4652 334.278 75.1967 334.326 74.9365C334.374 74.6764 334.479 74.4322 334.632 74.2241C334.785 74.0159 334.983 73.8499 335.208 73.7396C335.433 73.6293 335.68 73.578 335.927 73.5899H366.307C366.871 73.6152 367.411 73.8369 367.847 74.2214C368.282 74.606 368.587 75.1322 368.717 75.72L373.024 97.3899C373.092 97.6452 373.103 97.9141 373.055 98.1746C373.007 98.4351 372.902 98.6798 372.749 98.8886C372.596 99.0974 372.399 99.2644 372.174 99.3759C371.949 99.4873 371.702 99.5401 371.455 99.5299Z" fill="#BFBFBF" stroke="#263238" stroke-linecap="round" stroke-linejoin="round"/>
<path d="M371.455 99.5299H341.075C340.509 99.503 339.967 99.2796 339.53 98.8935C339.094 98.5074 338.786 97.9796 338.655 97.3899L334.358 75.72C334.289 75.4652 334.278 75.1967 334.326 74.9365C334.374 74.6764 334.479 74.4322 334.632 74.2241C334.785 74.0159 334.983 73.8499 335.208 73.7396C335.433 73.6293 335.68 73.578 335.927 73.5899H366.307C366.871 73.6152 367.411 73.8369 367.847 74.2214C368.282 74.606 368.587 75.1322 368.717 75.72L373.024 97.3899C373.092 97.6452 373.103 97.9141 373.055 98.1746C373.007 98.4351 372.902 98.6798 372.749 98.8886C372.596 99.0974 372.399 99.2644 372.174 99.3759C371.949 99.4873 371.702 99.5401 371.455 99.5299Z" stroke="#263238" stroke-linecap="round" stroke-linejoin="round"/>
<path d="M313.805 65.1499C312.379 65.0872 311.031 64.4365 310.043 63.3341C309.054 62.2317 308.502 60.7629 308.502 59.2349C308.502 57.707 309.054 56.2382 310.043 55.1358C311.031 54.0334 312.379 53.3827 313.805 53.3199H355.069C356.495 53.3827 357.843 54.0334 358.832 55.1358C359.82 56.2382 360.372 57.707 360.372 59.2349C360.372 60.7629 359.82 62.2317 358.832 63.3341C357.843 64.4365 356.495 65.0872 355.069 65.1499H313.805Z" fill="white"/>
<path d="M313.805 65.1499C312.379 65.0872 311.031 64.4365 310.043 63.3341C309.054 62.2317 308.502 60.7629 308.502 59.2349C308.502 57.707 309.054 56.2382 310.043 55.1358C311.031 54.0334 312.379 53.3827 313.805 53.3199H355.069C356.495 53.3827 357.843 54.0334 358.832 55.1358C359.82 56.2382 360.372 57.707 360.372 59.2349C360.372 60.7629 359.82 62.2317 358.832 63.3341C357.843 64.4365 356.495 65.0872 355.069 65.1499H313.805Z" stroke="#263238" stroke-miterlimit="10"/>
<path d="M338.487 55.34H313.805C312.872 55.3906 311.993 55.8231 311.349 56.548C310.705 57.2729 310.346 58.2348 310.346 59.235C310.346 60.2351 310.705 61.1971 311.349 61.922C311.993 62.6469 312.872 63.0793 313.805 63.13H336.805L338.487 55.34Z" fill="#B24C8F"/>
<path d="M337.814 152.33V99.52H404.506C404.507 100.182 404.386 100.837 404.149 101.448C403.911 102.06 403.563 102.614 403.124 103.08C402.688 103.548 402.169 103.919 401.598 104.172C401.028 104.424 400.416 104.553 399.798 104.55H344.718V160.18" stroke="#263238" stroke-linecap="round" stroke-linejoin="round"/>
<path d="M352.275 335.94H321.933C321.253 335.938 320.601 335.655 320.111 335.15C319.622 334.645 319.334 333.957 319.308 333.23L317.225 273.31C317.21 272.917 317.274 272.524 317.411 272.159C317.548 271.794 317.756 271.463 318.02 271.19C318.285 270.916 318.6 270.705 318.946 270.571C319.292 270.436 319.66 270.382 320.027 270.41L355.527 273.09C356.21 273.136 356.849 273.467 357.308 274.01C357.767 274.554 358.009 275.268 357.983 276L354.901 333.25C354.869 333.973 354.579 334.656 354.091 335.157C353.602 335.658 352.952 335.938 352.275 335.94Z" fill="#B24C8F" stroke="#263238" stroke-linecap="round" stroke-linejoin="round"/>
<path d="M330.752 300.18C330.969 299.369 331.119 298.539 331.2 297.7C331.2 297.16 330.92 295.96 330.49 295.7C330.06 295.44 327.846 295.87 327.846 295.87C327.846 295.87 328.369 294.02 328.014 293.6C327.659 293.18 326.529 293.35 326.09 293.6C325.371 293.95 324.502 295.49 324.016 296.16C323.428 296.98 322.4 298.73 321.849 299.57C321.587 299.99 320.765 301.23 320.765 301.23L314.011 303.81L314.375 311.13L321.989 306.21C321.989 306.21 328.818 306.21 330.256 304.56C330.957 303.7 330.593 301.25 330.752 300.18Z" fill="white" stroke="#263238" stroke-linecap="round" stroke-linejoin="round"/>
<path d="M319.766 285.36C319.383 291.16 318.57 297.25 316.916 300.75H319.719C319.719 300.75 317.178 305.62 318.785 310.22C318.785 310.22 311.068 315.77 309.349 312.22C307.63 308.67 309.62 294.32 311.386 287.42C313.151 280.52 313.693 269.92 319.99 270.42" fill="#B24C8F"/>
<path d="M319.766 285.36C319.383 291.16 318.57 297.25 316.916 300.75H319.719C319.719 300.75 317.178 305.62 318.785 310.22C318.785 310.22 311.068 315.77 309.349 312.22C307.63 308.67 309.62 294.32 311.386 287.42C313.151 280.52 313.693 269.92 319.99 270.42" stroke="#263238" stroke-linecap="round" stroke-linejoin="round"/>
<path d="M315.758 301.23C314.476 301.766 313.379 302.712 312.619 303.94" stroke="#263238" stroke-linecap="round" stroke-linejoin="round"/>
<path d="M330.826 282.39L332.097 282.21C332.304 282.179 332.515 282.192 332.718 282.249C332.921 282.306 333.111 282.405 333.278 282.54C333.444 282.676 333.584 282.846 333.689 283.04C333.795 283.233 333.863 283.448 333.891 283.67L335.32 294.9C335.349 295.123 335.337 295.349 335.284 295.567C335.231 295.784 335.138 295.988 335.012 296.168C334.885 296.347 334.727 296.498 334.545 296.611C334.364 296.725 334.164 296.799 333.956 296.83L332.685 297.01L330.826 282.39Z" fill="white" stroke="#263238" stroke-linecap="round" stroke-linejoin="round"/>
<path d="M328.665 297.605L332.858 296.993C333.855 296.847 334.553 295.865 334.417 294.797L333.047 284.037C332.911 282.97 331.993 282.223 330.996 282.368L326.803 282.98C325.806 283.125 325.108 284.108 325.244 285.175L326.614 295.936C326.75 297.003 327.668 297.75 328.665 297.605Z" fill="#BFBFBF"/>
<path d="M328.665 297.605L332.858 296.993C333.855 296.847 334.553 295.865 334.417 294.797L333.047 284.037C332.911 282.97 331.993 282.223 330.996 282.368L326.803 282.98C325.806 283.125 325.108 284.108 325.244 285.175L326.614 295.936C326.75 297.003 327.668 297.75 328.665 297.605Z" stroke="#263238" stroke-linecap="round" stroke-linejoin="round"/>
<path d="M326.211 284.82C326.222 284.901 326.247 284.979 326.286 285.049C326.324 285.119 326.375 285.181 326.436 285.23C326.497 285.279 326.566 285.315 326.64 285.336C326.713 285.356 326.79 285.361 326.865 285.35C326.941 285.339 327.014 285.312 327.079 285.271C327.145 285.229 327.202 285.175 327.248 285.11C327.294 285.045 327.328 284.971 327.347 284.892C327.366 284.813 327.371 284.731 327.361 284.65C327.337 284.488 327.256 284.342 327.134 284.243C327.012 284.144 326.859 284.1 326.707 284.12C326.631 284.131 326.558 284.158 326.493 284.199C326.427 284.24 326.369 284.295 326.323 284.36C326.277 284.425 326.244 284.499 326.225 284.578C326.205 284.657 326.201 284.739 326.211 284.82Z" fill="white" stroke="#263238" stroke-linecap="round" stroke-linejoin="round"/>
<path d="M327.276 295.89C327.145 295.057 327.083 294.214 327.09 293.37C327.183 292.83 327.547 291.67 328.024 291.43C328.5 291.19 330.64 291.92 330.64 291.92C330.64 291.92 330.303 290.01 330.705 289.64C331.107 289.27 332.209 289.57 332.573 289.83C333.255 290.26 333.956 291.9 334.367 292.62C334.862 293.51 335.703 295.36 336.161 296.27C336.385 296.72 337.095 298.04 337.095 298.04L343.13 301L340.327 306.43L335.376 302.85C335.376 302.85 328.584 302.02 327.323 300.22C326.707 299.35 327.323 297 327.276 295.89Z" fill="white" stroke="#263238" stroke-linecap="round" stroke-linejoin="round"/>
<path d="M354.994 276.17C355.144 275.45 355.302 274.74 355.48 274.04C355.516 273.859 355.599 273.692 355.718 273.558C355.838 273.424 355.99 273.328 356.158 273.281C356.326 273.235 356.502 273.239 356.668 273.293C356.834 273.348 356.982 273.45 357.096 273.59L357.33 273.86C358.567 275.271 359.456 276.989 359.917 278.86C361.561 285.53 365.121 302.29 362.598 314.59C362.454 315.281 362.086 315.894 361.559 316.323C361.033 316.751 360.381 316.966 359.721 316.93C355.097 316.63 347.007 315.39 338.16 306.01C338.16 306.01 340.028 301.32 342.224 299.71L354.462 305C353.881 300.313 353.606 295.588 353.639 290.86" fill="#B24C8F"/>
<path d="M354.994 276.17C355.144 275.45 355.302 274.74 355.48 274.04C355.516 273.859 355.599 273.692 355.718 273.558C355.838 273.424 355.99 273.328 356.158 273.281C356.326 273.235 356.502 273.239 356.668 273.293C356.834 273.348 356.982 273.45 357.096 273.59L357.33 273.86C358.567 275.271 359.456 276.989 359.917 278.86C361.561 285.53 365.121 302.29 362.598 314.59C362.454 315.281 362.086 315.894 361.559 316.323C361.033 316.751 360.381 316.966 359.721 316.93C355.097 316.63 347.007 315.39 338.16 306.01C338.16 306.01 340.028 301.32 342.224 299.71L354.462 305C353.881 300.313 353.606 295.588 353.639 290.86" stroke="#263238" stroke-linecap="round" stroke-linejoin="round"/>
<path d="M355.517 305.85C356.023 306.142 356.47 306.539 356.831 307.018C357.191 307.497 357.46 308.049 357.619 308.64" stroke="#263238" stroke-linecap="round" stroke-linejoin="round"/>
<path d="M339.047 262.81L346.997 249.16C346.997 249.16 351.117 247.33 348.912 244.98C348.912 244.98 352.453 238.42 347.857 238.42C347.857 238.42 347.268 233.09 342.821 235.24C342.821 235.24 338.954 230.32 336.366 233.91C336.366 233.91 331.06 231.14 329.696 234.62C329.696 234.62 325.819 234.62 325.959 237.7C325.959 237.7 323.521 241.18 326.735 241.59C326.735 241.59 325.885 244.36 329.687 244.36C333.489 244.36 338.179 249.36 338.179 249.36L339.113 254.48L339.047 262.81Z" fill="#263238" stroke="#263238" stroke-linecap="round" stroke-linejoin="round"/>
<path d="M344.223 272.41C344.223 272.41 335.581 277.49 329.276 270.98C329.276 270.98 330.864 267.78 331.415 259.83L340.579 258.08C340.315 260.784 340.409 263.514 340.86 266.19C341.467 269.22 343.12 272 344.223 272.41Z" fill="white"/>
<path d="M341.233 258.32L340.972 259.32C340.818 259.918 340.558 260.478 340.206 260.97C338.804 262.97 334.871 267.97 331.032 267.52C327.473 267.14 326.482 261.26 326.221 258.31L341.233 258.32Z" fill="#263238" stroke="#263238" stroke-linecap="round" stroke-linejoin="round"/>
<path d="M344.223 272.41C344.223 272.41 335.581 277.49 329.276 270.98C329.276 270.98 330.864 267.78 331.415 259.83L340.579 258.08C340.315 260.784 340.409 263.514 340.86 266.19C341.467 269.22 343.12 272 344.223 272.41Z" stroke="#263238" stroke-linecap="round" stroke-linejoin="round"/>
<path d="M327.482 242.92L326.034 247.86C325.874 248.382 325.829 248.936 325.903 249.48L326.109 250.94L325.352 254.19C325.315 254.358 325.287 254.528 325.268 254.7C325.109 256.41 324.493 265.53 329.005 266.7C332.994 267.7 337.852 263.1 339.608 261.23C340.045 260.766 340.394 260.216 340.635 259.61L341.644 257.15C342.221 257.241 342.809 257.138 343.328 256.855C343.847 256.572 344.271 256.123 344.54 255.57C345.475 253.57 346.689 252.44 344.886 251.06C343.083 249.68 341.943 252.48 341.943 252.48C341.943 252.48 341.999 248.96 341.57 247.9C341.14 246.84 339.655 245.61 339.271 244.69C339.083 243.977 338.958 243.247 338.898 242.51C338.898 242.51 332.732 242.69 328.351 240.9L327.482 242.92Z" fill="white" stroke="#263238" stroke-linecap="round" stroke-linejoin="round"/>
<path d="M327.482 242.92L326.034 247.86C325.874 248.382 325.829 248.936 325.903 249.48L326.109 250.94L325.352 254.19C325.315 254.358 325.287 254.528 325.268 254.7C325.109 256.41 324.493 265.53 329.005 266.7C332.994 267.7 337.852 263.1 339.608 261.23C340.045 260.766 340.394 260.216 340.635 259.61L341.644 257.15C342.221 257.241 342.809 257.138 343.328 256.855C343.847 256.572 344.271 256.123 344.54 255.57C345.475 253.57 346.689 252.44 344.886 251.06C343.083 249.68 341.943 252.48 341.943 252.48C341.943 252.48 341.999 248.96 341.57 247.9C341.14 246.84 339.655 245.61 339.271 244.69C339.083 243.977 338.958 243.247 338.898 242.51C338.898 242.51 332.732 242.69 328.351 240.9L327.482 242.92Z" fill="white" stroke="#263238" stroke-linecap="round" stroke-linejoin="round"/>
<path d="M330.35 252.68L328.089 256.57C328.026 256.7 327.989 256.843 327.983 256.99C327.977 257.136 328.001 257.283 328.054 257.418C328.106 257.554 328.186 257.675 328.288 257.774C328.389 257.873 328.509 257.947 328.64 257.99L330.63 258.49" stroke="#263238" stroke-linecap="round" stroke-linejoin="round"/>
<path d="M333.638 260.72C332.256 261.9 330.499 262.07 329.649 261.24" stroke="#263238" stroke-linecap="round" stroke-linejoin="round"/>
<path d="M333.395 254C333.311 254.58 333.031 255 332.77 255C332.508 255 332.377 254.45 332.471 253.88C332.564 253.31 332.835 252.88 333.096 252.88C333.358 252.88 333.508 253.45 333.395 254Z" fill="#263238"/>
<path d="M328.36 253.13C328.267 253.71 327.986 254.13 327.734 254.13C327.482 254.13 327.342 253.58 327.426 253.01C327.51 252.44 327.8 252.01 328.052 252.01C328.304 252.01 328.444 252.56 328.36 253.13Z" fill="#263238"/>
<path d="M326.249 249.64C326.318 249.395 326.437 249.17 326.598 248.981C326.759 248.792 326.957 248.644 327.179 248.548C327.4 248.452 327.639 248.411 327.877 248.427C328.116 248.443 328.348 248.515 328.556 248.64" stroke="#263238" stroke-linecap="round" stroke-linejoin="round"/>
<path d="M332.312 249C332.892 249.008 333.456 249.204 333.931 249.56C334.406 249.917 334.77 250.419 334.974 251" stroke="#263238" stroke-linecap="round" stroke-linejoin="round"/>
<path d="M340.738 242.43C340.738 242.43 335.684 246.37 335.086 243.52C335.086 243.52 330.882 244.6 330.602 243.09C330.602 243.09 326.398 244.89 325.931 243.49C325.464 242.09 329.285 238.37 329.285 238.37L338.169 239.58L340.738 242.43Z" fill="#263238" stroke="#263238" stroke-linecap="round" stroke-linejoin="round"/>
<path d="M330.415 237.58C329.849 238.783 329.139 239.902 328.304 240.91" stroke="#7F7F7F" stroke-linecap="round" stroke-linejoin="round"/>
<path d="M333.078 236.29C332.339 236.179 331.588 236.38 330.985 236.85" stroke="#7F7F7F" stroke-linecap="round" stroke-linejoin="round"/>
<path d="M343.363 239.6C340.906 239.35 340.561 241.6 336.759 241.47C333.171 241.31 334.834 238.34 334.264 236.97" stroke="#7F7F7F" stroke-linecap="round" stroke-linejoin="round"/>
<path d="M345.129 248.41C345.129 248.41 349.361 241.84 345.129 240.09" stroke="#7F7F7F" stroke-linecap="round" stroke-linejoin="round"/>
<path d="M314.562 455.43C313.688 455.731 312.886 456.234 312.213 456.903C311.54 457.571 311.012 458.39 310.666 459.3C310.599 459.459 310.571 459.635 310.587 459.809C310.602 459.983 310.66 460.15 310.755 460.293C310.849 460.435 310.977 460.549 311.126 460.622C311.274 460.695 311.438 460.726 311.601 460.71H325.343C325.607 460.713 325.863 460.613 326.064 460.429C326.265 460.246 326.397 459.99 326.436 459.71C326.661 457.865 326.429 455.989 325.763 454.27L326.52 445.21H318.495L317.878 453.88L314.562 455.43Z" fill="white" stroke="#263238" stroke-linecap="round" stroke-linejoin="round"/>
<path d="M323.315 455.34C324.754 457.49 324.399 454.27 325.726 454.27C326.391 455.989 326.623 457.865 326.398 459.71C326.36 459.99 326.228 460.245 326.027 460.429C325.826 460.613 325.57 460.713 325.305 460.71H311.563C311.401 460.726 311.237 460.695 311.088 460.622C310.94 460.549 310.812 460.435 310.717 460.292C310.623 460.15 310.565 459.983 310.55 459.809C310.534 459.635 310.561 459.459 310.629 459.3C310.975 458.389 311.503 457.571 312.176 456.903C312.849 456.234 313.651 455.731 314.525 455.43L317.804 453.88C317.804 453.88 321.886 453.19 323.315 455.34Z" fill="#BFBFBF" stroke="#263238" stroke-linecap="round" stroke-linejoin="round"/>
<path d="M326.436 459.4C326.436 459.51 326.436 459.62 326.436 459.71C326.397 459.99 326.265 460.246 326.064 460.429C325.863 460.613 325.607 460.713 325.343 460.71H311.563C311.414 460.717 311.266 460.685 311.13 460.618C310.995 460.551 310.876 460.45 310.785 460.324C310.693 460.197 310.631 460.049 310.604 459.892C310.577 459.735 310.586 459.573 310.629 459.42C311.563 459.42 312.217 459.42 312.217 459.42L326.436 459.4Z" fill="white" stroke="#263238" stroke-linecap="round" stroke-linejoin="round"/>
<path d="M320.214 334.67L317.411 450.67H327.314C327.314 450.67 330.378 421.67 330.733 411.91C330.892 407.55 331.723 399.91 332.003 395.51C332.499 387.62 333.648 378.83 336.478 363.51C336.936 361.04 339.711 356.77 340.299 354.32C341.448 349.55 341.934 334.64 341.934 334.64L320.214 334.67Z" fill="#263238" stroke="#263238" stroke-linecap="round" stroke-linejoin="round"/>
<path d="M327.08 403.5C327.08 403.5 324.819 406.7 321.681 406.27" stroke="#7F7F7F" stroke-linecap="round" stroke-linejoin="round"/>
<path d="M319.037 400.45C319.037 400.45 322.615 402.73 327.94 400.45" stroke="#7F7F7F" stroke-linecap="round" stroke-linejoin="round"/>
<path d="M362.841 455.43C364.121 456.03 366.092 456.92 366.84 459.61C366.871 459.74 366.874 459.876 366.849 460.007C366.824 460.138 366.771 460.262 366.694 460.368C366.618 460.474 366.519 460.56 366.407 460.619C366.294 460.679 366.171 460.71 366.046 460.71H352.304C351.977 460.71 351.661 460.582 351.417 460.35C351.172 460.117 351.016 459.797 350.977 459.45C350.812 457.687 351.056 455.908 351.687 454.27L350.921 445.21H358.955L359.562 453.88L362.841 455.43Z" fill="white" stroke="#263238" stroke-linecap="round" stroke-linejoin="round"/>
<path d="M366.84 459.61C366.871 459.74 366.874 459.876 366.849 460.007C366.824 460.138 366.771 460.262 366.694 460.368C366.617 460.474 366.519 460.56 366.407 460.619C366.294 460.679 366.171 460.71 366.046 460.71H352.304C351.977 460.71 351.661 460.582 351.417 460.35C351.172 460.117 351.016 459.797 350.977 459.45C350.812 457.687 351.056 455.908 351.687 454.27C352.976 454.04 352.145 457.03 354.265 455.19C356.386 453.35 359.562 453.88 359.562 453.88L362.841 455.43C364.121 456 366.092 456.92 366.84 459.61Z" fill="#BFBFBF" stroke="#263238" stroke-linecap="round" stroke-linejoin="round"/>
<path d="M366.765 459.4C366.765 459.48 366.821 459.54 366.84 459.61C366.871 459.74 366.874 459.876 366.849 460.007C366.824 460.138 366.771 460.262 366.694 460.368C366.617 460.474 366.519 460.56 366.407 460.619C366.294 460.679 366.171 460.71 366.046 460.71H352.304C351.977 460.71 351.661 460.582 351.417 460.35C351.172 460.117 351.016 459.797 350.977 459.45V459.4H366.765Z" fill="white" stroke="#263238" stroke-linecap="round" stroke-linejoin="round"/>
<path d="M353.948 334.69C353.948 334.69 355.349 346.22 355.555 350.09C355.667 352.38 355.48 356.98 355.555 359.27C355.816 368.09 356.844 385.72 357.656 394.49C358.077 399.11 359.674 408.26 359.964 412.89C360.562 422.32 359.964 450.71 359.964 450.71H350.015C350.015 450.71 345.979 418.71 344.933 407.97C344.559 404.16 340.43 366.3 337.618 358.05C337.086 356.47 335.871 353.82 335.367 352.23C334.36 348.895 333.629 345.472 333.181 342C333.031 340.18 332.928 334.71 332.928 334.71L353.948 334.69Z" fill="#263238" stroke="#263238" stroke-linecap="round" stroke-linejoin="round"/>
<path d="M355.779 399.16C355.779 399.16 353.91 402.79 347.371 402.79" stroke="#7F7F7F" stroke-linecap="round" stroke-linejoin="round"/>
<path d="M337.431 358.81C336.899 357.3 335.684 354.81 335.18 353.26C334.404 350.93 333.181 341.97 332.928 334.68" stroke="#7F7F7F" stroke-linecap="round" stroke-linejoin="round"/>
<path d="M346.362 410.68C348.26 420.752 351.956 430.337 357.245 438.91" stroke="#7F7F7F" stroke-linecap="round" stroke-linejoin="round"/>
<path d="M318.336 409.25C318.97 418.603 321.243 427.746 325.034 436.2" stroke="#7F7F7F" stroke-linecap="round" stroke-linejoin="round"/>
<path d="M345.11 259.53H370.502C372.492 259.53 374.108 262 374.108 265.05V274.24C374.108 277.24 372.492 279.75 370.502 279.75H350.248L342.074 285.57L345.11 279.75C343.12 279.75 341.514 277.28 341.514 274.24V265.05C341.514 262 343.12 259.53 345.11 259.53Z" fill="white" stroke="#263238" stroke-linecap="round" stroke-linejoin="round"/>
<path d="M368.381 265.17H346.904" stroke="#263238" stroke-linecap="round" stroke-linejoin="round"/>
<path d="M368.381 269.25H348.557" stroke="#263238" stroke-linecap="round" stroke-linejoin="round"/>
<path d="M368.381 273.34H346.904" stroke="#263238" stroke-linecap="round" stroke-linejoin="round"/>
<path d="M98.8378 297.29L48.5033 304.2C45.9235 304.554 43.3032 304.337 40.8052 303.561C38.3072 302.786 35.9849 301.468 33.9829 299.691C31.9808 297.914 30.3416 295.714 29.1674 293.23C27.9931 290.746 27.3088 288.029 27.157 285.25L22.2431 196.09C22.0755 193.088 22.5333 190.084 23.5834 187.295C24.6336 184.506 26.2497 182.001 28.315 179.963C30.3803 177.924 32.8431 176.403 35.5251 175.508C38.2072 174.613 41.0415 174.368 43.823 174.79L102.248 183.61C106.917 184.316 111.173 186.858 114.187 190.74C117.201 194.623 118.756 199.567 118.549 204.61L115.373 278.05C115.176 282.828 113.409 287.379 110.384 290.899C107.359 294.419 103.27 296.682 98.8378 297.29Z" fill="#B24C8F"/>
<path opacity="0.3" d="M115.373 278.09C115.167 282.861 113.397 287.402 110.372 290.914C107.348 294.426 103.264 296.683 98.8378 297.29L48.5033 304.2C45.9235 304.554 43.3032 304.337 40.8052 303.561C38.3072 302.786 35.9849 301.468 33.9829 299.691C31.9808 297.914 30.3416 295.714 29.1674 293.23C27.9931 290.746 27.3088 288.029 27.157 285.25L22.2431 196.09C22.0755 193.088 22.5333 190.084 23.5834 187.295C24.6336 184.506 26.2497 182.001 28.315 179.963C30.3803 177.924 32.8431 176.403 35.5251 175.508C38.2072 174.613 41.0415 174.368 43.823 174.79L102.248 183.61C106.917 184.316 111.173 186.858 114.187 190.74C117.201 194.623 118.756 199.567 118.549 204.61L115.373 278.09Z" fill="white"/>
<path d="M40.516 207.79H63.9363C64.998 207.881 65.9961 208.368 66.7561 209.167C67.516 209.966 67.9894 211.025 68.0934 212.16L73.6145 265.45C73.8242 267.51 74.7376 269.414 76.1792 270.796C77.6208 272.179 79.4888 272.942 81.4244 272.94" stroke="#263238" stroke-linecap="round" stroke-linejoin="round"/>
<path d="M104.163 279.65V284.56H48.5781C46.6032 284.559 44.7011 283.762 43.2504 282.328C41.7997 280.894 40.9068 278.927 40.7495 276.82L35.9197 212.87C35.8713 212.202 35.9561 211.532 36.1685 210.902C36.3809 210.272 36.716 209.698 37.1516 209.218C37.5872 208.737 38.1133 208.361 38.695 208.115C39.2766 207.869 39.9005 207.758 40.5253 207.79C41.586 207.881 42.5829 208.369 43.3413 209.168C44.0997 209.967 44.5712 211.026 44.6731 212.16L50.1942 265.45C50.4082 267.511 51.3255 269.416 52.7701 270.798C54.2148 272.18 56.0852 272.943 58.0228 272.94H97.9035C99.5644 272.943 101.156 273.651 102.33 274.909C103.504 276.167 104.163 277.872 104.163 279.65V279.65Z" stroke="#263238" stroke-linecap="round" stroke-linejoin="round"/>
<path d="M92.0648 331.83H77.8651V282.83H70.541V331.83H56.3412C55.1644 331.83 54.0357 332.33 53.2035 333.221C52.3713 334.112 51.9038 335.32 51.9038 336.58H96.5023C96.5035 335.956 96.3896 335.338 96.167 334.761C95.9444 334.184 95.6176 333.66 95.2053 333.218C94.793 332.777 94.3034 332.427 93.7644 332.189C93.2255 331.951 92.6479 331.829 92.0648 331.83V331.83Z" stroke="#263238" stroke-linecap="round" stroke-linejoin="round"/>
<path d="M77.8651 300.18V284.56H70.541V301.17" stroke="#263238" stroke-linecap="round" stroke-linejoin="round"/>
<path d="M103.64 318.17L104.35 328.98L111.982 328.74L111.561 317.07L103.64 318.17Z" fill="white" stroke="#263238" stroke-linecap="round" stroke-linejoin="round"/>
<path d="M103.789 333C103.789 333 116.055 333.53 120.1 333C121.361 332.84 124.304 332.81 125.023 331.69C125.378 331.15 124.743 329.08 124.743 329.08L118.344 327L113.925 324.4C113.583 324.196 113.19 324.113 112.801 324.161C112.412 324.21 112.047 324.388 111.758 324.67L111.253 325.16C111.045 325.362 110.883 325.612 110.778 325.891C110.673 326.169 110.628 326.47 110.646 326.77V327L109.917 326.46C109.602 326.225 109.227 326.099 108.843 326.1H103.565C102.643 327.725 102.206 329.612 102.313 331.51C102.33 331.915 102.493 332.297 102.769 332.575C103.044 332.853 103.41 333.006 103.789 333Z" fill="#263238" stroke="#263238" stroke-linecap="round" stroke-linejoin="round"/>
<path d="M78.9955 305.71L73.9321 314.65L80.0791 319.49L85.8805 310.07L78.9955 305.71Z" fill="white" stroke="#263238" stroke-linecap="round" stroke-linejoin="round"/>
<path d="M100.248 266C100.248 266 91.8967 270.16 76.5292 308.6C77.372 310.08 78.5084 311.343 79.8581 312.301C81.2077 313.258 82.7375 313.886 84.3391 314.14C84.3391 314.14 121.072 265.68 116.382 257.14C111.982 249.14 71.1016 252.14 71.1016 252.14L71.6341 271.34C71.6341 271.34 96.2221 270 100.248 266Z" fill="#B24C8F" stroke="#263238" stroke-linecap="round" stroke-linejoin="round"/>
<path d="M81.5271 162.51C81.5271 162.51 74.1844 156.6 67.0004 161.72C59.8165 166.84 55.2669 178.94 59.1065 183.72C60.2667 185.13 61.7096 186.241 63.3273 186.97C64.9449 187.699 66.6956 188.027 68.4484 187.93C68.4484 187.93 75.7258 193.93 78.7246 192.93C81.7233 191.93 86.8053 183.59 87.0295 176.12C87.2538 168.65 89.5145 163.14 81.5271 162.51Z" fill="#263238" stroke="#263238" stroke-linecap="round" stroke-linejoin="round"/>
<path d="M74.2217 189C74.2217 189 72.1852 192 72.288 194.56L62.7031 191C62.7031 191 66.7108 184.77 67.6637 178.67C68.6166 172.57 74.2217 189 74.2217 189Z" fill="white"/>
<path d="M67.4489 181.44C67.5983 184.53 68.383 185.84 70.7839 188.44C73.5865 191.44 75.3895 193.86 79.4533 188.44C82.1437 184.84 82.9752 182.55 83.19 181.44H67.4489Z" fill="#263238" stroke="#263238" stroke-linecap="round" stroke-linejoin="round"/>
<path d="M74.2217 189C74.2217 189 72.1852 192 72.288 194.56L62.7031 191C62.7031 191 66.7108 184.77 67.6637 178.67C68.6166 172.57 74.2217 189 74.2217 189Z" stroke="#263238" stroke-linecap="round" stroke-linejoin="round"/>
<path d="M53.1743 253.32C53.1743 253.32 46.0744 269.91 58.0414 272.67C70.0085 275.43 95.2878 269.41 95.2878 269.41C95.2878 269.41 97.343 290.83 103.172 321.93C106.35 322.253 109.556 321.979 112.645 321.12C112.645 321.12 112.281 263.22 107.404 256.12C102.528 249.02 66.0195 249.57 53.1743 253.32Z" fill="#B24C8F" stroke="#263238" stroke-linecap="round" stroke-linejoin="round"/>
<path d="M51.3806 253.34C51.3806 253.34 53.1462 255.46 64.861 251.22L79.6213 250.61C79.6213 250.61 85.1331 223.89 83.3581 213.94C82.3662 208.162 81.0433 202.454 79.3971 196.85C71.5819 193.683 63.1972 192.455 54.8745 193.26C54.4237 193.308 54.0091 193.546 53.7218 193.921C53.4346 194.296 53.2981 194.777 53.3424 195.26C54.0711 202.7 56.2291 227 51.3806 253.34Z" fill="#263238" stroke="#263238" stroke-linecap="round" stroke-linejoin="round"/>
<path d="M79.4718 196.85C79.4718 196.85 85.6002 198.31 85.6002 206.13C85.6002 213.95 84.8902 226.65 84.8902 226.65L92.8121 238.14C92.8121 238.14 89.421 240.14 88.9072 243.53C88.9072 243.53 77.0616 233.1 76.389 229.53C75.7164 225.96 79.4718 196.85 79.4718 196.85Z" fill="#263238" stroke="#263238" stroke-linecap="round" stroke-linejoin="round"/>
<path d="M80.7424 224.66L81.3309 226.99L79.6961 225.33L74.8009 216.51C74.7187 216.36 74.6951 216.181 74.7354 216.013C74.7756 215.844 74.8764 215.699 75.0158 215.61C75.156 215.522 75.3229 215.497 75.4804 215.54C75.6378 215.583 75.773 215.691 75.8566 215.84L80.7424 224.66Z" fill="white" stroke="#263238" stroke-linecap="round" stroke-linejoin="round"/>
<path d="M67.972 226.11C69.4044 225.047 70.6878 223.771 71.7835 222.32C73.3249 220.16 73.8387 218.89 75.0532 219.32C76.2676 219.75 80.6584 221 80.0044 222.5C80.0255 223.142 79.8298 223.77 79.4533 224.27C79.1465 224.946 78.6991 225.538 78.1454 226C77.2766 226.68 76.9963 226.39 76.9963 226.39C76.9963 226.39 76.3891 226.93 75.9967 226.79C75.9967 226.79 75.0625 228.54 71.933 229.21L63.5252 233.05L62.6658 227.27L67.972 226.11Z" fill="white" stroke="#263238" stroke-linecap="round" stroke-linejoin="round"/>
<path d="M73.8948 221.27C74.266 221.639 74.666 221.974 75.0905 222.27C75.6604 222.65 77.6596 223.77 77.5942 224.48C77.5288 225.19 76.1648 226.57 75.7258 226.48C75.2867 226.39 73.7173 225.76 73.7546 225.38C73.6115 225.676 73.5107 225.992 73.4557 226.32C73.454 226.762 73.3706 227.198 73.2103 227.605C73.0499 228.012 72.8158 228.381 72.5215 228.69" stroke="#263238" stroke-linecap="round" stroke-linejoin="round"/>
<path d="M79.4532 224.28C79.3522 223.898 79.1225 223.571 78.8086 223.36C77.8163 222.753 76.8782 222.05 76.006 221.26" stroke="#263238" stroke-linecap="round" stroke-linejoin="round"/>
<path d="M80.0044 222.51C79.7841 222.276 79.5359 222.074 79.2664 221.91C78.2437 221.173 77.162 220.533 76.0341 220" stroke="#263238" stroke-linecap="round" stroke-linejoin="round"/>
<path d="M74.203 224.94C74.203 224.94 74.8663 224.69 75.1372 224.94C75.4081 225.19 75.3707 225.54 75.6697 225.88" stroke="#263238" stroke-linecap="round" stroke-linejoin="round"/>
<path d="M75.1092 224.92C74.6986 224.622 74.349 224.237 74.0815 223.79" stroke="#263238" stroke-linecap="round" stroke-linejoin="round"/>
<path d="M55.706 216.11C55.5846 218.61 54.3421 228.79 54.3421 228.79C58.4621 227.358 62.701 226.354 67.0004 225.79C67.0004 225.79 66.3465 228.47 68.2616 232.3C68.2616 232.3 50.6427 239.7 47.018 238.91C43.3933 238.12 43.9819 229.75 45.3738 211.16C46.7658 192.57 54.9493 193.27 54.9493 193.27" fill="#263238"/>
<path d="M55.706 216.11C55.5846 218.61 54.3421 228.79 54.3421 228.79C58.4621 227.358 62.701 226.354 67.0004 225.79C67.0004 225.79 66.3465 228.47 68.2616 232.3C68.2616 232.3 50.6427 239.7 47.018 238.91C43.3933 238.12 43.9819 229.75 45.3738 211.16C46.7658 192.57 54.9493 193.27 54.9493 193.27" stroke="#263238" stroke-linecap="round" stroke-linejoin="round"/>
<path d="M67.4862 232.29C67.4862 232.29 60.2742 235.29 54.1272 237.29" stroke="#7F7F7F" stroke-linecap="round" stroke-linejoin="round"/>
<path d="M54.9306 216.11C54.8091 218.61 53.5667 228.79 53.5667 228.79C57.6833 227.358 61.9192 226.353 66.2156 225.79" stroke="#7F7F7F" stroke-linecap="round" stroke-linejoin="round"/>
<path d="M60.5264 193C60.5264 193 62.5909 191.65 62.5909 189.86C62.5909 188.07 71.8114 193.28 73.9227 192.98C76.034 192.68 74.8569 194.63 74.6327 195.18C74.1002 197 72.5681 199.25 60.5264 193Z" fill="#263238" stroke="#263238" stroke-linecap="round" stroke-linejoin="round"/>
<path d="M74.6234 195.18C74.0816 196.86 72.6803 199.01 62.3014 193.94" stroke="#7F7F7F" stroke-linecap="round" stroke-linejoin="round"/>
<path d="M84.5632 173.14L83.629 179.35C83.629 179.35 83.7878 181.83 79.7334 187.25C75.679 192.67 73.848 190.25 71.0641 187.25C68.2802 184.25 67.6823 182.95 67.701 178.66C67.701 178.66 66.2717 178.44 65.3935 175.66C64.5154 172.88 67.7197 171.8 68.5324 173.57L73.3248 171L76.3143 167.15L78.0238 164.71L81.5271 166.11L85.2638 168.51L84.5632 173.14Z" fill="white" stroke="#263238" stroke-linecap="round" stroke-linejoin="round"/>
<path d="M80.2753 179.55C80.2753 179.55 78.7806 181.19 80.0325 182.77C81.7233 184.92 78.1641 184.26 78.1641 184.9" stroke="#263238" stroke-linecap="round" stroke-linejoin="round"/>
<path d="M76.2864 185.61C76.2864 185.61 75.1373 185.92 73.1475 183.8" stroke="#263238" stroke-linecap="round" stroke-linejoin="round"/>
<path d="M76.9402 179.21C76.7253 179.74 76.389 180.1 76.1928 180.01C75.9966 179.92 76.0153 179.41 76.1928 178.88C76.3703 178.35 76.744 177.99 76.9402 178.08C77.1364 178.17 77.1551 178.67 76.9402 179.21Z" fill="#263238"/>
<path d="M81.3216 181.34C81.1348 181.82 80.8358 182.14 80.6583 182.06C80.4808 181.98 80.4902 181.52 80.6583 181.06C80.8265 180.6 81.1441 180.25 81.3216 180.34C81.4991 180.43 81.5178 180.86 81.3216 181.34Z" fill="#263238"/>
<path d="M79.3224 175.23C78.8534 174.863 78.2874 174.665 77.7062 174.665C77.1251 174.665 76.5591 174.863 76.0901 175.23" stroke="#263238" stroke-linecap="round" stroke-linejoin="round"/>
<path d="M82.3398 177.06C82.5724 177.145 82.7805 177.293 82.9441 177.489C83.1078 177.685 83.2214 177.923 83.274 178.18" stroke="#263238" stroke-linecap="round" stroke-linejoin="round"/>
<path d="M68.766 171C68.766 171 66.664 176.72 69.5694 179.2C69.5694 179.2 71.9796 171.83 76.9682 171C81.9568 170.17 84.0027 168.51 84.0027 168.51C84.0027 168.51 83.4048 175.79 84.7687 177.58C86.1327 179.37 86.1046 169.2 86.1046 169.2L84.7687 165.71L77.5381 162.66L71.3444 165.77L68.766 171Z" fill="#263238" stroke="#263238" stroke-linecap="round" stroke-linejoin="round"/>
<path d="M67.4862 179.62C67.4862 179.62 66.4959 185.98 68.766 186.62C71.0361 187.26 65.515 187.38 62.6564 185.97C59.7978 184.56 66.4399 178.83 66.4399 178.83L67.4862 179.62Z" fill="#263238" stroke="#263238" stroke-linecap="round" stroke-linejoin="round"/>
<path d="M80.4901 224.3H81.5644L77.9958 248.44H76.9215C76.7814 248.443 76.6424 248.412 76.5149 248.35C76.3874 248.288 76.2746 248.196 76.1849 248.08C76.0952 247.965 76.0309 247.83 75.9966 247.684C75.9624 247.539 75.9592 247.387 75.9873 247.24L79.2009 225.5C79.2576 225.173 79.4159 224.877 79.65 224.659C79.8841 224.441 80.1802 224.315 80.4901 224.3Z" fill="white" stroke="#263238" stroke-linecap="round" stroke-linejoin="round"/>
<path d="M77.6595 248.44H90.7382C91.0508 248.431 91.3509 248.307 91.5876 248.088C91.8243 247.869 91.983 247.57 92.0368 247.24L95.2504 225.5C95.2785 225.353 95.2753 225.201 95.2411 225.056C95.2069 224.91 95.1425 224.775 95.0528 224.66C94.9631 224.544 94.8503 224.452 94.7228 224.39C94.5953 224.328 94.4563 224.297 94.3162 224.3H81.2748C80.9628 224.311 80.6636 224.436 80.4273 224.654C80.1909 224.873 80.0318 225.171 79.9763 225.5L76.7627 247.24C76.7353 247.384 76.7377 247.532 76.7698 247.675C76.8019 247.817 76.8629 247.95 76.9485 248.065C77.0341 248.179 77.1421 248.272 77.265 248.337C77.3879 248.402 77.5226 248.437 77.6595 248.44Z" fill="white" stroke="#263238" stroke-linecap="round" stroke-linejoin="round"/>
<path d="M91.4109 228.56H92.5973C92.7965 228.554 92.9874 228.473 93.1374 228.333C93.2873 228.192 93.387 228 93.4194 227.79L93.6156 226.52C93.6325 226.426 93.6293 226.328 93.6063 226.236C93.5833 226.143 93.5411 226.057 93.4828 225.984C93.4244 225.911 93.3515 225.853 93.2694 225.814C93.1873 225.775 93.0981 225.757 93.0084 225.76H91.822C91.6235 225.767 91.4333 225.847 91.2823 225.985C91.1313 226.123 91.0284 226.311 90.9905 226.52L90.8037 227.79C90.7852 227.885 90.7872 227.983 90.8094 228.077C90.8317 228.172 90.8736 228.259 90.9322 228.333C90.9907 228.407 91.0642 228.466 91.1471 228.506C91.2301 228.545 91.3203 228.564 91.4109 228.56V228.56Z" stroke="#263238" stroke-linecap="round" stroke-linejoin="round"/>
<path d="M91.7378 227.16C91.7265 227.222 91.7285 227.287 91.7437 227.348C91.7588 227.409 91.7868 227.466 91.8255 227.514C91.8641 227.562 91.9125 227.6 91.9669 227.626C92.0213 227.651 92.0803 227.663 92.1395 227.66C92.2686 227.652 92.3916 227.599 92.4896 227.508C92.5875 227.418 92.6549 227.295 92.6814 227.16C92.6925 227.097 92.6904 227.033 92.6753 226.971C92.6601 226.909 92.6323 226.852 92.5938 226.803C92.5553 226.754 92.5072 226.715 92.4528 226.688C92.3985 226.662 92.3394 226.649 92.2797 226.65C92.1493 226.659 92.0253 226.713 91.9272 226.806C91.8291 226.898 91.7625 227.023 91.7378 227.16V227.16Z" stroke="#263238" stroke-linecap="round" stroke-linejoin="round"/>
<path d="M92.6254 240.4C92.6254 240.4 93.8678 236.52 94.7927 237.4C95.5214 238.11 94.2789 240.4 94.2789 240.4H92.6254Z" fill="white" stroke="#263238" stroke-linecap="round" stroke-linejoin="round"/>
<path d="M95.6522 241.9C95.8671 241.46 96.5864 240.45 96.3061 240.03C95.8484 239.25 93.7091 239.44 92.887 239.7C92.3546 239.816 91.8533 240.059 91.4203 240.41C91.2989 240.59 91.1307 241.12 91.2708 241.28C91.411 241.44 92.3358 241.15 92.6908 241.14C93.3198 241.195 93.9442 241.298 94.5592 241.45C93.8627 241.684 93.1507 241.861 92.4292 241.98C91.6819 241.98 88.9447 241.49 89.6266 243.19C89.6266 243.19 88.6177 243.52 89.1969 244.33C89.7761 245.14 91.7379 245.07 91.7379 245.07C91.2905 245.204 90.8292 245.278 90.3647 245.29C89.5799 245.29 88.9727 244.65 88.898 245.1C88.7859 245.79 89.3744 246.37 90.2058 246.7C90.6133 246.886 91.0519 246.983 91.495 246.983C91.9382 246.983 92.3767 246.886 92.7842 246.7C94.1762 246.16 95.0543 243.17 95.6522 241.9Z" fill="white" stroke="#263238" stroke-linecap="round" stroke-linejoin="round"/>
<path d="M90.2524 243.45C90.9761 243.619 91.7095 243.736 92.4478 243.8C92.9579 243.811 93.4644 243.705 93.9332 243.49" stroke="#263238" stroke-linecap="round" stroke-linejoin="round"/>
<path d="M83.8999 222.78C84.1405 219.834 84.0684 216.869 83.6851 213.94C82.6574 208.06 81.4617 203.15 80.6489 200.13" stroke="#7F7F7F" stroke-linecap="round" stroke-linejoin="round"/>
<path d="M70.457 316.69C70.457 316.69 78.762 326.32 81.9569 329C82.9565 329.84 85.0491 332 86.2822 331.81C86.8894 331.7 87.7956 329.76 87.7956 329.76L84.6661 323.46L83.2461 318.3C83.1378 317.9 82.9158 317.547 82.611 317.289C82.3063 317.031 81.934 316.881 81.5459 316.86H80.8639C80.5876 316.846 80.3118 316.898 80.0566 317.012C79.8013 317.126 79.5729 317.3 79.3879 317.52L79.2384 317.7L79.0796 316.76C79.0106 316.358 78.828 315.988 78.5564 315.7L74.8196 311.7C73.1095 312.145 71.5676 313.139 70.4009 314.55C70.1492 314.845 70.0143 315.233 70.0247 315.632C70.0352 316.031 70.1902 316.411 70.457 316.69Z" fill="#263238" stroke="#263238" stroke-linecap="round" stroke-linejoin="round"/>
<path d="M96.3528 267.12C96.3528 267.12 98.9872 263.24 100.435 262.47" stroke="#263238" stroke-linecap="round" stroke-linejoin="round"/>
<path d="M90.9719 147.12C90.4973 147.113 90.0431 146.913 89.7014 146.56C86.0023 142.608 80.9895 140.388 75.7632 140.388C70.5369 140.388 65.5241 142.608 61.825 146.56C61.4864 146.911 61.0325 147.105 60.5613 147.1C60.0901 147.096 59.6395 146.893 59.307 146.535C58.9744 146.178 58.7865 145.695 58.784 145.191C58.7814 144.686 58.9644 144.201 59.2933 143.84C63.6696 139.181 69.5909 136.565 75.7632 136.565C81.9355 136.565 87.8568 139.181 92.233 143.84C92.4842 144.108 92.6556 144.45 92.7254 144.822C92.7953 145.194 92.7606 145.58 92.6256 145.931C92.4906 146.282 92.2615 146.582 91.9672 146.794C91.6728 147.005 91.3265 147.119 90.9719 147.12Z" fill="#B24C8F" stroke="#263238" stroke-linecap="round" stroke-linejoin="round"/>
<path d="M86.1981 152.23C85.9617 152.229 85.7278 152.179 85.5097 152.081C85.2917 151.983 85.0939 151.84 84.9276 151.66C82.4963 149.06 79.2 147.599 75.7632 147.599C72.3264 147.599 69.0301 149.06 66.5987 151.66C66.4462 151.88 66.2513 152.063 66.0273 152.196C65.8033 152.329 65.5553 152.409 65.3 152.43C65.0447 152.452 64.788 152.415 64.5472 152.321C64.3064 152.228 64.0871 152.081 63.904 151.889C63.7208 151.697 63.5782 151.466 63.4856 151.21C63.3931 150.955 63.3527 150.681 63.3673 150.407C63.3819 150.133 63.451 149.866 63.5701 149.623C63.6892 149.381 63.8555 149.168 64.0577 149C65.5949 147.354 67.4198 146.049 69.4282 145.159C71.4367 144.268 73.5893 143.81 75.7632 143.81C77.9371 143.81 80.0897 144.268 82.0981 145.159C84.1066 146.049 85.9315 147.354 87.4686 149C87.7159 149.27 87.8835 149.612 87.9505 149.984C88.0175 150.355 87.9811 150.74 87.8457 151.089C87.7104 151.439 87.482 151.738 87.1891 151.95C86.8962 152.161 86.5516 152.276 86.1981 152.28V152.23Z" fill="#B24C8F" stroke="#263238" stroke-linecap="round" stroke-linejoin="round"/>
<path d="M82.0223 156.7C81.7861 156.703 81.5518 156.656 81.3334 156.559C81.115 156.463 80.9172 156.32 80.7517 156.14C79.4265 154.728 77.6329 153.936 75.7631 153.936C73.8934 153.936 72.0998 154.728 70.7745 156.14C70.4324 156.463 69.988 156.635 69.5319 156.619C69.0757 156.604 68.6422 156.403 68.3195 156.058C67.9969 155.713 67.8093 155.248 67.7951 154.76C67.7808 154.272 67.941 153.796 68.2429 153.43C70.2393 151.299 72.9437 150.102 75.7631 150.102C78.5826 150.102 81.287 151.299 83.2834 153.43C83.4503 153.608 83.5828 153.819 83.6732 154.051C83.7636 154.284 83.8102 154.533 83.8102 154.785C83.8102 155.037 83.7636 155.286 83.6732 155.519C83.5828 155.751 83.4503 155.963 83.2834 156.14C83.1191 156.319 82.9227 156.461 82.7061 156.557C82.4894 156.654 82.2568 156.702 82.0223 156.7Z" fill="#B24C8F" stroke="#263238" stroke-linecap="round" stroke-linejoin="round"/>
</svg>
