<svg width="470" height="424" viewBox="0 0 470 424" fill="none" xmlns="http://www.w3.org/2000/svg">
<path d="M115.929 78.6011L386.681 241.755L298.14 343.818L115.929 78.6011Z" fill="#FFEBC5"/>
<g clip-path="url(#clip0_14_32)">
<path d="M37.7574 86.0758C37.2678 85.9477 36.7966 85.7864 36.3404 85.6L41.2763 122.046L9.97833 125.274L7.13269 136.146L75.9908 154.168L78.8365 143.296L53.0278 125.075L47.4772 84.0914C44.815 86.1479 41.2638 86.9935 37.7574 86.0758Z" fill="#565659"/>
<path d="M46.1663 65.4381C45.3311 64.9628 44.4221 64.5863 43.4486 64.3315C37.4442 62.7599 31.3022 66.3537 29.7307 72.3582C28.2872 77.8734 31.2031 83.5014 36.3403 85.6003C36.796 85.787 37.2677 85.948 37.7574 86.0762C41.2637 86.9939 44.8149 86.1482 47.4775 84.0919C49.3747 82.6267 50.8214 80.5479 51.4753 78.0494C51.7301 77.076 51.8473 76.0987 51.842 75.1381C51.8209 71.1336 49.6465 67.4174 46.1663 65.4381Z" fill="#ACABB1"/>
<path d="M100.666 23.9984C96.4865 16.8554 87.3074 14.453 80.1651 18.6327C73.0222 22.8122 70.6199 31.9906 74.7994 39.1335L75.1381 39.7124L101.004 24.5768L100.666 23.9984Z" fill="#ACABB1"/>
<path d="M127.749 70.0883L102.716 84.7357C102.739 84.7758 102.759 84.8167 102.783 84.8565C106.829 91.7717 115.713 94.097 122.628 90.0506C129.542 86.0049 131.868 77.1208 127.822 70.2057C127.799 70.1655 127.773 70.1278 127.749 70.0883Z" fill="#FFDA44"/>
<path d="M143.831 60.6791L114.73 77.7056L101.315 54.7782L81.9149 66.1303L81.9144 66.1294L85.6298 94.7332L102.716 84.7358L127.749 70.0884L143.831 60.6791Z" fill="#CDCDD0"/>
<path d="M120.714 43.4267L101.315 54.7781L114.73 77.7055L143.831 60.679L120.715 43.4259L120.714 43.4262L120.714 43.4267Z" fill="#ACABB1"/>
<path d="M101.315 54.7782L120.714 43.4267L120.714 43.4262L107.471 20.793L101.004 24.5767L75.1378 39.7124L68.671 43.4965L72.4952 50.0322L46.1658 65.4381C49.6459 67.4178 51.8207 71.134 51.8415 75.1381L78.1709 59.7322L81.914 66.1293L81.9145 66.1302L101.315 54.7782Z" fill="#565659"/>
</g>
<defs>
<clipPath id="clip0_14_32">
<rect width="137" height="137" fill="white" transform="translate(30.2778 0.589111) rotate(14.6671)"/>
</clipPath>
</defs>
</svg>
