<svg width="201" height="55" viewBox="0 0 201 55" fill="none" xmlns="http://www.w3.org/2000/svg">
<g filter="url(#filter0_d_13_376)">
<path d="M64.376 30.832C64.376 28.656 64.8667 26.704 65.848 24.976C66.8293 23.2267 68.1627 21.8613 69.848 20.88C71.5547 19.8987 73.4427 19.408 75.512 19.408C77.944 19.408 80.0667 19.9947 81.88 21.168C83.6933 22.3413 85.016 24.0053 85.848 26.16H82.36C81.7413 24.816 80.8453 23.7813 79.672 23.056C78.52 22.3307 77.1333 21.968 75.512 21.968C73.9547 21.968 72.5573 22.3307 71.32 23.056C70.0827 23.7813 69.112 24.816 68.408 26.16C67.704 27.4827 67.352 29.04 67.352 30.832C67.352 32.6027 67.704 34.16 68.408 35.504C69.112 36.8267 70.0827 37.8507 71.32 38.576C72.5573 39.3013 73.9547 39.664 75.512 39.664C77.1333 39.664 78.52 39.312 79.672 38.608C80.8453 37.8827 81.7413 36.848 82.36 35.504H85.848C85.016 37.6373 83.6933 39.2907 81.88 40.464C80.0667 41.616 77.944 42.192 75.512 42.192C73.4427 42.192 71.5547 41.712 69.848 40.752C68.1627 39.7707 66.8293 38.416 65.848 36.688C64.8667 34.96 64.376 33.008 64.376 30.832ZM97.8308 42.288C96.1881 42.288 94.6948 41.9147 93.3508 41.168C92.0281 40.4213 90.9828 39.3653 90.2148 38C89.4681 36.6133 89.0948 35.0133 89.0948 33.2C89.0948 31.408 89.4788 29.8293 90.2468 28.464C91.0361 27.0773 92.1028 26.0213 93.4468 25.296C94.7908 24.5493 96.2948 24.176 97.9588 24.176C99.6228 24.176 101.127 24.5493 102.471 25.296C103.815 26.0213 104.871 27.0667 105.639 28.432C106.428 29.7973 106.823 31.3867 106.823 33.2C106.823 35.0133 106.417 36.6133 105.607 38C104.817 39.3653 103.74 40.4213 102.375 41.168C101.009 41.9147 99.4948 42.288 97.8308 42.288ZM97.8308 39.728C98.8761 39.728 99.8574 39.4827 100.775 38.992C101.692 38.5013 102.428 37.7653 102.983 36.784C103.559 35.8027 103.847 34.608 103.847 33.2C103.847 31.792 103.569 30.5973 103.015 29.616C102.46 28.6347 101.735 27.9093 100.839 27.44C99.9428 26.9493 98.9721 26.704 97.9268 26.704C96.8601 26.704 95.8788 26.9493 94.9828 27.44C94.1081 27.9093 93.4041 28.6347 92.8708 29.616C92.3374 30.5973 92.0708 31.792 92.0708 33.2C92.0708 34.6293 92.3268 35.8347 92.8388 36.816C93.3721 37.7973 94.0761 38.5333 94.9508 39.024C95.8254 39.4933 96.7854 39.728 97.8308 39.728ZM109.564 33.168C109.564 31.376 109.926 29.808 110.652 28.464C111.377 27.0987 112.369 26.0427 113.628 25.296C114.908 24.5493 116.337 24.176 117.916 24.176C119.281 24.176 120.55 24.496 121.724 25.136C122.897 25.7547 123.793 26.576 124.412 27.6V18.32H127.356V42H124.412V38.704C123.836 39.7493 122.982 40.6133 121.852 41.296C120.721 41.9573 119.398 42.288 117.884 42.288C116.326 42.288 114.908 41.904 113.628 41.136C112.369 40.368 111.377 39.2907 110.652 37.904C109.926 36.5173 109.564 34.9387 109.564 33.168ZM124.412 33.2C124.412 31.8773 124.145 30.7253 123.612 29.744C123.078 28.7627 122.353 28.016 121.436 27.504C120.54 26.9707 119.548 26.704 118.46 26.704C117.372 26.704 116.38 26.96 115.484 27.472C114.588 27.984 113.873 28.7307 113.34 29.712C112.806 30.6933 112.54 31.8453 112.54 33.168C112.54 34.512 112.806 35.6853 113.34 36.688C113.873 37.6693 114.588 38.4267 115.484 38.96C116.38 39.472 117.372 39.728 118.46 39.728C119.548 39.728 120.54 39.472 121.436 38.96C122.353 38.4267 123.078 37.6693 123.612 36.688C124.145 35.6853 124.412 34.5227 124.412 33.2ZM135.189 27.312C135.701 26.3093 136.426 25.5307 137.365 24.976C138.325 24.4213 139.487 24.144 140.853 24.144V27.152H140.085C136.821 27.152 135.189 28.9227 135.189 32.464V42H132.277V24.464H135.189V27.312ZM149.206 37.776H156.374V42H143.734V19.536H149.206V37.776ZM161.736 22.288C160.776 22.288 159.987 22.0107 159.368 21.456C158.771 20.88 158.472 20.176 158.472 19.344C158.472 18.4907 158.771 17.7867 159.368 17.232C159.987 16.656 160.776 16.368 161.736 16.368C162.675 16.368 163.443 16.656 164.04 17.232C164.659 17.7867 164.968 18.4907 164.968 19.344C164.968 20.176 164.659 20.88 164.04 21.456C163.443 22.0107 162.675 22.288 161.736 22.288ZM164.456 24.144V42H158.984V24.144H164.456ZM177.382 28.688H174.438V42H168.966V28.688H166.982V24.144H168.966V23.632C168.966 21.4347 169.595 19.7707 170.854 18.64C172.112 17.488 173.958 16.912 176.39 16.912C176.795 16.912 177.094 16.9227 177.286 16.944V21.584C176.24 21.52 175.504 21.6693 175.078 22.032C174.651 22.3947 174.438 23.0453 174.438 23.984V24.144H177.382V28.688ZM196.785 32.784C196.785 33.296 196.753 33.8293 196.689 34.384H184.305C184.39 35.4933 184.742 36.3467 185.361 36.944C186.001 37.52 186.779 37.808 187.697 37.808C189.062 37.808 190.011 37.232 190.545 36.08H196.369C196.07 37.2533 195.526 38.3093 194.737 39.248C193.969 40.1867 192.998 40.9227 191.825 41.456C190.651 41.9893 189.339 42.256 187.889 42.256C186.139 42.256 184.582 41.8827 183.217 41.136C181.851 40.3893 180.785 39.3227 180.017 37.936C179.249 36.5493 178.865 34.928 178.865 33.072C178.865 31.216 179.238 29.5947 179.985 28.208C180.753 26.8213 181.819 25.7547 183.185 25.008C184.55 24.2613 186.118 23.888 187.889 23.888C189.617 23.888 191.153 24.2507 192.497 24.976C193.841 25.7013 194.886 26.736 195.633 28.08C196.401 29.424 196.785 30.992 196.785 32.784ZM191.185 31.344C191.185 30.4053 190.865 29.6587 190.225 29.104C189.585 28.5493 188.785 28.272 187.825 28.272C186.907 28.272 186.129 28.5387 185.489 29.072C184.87 29.6053 184.486 30.3627 184.337 31.344H191.185Z" fill="#F71515"/>
<path d="M12.692 35.248L4.844 27.184L12.692 19.12H19.028L11.18 27.184L19.028 35.248H12.692ZM39.0074 5.908L29.2874 46.516H24.3554L34.0754 5.908H39.0074ZM43.7353 19.12H50.1073L57.9553 27.184L50.1073 35.248H43.7353L51.6193 27.184L43.7353 19.12Z" fill="white"/>
</g>
<defs>
<filter id="filter0_d_13_376" x="0.843994" y="5.9082" width="199.941" height="48.6079" filterUnits="userSpaceOnUse" color-interpolation-filters="sRGB">
<feFlood flood-opacity="0" result="BackgroundImageFix"/>
<feColorMatrix in="SourceAlpha" type="matrix" values="0 0 0 0 0 0 0 0 0 0 0 0 0 0 0 0 0 0 127 0" result="hardAlpha"/>
<feOffset dy="4"/>
<feGaussianBlur stdDeviation="2"/>
<feComposite in2="hardAlpha" operator="out"/>
<feColorMatrix type="matrix" values="0 0 0 0 0 0 0 0 0 0 0 0 0 0 0 0 0 0 0.25 0"/>
<feBlend mode="normal" in2="BackgroundImageFix" result="effect1_dropShadow_13_376"/>
<feBlend mode="normal" in="SourceGraphic" in2="effect1_dropShadow_13_376" result="shape"/>
</filter>
</defs>
</svg>
