<svg width="196" height="55" viewBox="0 0 196 55" fill="none" xmlns="http://www.w3.org/2000/svg">
<path d="M62.376 30.832C62.376 28.656 62.8667 26.704 63.848 24.976C64.8293 23.2267 66.1627 21.8613 67.848 20.88C69.5547 19.8987 71.4427 19.408 73.512 19.408C75.944 19.408 78.0667 19.9947 79.88 21.168C81.6933 22.3413 83.016 24.0053 83.848 26.16H80.36C79.7413 24.816 78.8453 23.7813 77.672 23.056C76.52 22.3307 75.1333 21.968 73.512 21.968C71.9547 21.968 70.5573 22.3307 69.32 23.056C68.0827 23.7813 67.112 24.816 66.408 26.16C65.704 27.4827 65.352 29.04 65.352 30.832C65.352 32.6027 65.704 34.16 66.408 35.504C67.112 36.8267 68.0827 37.8507 69.32 38.576C70.5573 39.3013 71.9547 39.664 73.512 39.664C75.1333 39.664 76.52 39.312 77.672 38.608C78.8453 37.8827 79.7413 36.848 80.36 35.504H83.848C83.016 37.6373 81.6933 39.2907 79.88 40.464C78.0667 41.616 75.944 42.192 73.512 42.192C71.4427 42.192 69.5547 41.712 67.848 40.752C66.1627 39.7707 64.8293 38.416 63.848 36.688C62.8667 34.96 62.376 33.008 62.376 30.832ZM95.8308 42.288C94.1881 42.288 92.6948 41.9147 91.3508 41.168C90.0281 40.4213 88.9828 39.3653 88.2148 38C87.4681 36.6133 87.0948 35.0133 87.0948 33.2C87.0948 31.408 87.4788 29.8293 88.2468 28.464C89.0361 27.0773 90.1028 26.0213 91.4468 25.296C92.7908 24.5493 94.2948 24.176 95.9588 24.176C97.6228 24.176 99.1268 24.5493 100.471 25.296C101.815 26.0213 102.871 27.0667 103.639 28.432C104.428 29.7973 104.823 31.3867 104.823 33.2C104.823 35.0133 104.417 36.6133 103.607 38C102.817 39.3653 101.74 40.4213 100.375 41.168C99.0094 41.9147 97.4948 42.288 95.8308 42.288ZM95.8308 39.728C96.8761 39.728 97.8574 39.4827 98.7748 38.992C99.6921 38.5013 100.428 37.7653 100.983 36.784C101.559 35.8027 101.847 34.608 101.847 33.2C101.847 31.792 101.569 30.5973 101.015 29.616C100.46 28.6347 99.7348 27.9093 98.8388 27.44C97.9428 26.9493 96.9721 26.704 95.9268 26.704C94.8601 26.704 93.8788 26.9493 92.9828 27.44C92.1081 27.9093 91.4041 28.6347 90.8708 29.616C90.3374 30.5973 90.0708 31.792 90.0708 33.2C90.0708 34.6293 90.3268 35.8347 90.8388 36.816C91.3721 37.7973 92.0761 38.5333 92.9508 39.024C93.8254 39.4933 94.7854 39.728 95.8308 39.728ZM107.564 33.168C107.564 31.376 107.926 29.808 108.652 28.464C109.377 27.0987 110.369 26.0427 111.628 25.296C112.908 24.5493 114.337 24.176 115.916 24.176C117.281 24.176 118.55 24.496 119.724 25.136C120.897 25.7547 121.793 26.576 122.412 27.6V18.32H125.356V42H122.412V38.704C121.836 39.7493 120.982 40.6133 119.852 41.296C118.721 41.9573 117.398 42.288 115.884 42.288C114.326 42.288 112.908 41.904 111.628 41.136C110.369 40.368 109.377 39.2907 108.652 37.904C107.926 36.5173 107.564 34.9387 107.564 33.168ZM122.412 33.2C122.412 31.8773 122.145 30.7253 121.612 29.744C121.078 28.7627 120.353 28.016 119.436 27.504C118.54 26.9707 117.548 26.704 116.46 26.704C115.372 26.704 114.38 26.96 113.484 27.472C112.588 27.984 111.873 28.7307 111.34 29.712C110.806 30.6933 110.54 31.8453 110.54 33.168C110.54 34.512 110.806 35.6853 111.34 36.688C111.873 37.6693 112.588 38.4267 113.484 38.96C114.38 39.472 115.372 39.728 116.46 39.728C117.548 39.728 118.54 39.472 119.436 38.96C120.353 38.4267 121.078 37.6693 121.612 36.688C122.145 35.6853 122.412 34.5227 122.412 33.2ZM133.189 27.312C133.701 26.3093 134.426 25.5307 135.365 24.976C136.325 24.4213 137.487 24.144 138.853 24.144V27.152H138.085C134.821 27.152 133.189 28.9227 133.189 32.464V42H130.277V24.464H133.189V27.312ZM147.206 37.776H154.374V42H141.734V19.536H147.206V37.776ZM159.736 22.288C158.776 22.288 157.987 22.0107 157.368 21.456C156.771 20.88 156.472 20.176 156.472 19.344C156.472 18.4907 156.771 17.7867 157.368 17.232C157.987 16.656 158.776 16.368 159.736 16.368C160.675 16.368 161.443 16.656 162.04 17.232C162.659 17.7867 162.968 18.4907 162.968 19.344C162.968 20.176 162.659 20.88 162.04 21.456C161.443 22.0107 160.675 22.288 159.736 22.288ZM162.456 24.144V42H156.984V24.144H162.456ZM175.382 28.688H172.438V42H166.966V28.688H164.982V24.144H166.966V23.632C166.966 21.4347 167.595 19.7707 168.854 18.64C170.112 17.488 171.958 16.912 174.39 16.912C174.795 16.912 175.094 16.9227 175.286 16.944V21.584C174.24 21.52 173.504 21.6693 173.078 22.032C172.651 22.3947 172.438 23.0453 172.438 23.984V24.144H175.382V28.688ZM194.785 32.784C194.785 33.296 194.753 33.8293 194.689 34.384H182.305C182.39 35.4933 182.742 36.3467 183.361 36.944C184.001 37.52 184.779 37.808 185.697 37.808C187.062 37.808 188.011 37.232 188.545 36.08H194.369C194.07 37.2533 193.526 38.3093 192.737 39.248C191.969 40.1867 190.998 40.9227 189.825 41.456C188.651 41.9893 187.339 42.256 185.889 42.256C184.139 42.256 182.582 41.8827 181.217 41.136C179.851 40.3893 178.785 39.3227 178.017 37.936C177.249 36.5493 176.865 34.928 176.865 33.072C176.865 31.216 177.238 29.5947 177.985 28.208C178.753 26.8213 179.819 25.7547 181.185 25.008C182.55 24.2613 184.118 23.888 185.889 23.888C187.617 23.888 189.153 24.2507 190.497 24.976C191.841 25.7013 192.886 26.736 193.633 28.08C194.401 29.424 194.785 30.992 194.785 32.784ZM189.185 31.344C189.185 30.4053 188.865 29.6587 188.225 29.104C187.585 28.5493 186.785 28.272 185.825 28.272C184.907 28.272 184.129 28.5387 183.489 29.072C182.87 29.6053 182.486 30.3627 182.337 31.344H189.185Z" fill="#F71515"/>
<path d="M10.692 35.248L2.844 27.184L10.692 19.12H17.028L9.18 27.184L17.028 35.248H10.692ZM37.0074 5.908L27.2874 46.516H22.3554L32.0754 5.908H37.0074ZM41.7353 19.12H48.1073L55.9553 27.184L48.1073 35.248H41.7353L49.6193 27.184L41.7353 19.12Z" fill="#281713"/>
</svg>
