<svg width="55" height="55" viewBox="0 0 55 55" fill="none" xmlns="http://www.w3.org/2000/svg">
<path d="M36.0938 27.5C33.8852 27.5 31.7496 26.5139 30.0781 24.7242C28.4528 22.9786 27.4603 20.6508 27.2852 18.1715C27.0982 15.5268 27.905 13.0947 29.5561 11.3223C31.2071 9.5498 33.5156 8.59375 36.0938 8.59375C38.6536 8.59375 40.9686 9.56699 42.6143 11.3352C44.2761 13.1205 45.085 15.5482 44.8981 18.1704C44.7187 20.6529 43.7272 22.9797 42.1051 24.7231C40.4379 26.5139 38.3034 27.5 36.0938 27.5Z" fill="url(#paint0_linear_9_11)"/>
<path d="M50.2552 46.4062H21.9334C21.4781 46.4087 21.0282 46.3066 20.6185 46.1079C20.2088 45.9092 19.8501 45.6191 19.5701 45.2601C19.2731 44.8708 19.068 44.4194 18.9701 43.9396C18.8723 43.4598 18.8842 42.9641 19.0051 42.4896C19.9096 38.8577 22.1504 35.8456 25.4848 33.7799C28.4443 31.9473 32.2115 30.9375 36.0938 30.9375C40.0523 30.9375 43.7207 31.9043 46.6974 33.7358C50.0393 35.7908 52.2833 38.8201 53.1835 42.4961C53.3029 42.9709 53.3135 43.4666 53.2146 43.9461C53.1156 44.4257 52.9096 44.8766 52.612 45.2654C52.3323 45.6228 51.9745 45.9115 51.5659 46.1092C51.1574 46.307 50.709 46.4086 50.2552 46.4062Z" fill="url(#paint1_linear_9_11)"/>
<path d="M15.791 27.9297C12.0108 27.9297 8.68716 24.4148 8.37886 20.0954C8.22632 17.8825 8.91596 15.8361 10.3124 14.3354C11.6939 12.8498 13.6425 12.0312 15.791 12.0312C17.9394 12.0312 19.873 12.8541 21.262 14.3483C22.6692 15.8608 23.3567 17.9029 23.1956 20.0976C22.8873 24.4159 19.5647 27.9297 15.791 27.9297Z" fill="url(#paint2_linear_9_11)"/>
<path d="M22.8443 31.3081C20.9548 30.3843 18.5023 29.9224 15.7921 29.9224C12.6274 29.9224 9.5541 30.7474 7.13711 32.2448C4.39678 33.9453 2.55342 36.4214 1.80898 39.4109C1.70004 39.8409 1.68974 40.29 1.77884 40.7246C1.86795 41.1591 2.05415 41.5679 2.32353 41.9203C2.57914 42.2485 2.9066 42.5136 3.28074 42.6954C3.65487 42.8771 4.0657 42.9706 4.48164 42.9688H16.4055C16.6067 42.9687 16.8016 42.8981 16.9561 42.7691C17.1106 42.6401 17.2149 42.461 17.2509 42.263C17.2627 42.1953 17.2777 42.1276 17.2949 42.061C18.2059 38.4022 20.3403 35.3106 23.4942 33.0569C23.6102 32.9733 23.7035 32.8621 23.7657 32.7333C23.8278 32.6045 23.8569 32.4622 23.8501 32.3194C23.8434 32.1766 23.8012 32.0377 23.7272 31.9153C23.6532 31.7929 23.5499 31.6909 23.4266 31.6186C23.2579 31.5197 23.0646 31.4155 22.8443 31.3081Z" fill="url(#paint3_linear_9_11)"/>
<defs>
<linearGradient id="paint0_linear_9_11" x1="36.0916" y1="8.59375" x2="36.0916" y2="27.5" gradientUnits="userSpaceOnUse">
<stop offset="0.258333" stop-color="#FF7527"/>
<stop offset="0.945833" stop-color="#E257CE"/>
</linearGradient>
<linearGradient id="paint1_linear_9_11" x1="36.0932" y1="30.9375" x2="36.0932" y2="46.4063" gradientUnits="userSpaceOnUse">
<stop offset="0.258333" stop-color="#FF7527"/>
<stop offset="0.945833" stop-color="#E257CE"/>
</linearGradient>
<linearGradient id="paint2_linear_9_11" x1="15.7883" y1="12.0312" x2="15.7883" y2="27.9297" gradientUnits="userSpaceOnUse">
<stop offset="0.258333" stop-color="#FF7527"/>
<stop offset="0.945833" stop-color="#E257CE"/>
</linearGradient>
<linearGradient id="paint3_linear_9_11" x1="12.785" y1="29.9224" x2="12.785" y2="42.9688" gradientUnits="userSpaceOnUse">
<stop offset="0.258333" stop-color="#FF7527"/>
<stop offset="0.945833" stop-color="#E257CE"/>
</linearGradient>
</defs>
</svg>
