<svg width="1440" height="751" viewBox="0 0 1440 751" fill="none" xmlns="http://www.w3.org/2000/svg">
<g clip-path="url(#clip0_30_44)" filter="url(#filter0_d_30_44)">
<path opacity="0.9" d="M-51 445.8L1389 0L2829 594.4L4269 668.7L5709 445.8L7149 668.7L8589 74.3L10029 594.4L11469 520.1H12909L14349 594.4H15789L17229 0L18669 594.4L20109 0L21549 371.5L22989 668.7L24429 445.8L25869 148.6L27309 0H28749L30189 297.2L31629 0L33069 445.8L34509 74.3V743H33069H31629H30189H28749H27309H25869H24429H22989H21549H20109H18669H17229H15789H14349H12909H11469H10029H8589H7149H5709H4269H2829H1389H-51V445.8Z" fill="url(#paint0_linear_30_44)"/>
</g>
<defs>
<filter id="filter0_d_30_44" x="-4" y="0" width="1448" height="751" filterUnits="userSpaceOnUse" color-interpolation-filters="sRGB">
<feFlood flood-opacity="0" result="BackgroundImageFix"/>
<feColorMatrix in="SourceAlpha" type="matrix" values="0 0 0 0 0 0 0 0 0 0 0 0 0 0 0 0 0 0 127 0" result="hardAlpha"/>
<feOffset dy="4"/>
<feGaussianBlur stdDeviation="2"/>
<feComposite in2="hardAlpha" operator="out"/>
<feColorMatrix type="matrix" values="0 0 0 0 0 0 0 0 0 0 0 0 0 0 0 0 0 0 0.25 0"/>
<feBlend mode="normal" in2="BackgroundImageFix" result="effect1_dropShadow_30_44"/>
<feBlend mode="normal" in="SourceGraphic" in2="effect1_dropShadow_30_44" result="shape"/>
</filter>
<linearGradient id="paint0_linear_30_44" x1="-51" y1="743" x2="-51" y2="0" gradientUnits="userSpaceOnUse">
<stop offset="0.046875" stop-color="#FF7527"/>
<stop offset="0.90625" stop-color="#E257CE"/>
</linearGradient>
<clipPath id="clip0_30_44">
<rect width="1440" height="743" fill="white"/>
</clipPath>
</defs>
</svg>
