<svg width="55" height="55" viewBox="0 0 55 55" fill="none" xmlns="http://www.w3.org/2000/svg">
<rect width="55" height="55" fill="url(#paint0_linear_9_22)"/>
<g clip-path="url(#clip0_9_22)">
<path d="M55 35.175C55 34.3544 54.517 33.6689 53.8298 33.3296V20.6005C53.9856 20.5417 54.0825 20.3945 54.0808 20.2301C54.0808 20.0656 53.9735 19.9202 53.8228 19.8665L27.5597 10.6032C27.2239 10.4837 26.8569 10.4837 26.5193 10.6032L0.259693 19.8683C0.105622 19.9219 0.00175355 20.0673 2.24155e-05 20.2318C-0.00170872 20.3962 0.0969662 20.5434 0.249306 20.6023L26.4726 30.809C26.8379 30.9493 27.2412 30.9493 27.6065 30.809L52.019 21.3016V33.3279C51.3335 33.6654 50.8505 34.3561 50.8505 35.1715C50.8505 36.0232 51.3698 36.7624 52.1125 37.0792C51.3698 38.5455 50.8505 41.5542 50.8505 42.4129C50.8505 43.5571 51.7801 44.485 52.9244 44.485C54.0669 44.485 54.9966 43.5571 54.9966 42.4129C54.9966 41.5542 54.4755 38.5455 53.7346 37.0792C54.479 36.7659 55 36.0267 55 35.175Z" fill="url(#paint1_linear_9_22)"/>
<path d="M8.46182 25.742C8.46355 28.678 8.46528 32.1334 8.46528 32.6821C8.46528 38.1491 16.6934 42.5998 27.0404 42.8785C37.3857 42.5998 45.6138 38.1543 45.6138 32.6821C45.6138 32.1368 45.6138 28.6797 45.6172 25.742L27.603 32.7548C27.2377 32.8968 26.8344 32.8968 26.4691 32.7548L8.46182 25.742Z" fill="url(#paint2_linear_9_22)"/>
</g>
<defs>
<linearGradient id="paint0_linear_9_22" x1="27.5" y1="0" x2="27.5" y2="55" gradientUnits="userSpaceOnUse">
<stop stop-color="white"/>
<stop offset="1" stop-color="white" stop-opacity="0"/>
</linearGradient>
<linearGradient id="paint1_linear_9_22" x1="27.5" y1="10.5136" x2="27.5" y2="44.485" gradientUnits="userSpaceOnUse">
<stop stop-color="#FF7527"/>
<stop offset="1" stop-color="#E257CE"/>
</linearGradient>
<linearGradient id="paint2_linear_9_22" x1="27.0395" y1="25.742" x2="27.0395" y2="42.8785" gradientUnits="userSpaceOnUse">
<stop stop-color="#FF7527"/>
<stop offset="1" stop-color="#E257CE"/>
</linearGradient>
<clipPath id="clip0_9_22">
<rect width="55" height="55" fill="white"/>
</clipPath>
</defs>
</svg>
